# MagicaVoxel @ Ephtracy

# group
g Bork 5 An2

# material
mtllib Bork 5 An2.mtl
usemtl palette

# normals
vn -1 0 0
vn 1 0 0
vn 0 0 1
vn 0 0 -1
vn 0 -1 0
vn 0 1 0

# texcoords
vt 0.0644531 0.5
vt 0.958984 0.5
vt 0.994141 0.5

# verts
v -7 1 1
v -7 1 -0
v -7 4 1
v -7 4 -0
v -6 4 1
v -6 4 -0
v -6 5 1
v -6 5 -0
v -5 5 1
v -5 5 -0
v -5 8 1
v -5 8 -0
v -4 0 3
v -4 0 1
v -4 1 -0
v -4 1 -2
v -4 4 1
v -4 4 -0
v -4 8 3
v -4 8 1
v -4 8 -0
v -4 8 -2
v 0 5 3
v 0 5 -2
v 0 6 3
v 0 6 -2
v 1 4 3
v 1 4 -2
v 1 5 3
v 1 5 -2
v 2 8 4
v 2 8 3
v 2 8 -2
v 2 8 -3
v 2 11 4
v 2 11 3
v 2 11 -2
v 2 11 -3
v 2 12 3
v 2 12 -2
v 3 0 -0
v 3 0 -2
v 3 1 3
v 3 1 1
v 3 4 3
v 3 4 1
v 3 4 -0
v 3 4 -2
v -6 1 1
v -6 1 -0
v -6 3 1
v -6 3 -0
v -5 3 1
v -5 3 -0
v -5 4 1
v -5 4 -0
v -2 0 3
v -2 0 1
v -2 1 -0
v -2 1 -2
v -2 4 1
v -2 4 -0
v -2 6 3
v -2 6 -2
v 4 8 4
v 4 8 3
v 4 8 -2
v 4 8 -3
v 4 11 4
v 4 11 3
v 4 11 -2
v 4 11 -3
v 5 0 -0
v 5 0 -2
v 5 1 3
v 5 1 1
v 5 4 1
v 5 4 -0
v 5 8 3
v 5 8 -2
v 5 11 3
v 5 11 2
v 5 11 -1
v 5 11 -2
v 5 12 3
v 5 12 2
v 5 12 -1
v 5 12 -2
v 6 8 3
v 6 8 2
v 6 8 -1
v 6 8 -2
v 6 9 2
v 6 9 -1
v 6 10 3
v 6 10 2
v 6 10 -1
v 6 10 -2
v 6 11 3
v 6 11 2
v 6 11 -1
v 6 11 -2
v 6 12 2
v 6 12 -1
v 8 8 2
v 8 8 1
v 8 8 -0
v 8 8 -1
v 8 9 2
v 8 9 1
v 8 9 -0
v 8 9 -1
v 8 10 2
v 8 10 1
v 8 10 -0
v 8 10 -1
v 9 9 1
v 9 9 -0
v 9 10 1
v 9 10 -0
v 2 8 4
v 2 11 4
v 4 8 4
v 4 11 4
v -4 0 3
v -4 8 3
v -2 0 3
v -2 6 3
v 0 5 3
v 0 6 3
v 1 4 3
v 1 5 3
v 2 8 3
v 2 11 3
v 2 12 3
v 3 1 3
v 3 4 3
v 4 8 3
v 4 11 3
v 5 1 3
v 5 8 3
v 5 10 3
v 5 11 3
v 5 12 3
v 6 8 3
v 6 10 3
v 6 11 3
v 5 11 2
v 5 12 2
v 6 8 2
v 6 9 2
v 6 10 2
v 6 11 2
v 6 12 2
v 8 8 2
v 8 9 2
v 8 10 2
v -7 1 1
v -7 4 1
v -6 1 1
v -6 3 1
v -6 4 1
v -6 5 1
v -5 3 1
v -5 4 1
v -5 5 1
v -5 8 1
v -4 4 1
v -4 8 1
v 8 9 1
v 8 10 1
v 9 9 1
v 9 10 1
v -4 1 -0
v -4 4 -0
v -2 1 -0
v -2 4 -0
v 3 0 -0
v 3 4 -0
v 5 0 -0
v 5 4 -0
v -4 0 1
v -4 4 1
v -2 0 1
v -2 4 1
v 3 1 1
v 3 4 1
v 5 1 1
v 5 4 1
v -7 1 -0
v -7 4 -0
v -6 1 -0
v -6 3 -0
v -6 4 -0
v -6 5 -0
v -5 3 -0
v -5 4 -0
v -5 5 -0
v -5 8 -0
v -4 4 -0
v -4 8 -0
v 8 9 -0
v 8 10 -0
v 9 9 -0
v 9 10 -0
v 5 11 -1
v 5 12 -1
v 6 8 -1
v 6 9 -1
v 6 10 -1
v 6 11 -1
v 6 12 -1
v 8 8 -1
v 8 9 -1
v 8 10 -1
v -4 1 -2
v -4 8 -2
v -2 1 -2
v -2 6 -2
v 0 5 -2
v 0 6 -2
v 1 4 -2
v 1 5 -2
v 2 8 -2
v 2 11 -2
v 2 12 -2
v 3 0 -2
v 3 4 -2
v 4 8 -2
v 4 11 -2
v 5 0 -2
v 5 8 -2
v 5 10 -2
v 5 11 -2
v 5 12 -2
v 6 8 -2
v 6 10 -2
v 6 11 -2
v 2 8 -3
v 2 11 -3
v 4 8 -3
v 4 11 -3
v -4 0 3
v -2 0 3
v -4 0 1
v -2 0 1
v 3 0 -0
v 5 0 -0
v 3 0 -2
v 5 0 -2
v 3 1 3
v 5 1 3
v -7 1 1
v -6 1 1
v 3 1 1
v 5 1 1
v -7 1 -0
v -6 1 -0
v -4 1 -0
v -2 1 -0
v -4 1 -2
v -2 1 -2
v -6 3 1
v -5 3 1
v -6 3 -0
v -5 3 -0
v 1 4 3
v 3 4 3
v -5 4 1
v -4 4 1
v -2 4 1
v 3 4 1
v 5 4 1
v -5 4 -0
v -4 4 -0
v -2 4 -0
v 3 4 -0
v 5 4 -0
v 1 4 -2
v 3 4 -2
v 0 5 3
v 1 5 3
v 0 5 -2
v 1 5 -2
v -2 6 3
v 0 6 3
v -2 6 -2
v 0 6 -2
v 2 8 4
v 4 8 4
v 2 8 3
v 4 8 3
v 5 8 3
v 6 8 3
v 6 8 2
v 8 8 2
v 6 8 1
v 8 8 1
v 6 8 -0
v 8 8 -0
v 6 8 -1
v 8 8 -1
v 2 8 -2
v 4 8 -2
v 5 8 -2
v 6 8 -2
v 2 8 -3
v 4 8 -3
v 8 9 1
v 9 9 1
v 8 9 -0
v 9 9 -0
v -7 4 1
v -6 4 1
v -7 4 -0
v -6 4 -0
v -6 5 1
v -5 5 1
v -6 5 -0
v -5 5 -0
v -4 8 3
v 2 8 3
v -5 8 1
v -4 8 1
v -5 8 -0
v -4 8 -0
v -4 8 -2
v 2 8 -2
v 6 10 2
v 8 10 2
v 8 10 1
v 9 10 1
v 8 10 -0
v 9 10 -0
v 6 10 -1
v 8 10 -1
v 2 11 4
v 4 11 4
v 2 11 3
v 4 11 3
v 5 11 3
v 6 11 3
v 5 11 2
v 6 11 2
v 5 11 -1
v 6 11 -1
v 2 11 -2
v 4 11 -2
v 5 11 -2
v 6 11 -2
v 2 11 -3
v 4 11 -3
v 2 12 3
v 5 12 3
v 5 12 2
v 6 12 2
v 5 12 -1
v 6 12 -1
v 2 12 -2
v 5 12 -2

# faces
f 3/1/1 2/1/1 1/1/1
f 4/1/1 2/1/1 3/1/1
f 7/1/1 6/1/1 5/1/1
f 8/1/1 6/1/1 7/1/1
f 11/1/1 10/1/1 9/1/1
f 12/1/1 10/1/1 11/1/1
f 17/1/1 14/1/1 13/1/1
f 18/1/1 16/1/1 15/1/1
f 19/1/1 17/1/1 13/1/1
f 20/1/1 17/1/1 19/1/1
f 21/1/1 16/1/1 18/1/1
f 22/1/1 16/1/1 21/1/1
f 25/1/1 24/1/1 23/1/1
f 26/1/1 24/1/1 25/1/1
f 29/1/1 28/1/1 27/1/1
f 30/1/1 28/1/1 29/1/1
f 35/1/1 32/1/1 31/1/1
f 35/1/1 34/1/1 33/1/1
f 35/1/1 33/1/1 32/1/1
f 36/1/1 34/1/1 35/1/1
f 37/1/1 34/1/1 36/1/1
f 38/1/1 34/1/1 37/1/1
f 39/1/1 37/1/1 36/1/1
f 40/1/1 37/1/1 39/1/1
f 45/1/1 44/1/1 43/1/1
f 46/1/1 44/1/1 45/1/1
f 47/1/1 42/1/1 41/1/1
f 48/1/1 42/1/1 47/1/1
f 49/1/2 50/1/2 51/1/2
f 51/1/2 50/1/2 52/1/2
f 53/1/2 54/1/2 55/1/2
f 55/1/2 54/1/2 56/1/2
f 57/1/2 58/1/2 61/1/2
f 59/1/2 60/1/2 62/1/2
f 57/1/2 61/1/2 63/1/2
f 61/1/2 62/1/2 63/1/2
f 62/1/2 60/1/2 64/1/2
f 63/1/2 62/1/2 64/1/2
f 65/1/2 66/1/2 69/1/2
f 69/1/2 66/1/2 70/1/2
f 67/1/2 68/1/2 71/1/2
f 71/1/2 68/1/2 72/1/2
f 75/1/2 76/1/2 77/1/2
f 73/1/2 74/1/2 78/1/2
f 75/1/2 77/1/2 79/1/2
f 77/1/2 78/1/2 79/1/2
f 78/1/2 74/1/2 80/1/2
f 79/1/2 78/1/2 80/1/2
f 81/1/2 82/1/2 85/1/2
f 85/1/2 82/1/2 86/1/2
f 83/1/2 84/1/2 87/1/2
f 87/1/2 84/1/2 88/1/2
f 89/1/2 90/1/2 93/1/2
f 91/1/2 92/1/2 94/1/2
f 89/1/2 93/1/2 95/1/2
f 95/1/2 93/1/2 96/1/2
f 94/1/2 92/1/2 97/1/2
f 97/1/2 92/1/2 98/1/2
f 95/3/2 96/3/2 99/3/2
f 96/1/2 97/1/2 100/1/2
f 99/3/2 96/3/2 100/3/2
f 97/3/2 98/3/2 101/3/2
f 100/1/2 97/1/2 101/1/2
f 101/3/2 98/3/2 102/3/2
f 100/1/2 101/1/2 103/1/2
f 103/1/2 101/1/2 104/1/2
f 105/2/2 106/2/2 109/2/2
f 106/1/2 107/1/2 110/1/2
f 109/2/2 106/2/2 110/2/2
f 107/2/2 108/2/2 111/2/2
f 110/1/2 107/1/2 111/1/2
f 111/2/2 108/2/2 112/2/2
f 109/1/2 110/1/2 113/1/2
f 113/1/2 110/1/2 114/1/2
f 111/1/2 112/1/2 115/1/2
f 115/1/2 112/1/2 116/1/2
f 117/3/2 118/3/2 119/3/2
f 119/3/2 118/3/2 120/3/2
f 123/1/3 122/1/3 121/1/3
f 124/1/3 122/1/3 123/1/3
f 127/1/3 126/1/3 125/1/3
f 128/1/3 126/1/3 127/1/3
f 130/1/3 126/1/3 128/1/3
f 132/1/3 130/1/3 129/1/3
f 133/1/3 126/1/3 130/1/3
f 133/1/3 132/1/3 131/1/3
f 133/1/3 130/1/3 132/1/3
f 137/1/3 133/1/3 131/1/3
f 138/1/3 133/1/3 137/1/3
f 138/1/3 137/1/3 136/1/3
f 139/1/3 135/1/3 134/1/3
f 140/1/3 138/1/3 136/1/3
f 140/1/3 139/1/3 138/1/3
f 141/1/3 139/1/3 140/1/3
f 142/1/3 139/1/3 141/1/3
f 143/1/3 135/1/3 139/1/3
f 143/1/3 139/1/3 142/1/3
f 144/1/3 135/1/3 143/1/3
f 145/1/3 142/1/3 141/1/3
f 146/3/3 143/3/3 142/3/3
f 146/1/3 142/1/3 145/1/3
f 147/3/3 143/3/3 146/3/3
f 153/1/3 149/1/3 148/1/3
f 154/1/3 149/1/3 153/1/3
f 155/2/3 151/2/3 150/2/3
f 156/1/3 152/1/3 151/1/3
f 156/2/3 151/2/3 155/2/3
f 157/1/3 152/1/3 156/1/3
f 160/1/3 159/1/3 158/1/3
f 161/1/3 159/1/3 160/1/3
f 162/1/3 159/1/3 161/1/3
f 164/1/3 163/1/3 162/1/3
f 164/1/3 162/1/3 161/1/3
f 165/1/3 163/1/3 164/1/3
f 166/1/3 163/1/3 165/1/3
f 168/1/3 167/1/3 166/1/3
f 168/1/3 166/1/3 165/1/3
f 169/1/3 167/1/3 168/1/3
f 172/3/3 171/3/3 170/3/3
f 173/3/3 171/3/3 172/3/3
f 176/1/3 175/1/3 174/1/3
f 177/1/3 175/1/3 176/1/3
f 180/1/3 179/1/3 178/1/3
f 181/1/3 179/1/3 180/1/3
f 182/1/4 183/1/4 184/1/4
f 184/1/4 183/1/4 185/1/4
f 186/1/4 187/1/4 188/1/4
f 188/1/4 187/1/4 189/1/4
f 190/1/4 191/1/4 192/1/4
f 192/1/4 191/1/4 193/1/4
f 193/1/4 191/1/4 194/1/4
f 194/1/4 195/1/4 196/1/4
f 193/1/4 194/1/4 196/1/4
f 196/1/4 195/1/4 197/1/4
f 197/1/4 195/1/4 198/1/4
f 198/1/4 199/1/4 200/1/4
f 197/1/4 198/1/4 200/1/4
f 200/1/4 199/1/4 201/1/4
f 202/3/4 203/3/4 204/3/4
f 204/3/4 203/3/4 205/3/4
f 206/1/4 207/1/4 211/1/4
f 211/1/4 207/1/4 212/1/4
f 208/2/4 209/2/4 213/2/4
f 209/1/4 210/1/4 214/1/4
f 213/2/4 209/2/4 214/2/4
f 214/1/4 210/1/4 215/1/4
f 216/1/4 217/1/4 218/1/4
f 218/1/4 217/1/4 219/1/4
f 219/1/4 217/1/4 221/1/4
f 220/1/4 221/1/4 223/1/4
f 221/1/4 217/1/4 224/1/4
f 222/1/4 223/1/4 224/1/4
f 223/1/4 221/1/4 224/1/4
f 222/1/4 224/1/4 228/1/4
f 228/1/4 224/1/4 229/1/4
f 227/1/4 228/1/4 229/1/4
f 225/1/4 226/1/4 230/1/4
f 227/1/4 229/1/4 231/1/4
f 229/1/4 230/1/4 231/1/4
f 231/1/4 230/1/4 232/1/4
f 232/1/4 230/1/4 233/1/4
f 230/1/4 226/1/4 234/1/4
f 233/1/4 230/1/4 234/1/4
f 234/1/4 226/1/4 235/1/4
f 232/1/4 233/1/4 236/1/4
f 233/3/4 234/3/4 237/3/4
f 236/1/4 233/1/4 237/1/4
f 237/3/4 234/3/4 238/3/4
f 239/1/4 240/1/4 241/1/4
f 241/1/4 240/1/4 242/1/4
f 245/1/5 244/1/5 243/1/5
f 246/1/5 244/1/5 245/1/5
f 249/1/5 248/1/5 247/1/5
f 250/1/5 248/1/5 249/1/5
f 255/1/5 252/1/5 251/1/5
f 256/1/5 252/1/5 255/1/5
f 257/1/5 254/1/5 253/1/5
f 258/1/5 254/1/5 257/1/5
f 261/1/5 260/1/5 259/1/5
f 262/1/5 260/1/5 261/1/5
f 265/1/5 264/1/5 263/1/5
f 266/1/5 264/1/5 265/1/5
f 272/1/5 268/1/5 267/1/5
f 274/1/5 271/1/5 270/1/5
f 274/1/5 270/1/5 269/1/5
f 275/1/5 271/1/5 274/1/5
f 276/1/5 271/1/5 275/1/5
f 277/1/5 273/1/5 272/1/5
f 277/1/5 272/1/5 267/1/5
f 278/1/5 273/1/5 277/1/5
f 279/1/5 277/1/5 267/1/5
f 280/1/5 277/1/5 279/1/5
f 283/1/5 282/1/5 281/1/5
f 284/1/5 282/1/5 283/1/5
f 287/1/5 286/1/5 285/1/5
f 288/1/5 286/1/5 287/1/5
f 291/1/5 290/1/5 289/1/5
f 292/1/5 290/1/5 291/1/5
f 295/1/5 294/1/5 293/1/5
f 297/1/5 295/1/5 293/1/5
f 297/2/5 296/2/5 295/2/5
f 298/2/5 296/2/5 297/2/5
f 299/1/5 297/1/5 293/1/5
f 299/1/5 298/1/5 297/1/5
f 300/1/5 298/1/5 299/1/5
f 301/1/5 299/1/5 293/1/5
f 301/2/5 300/2/5 299/2/5
f 302/2/5 300/2/5 301/2/5
f 305/1/5 301/1/5 293/1/5
f 306/1/5 301/1/5 305/1/5
f 307/1/5 304/1/5 303/1/5
f 308/1/5 304/1/5 307/1/5
f 311/3/5 310/3/5 309/3/5
f 312/3/5 310/3/5 311/3/5
f 313/1/6 314/1/6 315/1/6
f 315/1/6 314/1/6 316/1/6
f 317/1/6 318/1/6 319/1/6
f 319/1/6 318/1/6 320/1/6
f 321/1/6 322/1/6 324/1/6
f 323/1/6 324/1/6 325/1/6
f 324/1/6 322/1/6 326/1/6
f 325/1/6 324/1/6 326/1/6
f 326/1/6 322/1/6 327/1/6
f 327/1/6 322/1/6 328/1/6
f 329/1/6 330/1/6 331/1/6
f 329/1/6 331/1/6 333/1/6
f 331/3/6 332/3/6 333/3/6
f 333/3/6 332/3/6 334/3/6
f 329/1/6 333/1/6 335/1/6
f 335/1/6 333/1/6 336/1/6
f 337/1/6 338/1/6 339/1/6
f 339/1/6 338/1/6 340/1/6
f 341/3/6 342/3/6 343/3/6
f 343/3/6 342/3/6 344/3/6
f 345/3/6 346/3/6 349/3/6
f 349/3/6 346/3/6 350/3/6
f 347/1/6 348/1/6 351/1/6
f 351/1/6 348/1/6 352/1/6
f 353/1/6 354/1/6 355/1/6
f 353/1/6 355/1/6 357/1/6
f 355/1/6 356/1/6 357/1/6
f 357/1/6 356/1/6 358/1/6
f 353/1/6 357/1/6 359/1/6
f 359/1/6 357/1/6 360/1/6
