# MagicaVoxel @ Ephtracy

# group
g Bork 9 An2

# material
mtllib Bork 9 An2.mtl
usemtl palette

# normals
vn -1 0 0
vn 1 0 0
vn 0 0 1
vn 0 0 -1
vn 0 -1 0
vn 0 1 0

# texcoords
vt 0.0644531 0.5
vt 0.958984 0.5
vt 0.970703 0.5
vt 0.994141 0.5

# verts
v -6 5 2
v -6 5 -1
v -6 7 2
v -6 7 -1
v -5 7 2
v -5 7 -1
v -5 8 2
v -5 8 -1
v -4 0 -2
v -4 0 -4
v -4 1 4
v -4 1 2
v -4 2 4
v -4 2 2
v -4 2 -2
v -4 2 -4
v -4 4 2
v -4 4 -2
v -4 5 2
v -4 5 -1
v -4 8 4
v -4 8 2
v -4 8 -1
v -4 8 -4
v 2 8 3
v 2 8 -3
v 2 11 4
v 2 11 3
v 2 11 -3
v 2 11 -4
v 2 12 4
v 2 12 -4
v 3 0 4
v 3 0 2
v 3 1 -2
v 3 1 -4
v 3 4 4
v 3 4 3
v 3 4 2
v 3 4 -2
v 3 4 -3
v 3 4 -4
v -2 0 -2
v -2 0 -4
v -2 1 4
v -2 1 2
v -2 4 4
v -2 4 2
v -2 4 -2
v -2 4 -3
v -2 4 -4
v 4 4 2
v 4 4 -2
v 4 8 2
v 4 8 -2
v 4 11 4
v 4 11 3
v 4 11 -3
v 4 11 -4
v 4 12 4
v 4 12 3
v 4 12 -3
v 4 12 -4
v 5 0 4
v 5 0 2
v 5 1 -2
v 5 1 -4
v 5 8 4
v 5 8 3
v 5 8 2
v 5 8 -2
v 5 8 -3
v 5 8 -4
v 6 8 3
v 6 8 2
v 6 8 -2
v 6 8 -3
v 6 10 3
v 6 10 2
v 6 10 1
v 6 10 -1
v 6 10 -2
v 6 10 -3
v 6 11 2
v 6 11 1
v 6 11 -1
v 6 11 -2
v 6 12 3
v 6 12 1
v 6 12 -1
v 6 12 -3
v 8 8 2
v 8 8 1
v 8 8 -1
v 8 8 -2
v 8 9 1
v 8 9 -1
v 8 10 2
v 8 10 1
v 8 10 -1
v 8 10 -2
v 9 9 1
v 9 9 -1
v 9 10 1
v 9 10 -1
v -4 1 4
v -4 2 4
v -4 8 4
v -3 2 4
v -3 7 4
v -2 1 4
v -2 4 4
v -2 6 4
v -2 7 4
v -1 4 4
v -1 6 4
v 1 4 4
v 1 6 4
v 2 6 4
v 2 7 4
v 2 11 4
v 2 12 4
v 3 0 4
v 3 4 4
v 3 7 4
v 3 8 4
v 3 11 4
v 3 12 4
v 4 11 4
v 4 12 4
v 5 0 4
v 5 8 4
v 2 8 3
v 2 11 3
v 3 8 3
v 3 11 3
v 4 10 3
v 4 11 3
v 4 12 3
v 5 8 3
v 6 8 3
v 6 10 3
v 6 12 3
v -6 5 2
v -6 7 2
v -5 7 2
v -5 8 2
v -4 5 2
v -4 8 2
v 6 8 2
v 6 10 2
v 8 8 2
v 8 10 2
v 8 9 1
v 8 10 1
v 9 9 1
v 9 10 1
v -4 0 -2
v -4 2 -2
v -4 4 -2
v -3 2 -2
v -3 4 -2
v -2 0 -2
v -2 4 -2
v 3 1 -2
v 3 4 -2
v 4 4 -2
v 4 8 -2
v 5 1 -2
v 5 8 -2
v -4 1 2
v -4 2 2
v -4 4 2
v -3 2 2
v -3 4 2
v -2 1 2
v -2 4 2
v 3 0 2
v 3 4 2
v 4 4 2
v 4 8 2
v 5 0 2
v 5 8 2
v -6 5 -1
v -6 7 -1
v -5 7 -1
v -5 8 -1
v -4 5 -1
v -4 8 -1
v 8 9 -1
v 8 10 -1
v 9 9 -1
v 9 10 -1
v 6 8 -2
v 6 10 -2
v 8 8 -2
v 8 10 -2
v 2 8 -3
v 2 11 -3
v 3 8 -3
v 3 11 -3
v 4 10 -3
v 4 11 -3
v 4 12 -3
v 5 8 -3
v 6 8 -3
v 6 10 -3
v 6 12 -3
v -4 0 -4
v -4 2 -4
v -4 8 -4
v -3 2 -4
v -3 7 -4
v -2 0 -4
v -2 4 -4
v -2 6 -4
v -2 7 -4
v -1 4 -4
v -1 6 -4
v 1 4 -4
v 1 6 -4
v 2 6 -4
v 2 7 -4
v 2 11 -4
v 2 12 -4
v 3 1 -4
v 3 4 -4
v 3 7 -4
v 3 8 -4
v 3 11 -4
v 3 12 -4
v 4 11 -4
v 4 12 -4
v 5 1 -4
v 5 8 -4
v 3 0 4
v 5 0 4
v 3 0 2
v 5 0 2
v -4 0 -2
v -2 0 -2
v -4 0 -4
v -2 0 -4
v -4 1 4
v -2 1 4
v -4 1 2
v -2 1 2
v 3 1 -2
v 5 1 -2
v 3 1 -4
v 5 1 -4
v -2 4 4
v -1 4 4
v 1 4 4
v 3 4 4
v 1 4 3
v 3 4 3
v -4 4 2
v -3 4 2
v -2 4 2
v -1 4 2
v 3 4 2
v 4 4 2
v -4 4 -2
v -3 4 -2
v -2 4 -2
v 3 4 -2
v 4 4 -2
v -2 4 -3
v -1 4 -3
v 1 4 -3
v 3 4 -3
v -2 4 -4
v -1 4 -4
v 1 4 -4
v 3 4 -4
v -6 5 2
v -4 5 2
v -6 5 -1
v -4 5 -1
v 5 8 3
v 6 8 3
v 4 8 2
v 5 8 2
v 6 8 2
v 8 8 2
v 7 8 1
v 8 8 1
v 7 8 -1
v 8 8 -1
v 4 8 -2
v 5 8 -2
v 6 8 -2
v 8 8 -2
v 5 8 -3
v 6 8 -3
v 8 9 1
v 9 9 1
v 8 9 -1
v 9 9 -1
v 2 11 4
v 3 11 4
v 4 11 4
v 2 11 3
v 3 11 3
v 4 11 3
v 2 11 -3
v 3 11 -3
v 4 11 -3
v 2 11 -4
v 3 11 -4
v 4 11 -4
v -6 7 2
v -5 7 2
v -6 7 -1
v -5 7 -1
v -4 8 4
v 3 8 4
v 5 8 4
v 2 8 3
v 3 8 3
v 5 8 3
v -5 8 2
v -4 8 2
v -5 8 -1
v -4 8 -1
v 2 8 -3
v 3 8 -3
v 5 8 -3
v -4 8 -4
v 3 8 -4
v 5 8 -4
v 6 10 2
v 8 10 2
v 6 10 1
v 8 10 1
v 9 10 1
v 6 10 -1
v 8 10 -1
v 9 10 -1
v 6 10 -2
v 8 10 -2
v 2 12 4
v 3 12 4
v 4 12 4
v 4 12 3
v 6 12 3
v 4 12 2
v 5 12 2
v 5 12 1
v 6 12 1
v 5 12 -1
v 6 12 -1
v 4 12 -2
v 5 12 -2
v 4 12 -3
v 6 12 -3
v 2 12 -4
v 3 12 -4
v 4 12 -4

# faces
f 3/1/1 2/1/1 1/1/1
f 4/1/1 2/1/1 3/1/1
f 7/1/1 6/1/1 5/1/1
f 8/1/1 6/1/1 7/1/1
f 13/2/1 12/2/1 11/2/1
f 14/2/1 12/2/1 13/2/1
f 15/2/1 10/2/1 9/2/1
f 16/2/1 10/2/1 15/2/1
f 17/1/1 14/1/1 13/1/1
f 18/1/1 16/1/1 15/1/1
f 19/1/1 17/1/1 13/1/1
f 19/1/1 18/1/1 17/1/1
f 20/1/1 18/1/1 19/1/1
f 21/1/1 19/1/1 13/1/1
f 22/1/1 19/1/1 21/1/1
f 23/1/1 18/1/1 20/1/1
f 24/1/1 16/1/1 18/1/1
f 24/1/1 18/1/1 23/1/1
f 28/1/1 26/1/1 25/1/1
f 29/1/1 26/1/1 28/1/1
f 31/1/1 28/1/1 27/1/1
f 31/1/1 30/1/1 29/1/1
f 31/1/1 29/1/1 28/1/1
f 32/1/1 30/1/1 31/1/1
f 37/2/1 34/2/1 33/2/1
f 38/2/1 34/2/1 37/2/1
f 39/2/1 34/2/1 38/2/1
f 40/2/1 36/2/1 35/2/1
f 41/2/1 36/2/1 40/2/1
f 42/2/1 36/2/1 41/2/1
f 45/2/2 46/2/2 47/2/2
f 47/2/2 46/2/2 48/2/2
f 43/2/2 44/2/2 49/2/2
f 49/2/2 44/2/2 50/2/2
f 50/2/2 44/2/2 51/2/2
f 52/1/2 53/1/2 54/1/2
f 54/1/2 53/1/2 55/1/2
f 56/2/2 57/2/2 60/2/2
f 60/2/2 57/2/2 61/2/2
f 58/2/2 59/2/2 62/2/2
f 62/2/2 59/2/2 63/2/2
f 64/2/2 65/2/2 68/2/2
f 68/2/2 65/2/2 69/2/2
f 69/2/2 65/2/2 70/2/2
f 66/2/2 67/2/2 71/2/2
f 71/2/2 67/2/2 72/2/2
f 72/2/2 67/2/2 73/2/2
f 74/2/2 75/2/2 78/2/2
f 78/2/2 75/2/2 79/2/2
f 76/2/2 77/2/2 82/2/2
f 82/2/2 77/2/2 83/2/2
f 78/1/2 79/1/2 84/1/2
f 79/4/2 80/4/2 84/4/2
f 80/2/2 81/2/2 85/2/2
f 84/4/2 80/4/2 85/4/2
f 81/4/2 82/4/2 86/4/2
f 85/2/2 81/2/2 86/2/2
f 82/1/2 83/1/2 87/1/2
f 86/4/2 82/4/2 87/4/2
f 78/1/2 84/1/2 88/1/2
f 84/1/2 85/1/2 88/1/2
f 85/2/2 86/2/2 89/2/2
f 88/1/2 85/1/2 89/1/2
f 86/1/2 87/1/2 90/1/2
f 89/2/2 86/2/2 90/2/2
f 87/1/2 83/1/2 91/1/2
f 90/1/2 87/1/2 91/1/2
f 92/2/2 93/2/2 96/2/2
f 93/3/2 94/3/2 96/3/2
f 94/2/2 95/2/2 97/2/2
f 96/3/2 94/3/2 97/3/2
f 92/2/2 96/2/2 98/2/2
f 98/2/2 96/2/2 99/2/2
f 97/2/2 95/2/2 100/2/2
f 100/2/2 95/2/2 101/2/2
f 102/4/2 103/4/2 104/4/2
f 104/4/2 103/4/2 105/4/2
f 109/2/3 107/2/3 106/2/3
f 109/1/3 108/1/3 107/1/3
f 110/1/3 108/1/3 109/1/3
f 111/2/3 109/2/3 106/2/3
f 111/2/3 110/2/3 109/2/3
f 112/2/3 110/2/3 111/2/3
f 113/2/3 110/2/3 112/2/3
f 114/1/3 108/1/3 110/1/3
f 114/2/3 110/2/3 113/2/3
f 115/2/3 113/2/3 112/2/3
f 116/1/3 114/1/3 113/1/3
f 116/2/3 113/2/3 115/2/3
f 117/1/3 116/1/3 115/1/3
f 118/1/3 114/1/3 116/1/3
f 118/1/3 116/1/3 117/1/3
f 119/2/3 118/2/3 117/2/3
f 119/1/3 114/1/3 118/1/3
f 120/1/3 108/1/3 114/1/3
f 120/1/3 114/1/3 119/1/3
f 124/2/3 119/2/3 117/2/3
f 124/2/3 120/2/3 119/2/3
f 125/1/3 108/1/3 120/1/3
f 125/2/3 120/2/3 124/2/3
f 126/1/3 108/1/3 125/1/3
f 127/1/3 122/1/3 121/1/3
f 128/1/3 122/1/3 127/1/3
f 129/2/3 128/2/3 127/2/3
f 130/2/3 128/2/3 129/2/3
f 131/2/3 126/2/3 125/2/3
f 131/2/3 124/2/3 123/2/3
f 131/2/3 125/2/3 124/2/3
f 132/2/3 126/2/3 131/2/3
f 135/1/3 134/1/3 133/1/3
f 136/1/3 134/1/3 135/1/3
f 137/2/3 136/2/3 135/2/3
f 138/2/3 136/2/3 137/2/3
f 140/2/3 137/2/3 135/2/3
f 141/2/3 137/2/3 140/2/3
f 142/1/3 138/1/3 137/1/3
f 142/2/3 137/2/3 141/2/3
f 142/1/3 139/1/3 138/1/3
f 143/1/3 139/1/3 142/1/3
f 146/1/3 145/1/3 144/1/3
f 148/1/3 146/1/3 144/1/3
f 148/1/3 147/1/3 146/1/3
f 149/1/3 147/1/3 148/1/3
f 152/2/3 151/2/3 150/2/3
f 153/2/3 151/2/3 152/2/3
f 156/4/3 155/4/3 154/4/3
f 157/4/3 155/4/3 156/4/3
f 161/2/3 159/2/3 158/2/3
f 161/1/3 160/1/3 159/1/3
f 162/1/3 160/1/3 161/1/3
f 163/2/3 161/2/3 158/2/3
f 163/2/3 162/2/3 161/2/3
f 164/2/3 162/2/3 163/2/3
f 167/2/3 166/2/3 165/2/3
f 169/2/3 167/2/3 165/2/3
f 169/2/3 168/2/3 167/2/3
f 170/2/3 168/2/3 169/2/3
f 171/2/4 172/2/4 174/2/4
f 172/1/4 173/1/4 174/1/4
f 174/1/4 173/1/4 175/1/4
f 171/2/4 174/2/4 176/2/4
f 174/2/4 175/2/4 176/2/4
f 176/2/4 175/2/4 177/2/4
f 178/2/4 179/2/4 180/2/4
f 178/2/4 180/2/4 182/2/4
f 180/2/4 181/2/4 182/2/4
f 182/2/4 181/2/4 183/2/4
f 184/1/4 185/1/4 186/1/4
f 184/1/4 186/1/4 188/1/4
f 186/1/4 187/1/4 188/1/4
f 188/1/4 187/1/4 189/1/4
f 190/4/4 191/4/4 192/4/4
f 192/4/4 191/4/4 193/4/4
f 194/2/4 195/2/4 196/2/4
f 196/2/4 195/2/4 197/2/4
f 198/1/4 199/1/4 200/1/4
f 200/1/4 199/1/4 201/1/4
f 200/2/4 201/2/4 202/2/4
f 202/2/4 201/2/4 203/2/4
f 200/2/4 202/2/4 205/2/4
f 205/2/4 202/2/4 206/2/4
f 202/1/4 203/1/4 207/1/4
f 206/2/4 202/2/4 207/2/4
f 203/1/4 204/1/4 207/1/4
f 207/1/4 204/1/4 208/1/4
f 209/2/4 210/2/4 212/2/4
f 210/1/4 211/1/4 212/1/4
f 212/1/4 211/1/4 213/1/4
f 209/2/4 212/2/4 214/2/4
f 212/2/4 213/2/4 214/2/4
f 214/2/4 213/2/4 215/2/4
f 215/2/4 213/2/4 216/2/4
f 213/1/4 211/1/4 217/1/4
f 216/2/4 213/2/4 217/2/4
f 215/2/4 216/2/4 218/2/4
f 216/1/4 217/1/4 219/1/4
f 218/2/4 216/2/4 219/2/4
f 218/1/4 219/1/4 220/1/4
f 219/1/4 217/1/4 221/1/4
f 220/1/4 219/1/4 221/1/4
f 220/2/4 221/2/4 222/2/4
f 221/1/4 217/1/4 222/1/4
f 217/1/4 211/1/4 223/1/4
f 222/1/4 217/1/4 223/1/4
f 220/2/4 222/2/4 227/2/4
f 222/2/4 223/2/4 227/2/4
f 223/1/4 211/1/4 228/1/4
f 227/2/4 223/2/4 228/2/4
f 228/1/4 211/1/4 229/1/4
f 224/1/4 225/1/4 230/1/4
f 230/1/4 225/1/4 231/1/4
f 230/2/4 231/2/4 232/2/4
f 232/2/4 231/2/4 233/2/4
f 228/2/4 229/2/4 234/2/4
f 226/2/4 227/2/4 234/2/4
f 227/2/4 228/2/4 234/2/4
f 234/2/4 229/2/4 235/2/4
f 238/2/5 237/2/5 236/2/5
f 239/2/5 237/2/5 238/2/5
f 242/2/5 241/2/5 240/2/5
f 243/2/5 241/2/5 242/2/5
f 246/2/5 245/2/5 244/2/5
f 247/2/5 245/2/5 246/2/5
f 250/2/5 249/2/5 248/2/5
f 251/2/5 249/2/5 250/2/5
f 256/1/5 254/1/5 253/1/5
f 256/2/5 255/2/5 254/2/5
f 257/2/5 255/2/5 256/2/5
f 260/2/5 253/2/5 252/2/5
f 261/1/5 256/1/5 253/1/5
f 261/1/5 257/1/5 256/1/5
f 261/2/5 253/2/5 260/2/5
f 262/1/5 257/1/5 261/1/5
f 264/1/5 259/1/5 258/1/5
f 264/1/5 263/1/5 262/1/5
f 264/1/5 261/1/5 260/1/5
f 264/1/5 262/1/5 261/1/5
f 264/1/5 260/1/5 259/1/5
f 265/1/5 263/1/5 264/1/5
f 266/1/5 263/1/5 265/1/5
f 267/1/5 263/1/5 266/1/5
f 268/1/5 263/1/5 267/1/5
f 269/1/5 267/1/5 266/1/5
f 270/1/5 267/1/5 269/1/5
f 271/1/5 267/1/5 270/1/5
f 272/1/5 267/1/5 271/1/5
f 273/2/5 270/2/5 269/2/5
f 274/1/5 271/1/5 270/1/5
f 274/2/5 270/2/5 273/2/5
f 275/2/5 272/2/5 271/2/5
f 275/1/5 271/1/5 274/1/5
f 276/2/5 272/2/5 275/2/5
f 279/1/5 278/1/5 277/1/5
f 280/1/5 278/1/5 279/1/5
f 284/2/5 282/2/5 281/2/5
f 285/2/5 282/2/5 284/2/5
f 287/2/5 286/2/5 285/2/5
f 288/2/5 286/2/5 287/2/5
f 289/2/5 287/2/5 285/2/5
f 289/3/5 288/3/5 287/3/5
f 290/3/5 288/3/5 289/3/5
f 291/1/5 284/1/5 283/1/5
f 291/1/5 285/1/5 284/1/5
f 292/1/5 285/1/5 291/1/5
f 293/2/5 290/2/5 289/2/5
f 293/1/5 285/1/5 292/1/5
f 293/2/5 289/2/5 285/2/5
f 294/2/5 290/2/5 293/2/5
f 295/2/5 293/2/5 292/2/5
f 296/2/5 293/2/5 295/2/5
f 299/4/5 298/4/5 297/4/5
f 300/4/5 298/4/5 299/4/5
f 304/1/5 302/1/5 301/1/5
f 305/2/5 303/2/5 302/2/5
f 305/1/5 302/1/5 304/1/5
f 306/2/5 303/2/5 305/2/5
f 310/1/5 308/1/5 307/1/5
f 311/2/5 309/2/5 308/2/5
f 311/1/5 308/1/5 310/1/5
f 312/2/5 309/2/5 311/2/5
f 313/1/6 314/1/6 315/1/6
f 315/1/6 314/1/6 316/1/6
f 317/1/6 318/1/6 320/1/6
f 318/2/6 319/2/6 321/2/6
f 320/1/6 318/1/6 321/1/6
f 321/2/6 319/2/6 322/2/6
f 317/1/6 320/1/6 324/1/6
f 323/1/6 324/1/6 325/1/6
f 324/1/6 320/1/6 326/1/6
f 325/1/6 324/1/6 326/1/6
f 326/1/6 320/1/6 327/1/6
f 326/1/6 327/1/6 330/1/6
f 327/1/6 328/1/6 330/1/6
f 328/2/6 329/2/6 331/2/6
f 330/1/6 328/1/6 331/1/6
f 331/2/6 329/2/6 332/2/6
f 333/2/6 334/2/6 335/2/6
f 335/2/6 334/2/6 336/2/6
f 335/2/6 336/2/6 338/2/6
f 336/4/6 337/4/6 339/4/6
f 338/2/6 336/2/6 339/2/6
f 339/4/6 337/4/6 340/4/6
f 338/2/6 339/2/6 341/2/6
f 341/2/6 339/2/6 342/2/6
f 344/2/6 345/2/6 346/2/6
f 344/2/6 346/2/6 348/2/6
f 346/1/6 347/1/6 348/1/6
f 348/1/6 347/1/6 349/1/6
f 348/2/6 349/2/6 350/2/6
f 349/1/6 347/1/6 350/1/6
f 350/1/6 347/1/6 351/1/6
f 348/2/6 350/2/6 352/2/6
f 350/2/6 351/2/6 352/2/6
f 352/2/6 351/2/6 353/2/6
f 344/2/6 348/2/6 354/2/6
f 348/2/6 352/2/6 354/2/6
f 352/1/6 353/1/6 355/1/6
f 354/2/6 352/2/6 355/2/6
f 344/2/6 354/2/6 356/2/6
f 354/1/6 355/1/6 356/1/6
f 355/1/6 353/1/6 357/1/6
f 356/1/6 355/1/6 357/1/6
f 343/1/6 344/1/6 358/1/6
f 344/2/6 356/2/6 359/2/6
f 358/1/6 344/1/6 359/1/6
f 359/2/6 356/2/6 360/2/6
