# MagicaVoxel @ Ephtracy

# group
g Flower r

# material
mtllib Flower r.mtl
usemtl palette

# normals
vn -1 0 0
vn 1 0 0
vn 0 0 1
vn 0 0 -1
vn 0 -1 0
vn 0 1 0

# texcoords
vt 0.146484 0.5
vt 0.556641 0.5
vt 0.560547 0.5

# verts
v -2 2 -0
v -2 2 -1
v -2 3 -0
v -2 3 -1
v -1 0 -0
v -1 0 -1
v -1 2 -0
v -1 2 -1
v -1 4 -0
v -1 4 -1
v -1 5 1
v -1 5 -0
v -1 6 1
v -1 6 -0
v -1 7 -0
v -1 7 -1
v 0 3 -0
v 0 3 -1
v 0 4 1
v 0 4 -0
v 0 4 -1
v 0 5 1
v 0 5 -0
v 0 6 1
v 0 6 -0
v 0 7 1
v 0 7 -0
v 1 5 1
v 1 5 -0
v 1 6 1
v 1 6 -0
v 0 0 -0
v 0 0 -1
v 0 1 -0
v 0 1 -1
v 0 5 1
v 0 5 -0
v 0 6 1
v 0 6 -0
v 1 1 -0
v 1 1 -1
v 1 2 -0
v 1 2 -1
v 1 4 1
v 1 4 -0
v 1 4 -1
v 1 5 1
v 1 5 -0
v 1 6 1
v 1 6 -0
v 1 7 1
v 1 7 -0
v 2 4 -0
v 2 4 -1
v 2 5 1
v 2 5 -0
v 2 6 1
v 2 6 -0
v 2 7 -0
v 2 7 -1
v -1 5 1
v -1 6 1
v 0 4 1
v 0 5 1
v 0 6 1
v 0 7 1
v 1 4 1
v 1 5 1
v 1 6 1
v 1 7 1
v 2 5 1
v 2 6 1
v -2 2 -0
v -2 3 -0
v -1 0 -0
v -1 2 -0
v -1 3 -0
v -1 4 -0
v -1 5 -0
v -1 6 -0
v -1 7 -0
v 0 0 -0
v 0 1 -0
v 0 2 -0
v 0 3 -0
v 0 4 -0
v 0 5 -0
v 0 6 -0
v 0 7 -0
v 1 1 -0
v 1 2 -0
v 1 4 -0
v 1 5 -0
v 1 6 -0
v 1 7 -0
v 2 4 -0
v 2 5 -0
v 2 6 -0
v 2 7 -0
v -2 2 -1
v -2 3 -1
v -1 0 -1
v -1 2 -1
v -1 3 -1
v -1 4 -1
v -1 7 -1
v 0 0 -1
v 0 1 -1
v 0 2 -1
v 0 3 -1
v 0 4 -1
v 1 1 -1
v 1 2 -1
v 1 4 -1
v 2 4 -1
v 2 7 -1
v -1 0 -0
v 0 0 -0
v -1 0 -1
v 0 0 -1
v 0 1 -0
v 1 1 -0
v 0 1 -1
v 1 1 -1
v -2 2 -0
v -1 2 -0
v -2 2 -1
v -1 2 -1
v 0 4 1
v 1 4 1
v -1 4 -0
v 0 4 -0
v 1 4 -0
v 2 4 -0
v -1 4 -1
v 0 4 -1
v 1 4 -1
v 2 4 -1
v -1 5 1
v 0 5 1
v 1 5 1
v 2 5 1
v -1 5 -0
v 0 5 -0
v 1 5 -0
v 2 5 -0
v 0 6 1
v 1 6 1
v 0 6 -0
v 1 6 -0
v -2 3 -0
v -1 3 -0
v 0 3 -0
v -2 3 -1
v -1 3 -1
v 0 3 -1
v 0 5 1
v 1 5 1
v 0 5 -0
v 1 5 -0
v -1 6 1
v 0 6 1
v 1 6 1
v 2 6 1
v -1 6 -0
v 0 6 -0
v 1 6 -0
v 2 6 -0
v 0 7 1
v 1 7 1
v -1 7 -0
v 0 7 -0
v 1 7 -0
v 2 7 -0
v -1 7 -1
v 2 7 -1

# faces
f 3/2/1 2/2/1 1/2/1
f 4/2/1 2/2/1 3/2/1
f 7/3/1 6/3/1 5/3/1
f 8/3/1 6/3/1 7/3/1
f 12/1/1 10/1/1 9/1/1
f 13/1/1 12/1/1 11/1/1
f 14/1/1 10/1/1 12/1/1
f 14/1/1 12/1/1 13/1/1
f 15/1/1 10/1/1 14/1/1
f 16/1/1 10/1/1 15/1/1
f 20/3/1 18/3/1 17/3/1
f 21/3/1 18/3/1 20/3/1
f 22/1/1 20/1/1 19/1/1
f 23/1/1 20/1/1 22/1/1
f 26/1/1 25/1/1 24/1/1
f 27/1/1 25/1/1 26/1/1
f 30/1/1 29/1/1 28/1/1
f 31/1/1 29/1/1 30/1/1
f 32/3/2 33/3/2 34/3/2
f 34/3/2 33/3/2 35/3/2
f 36/1/2 37/1/2 38/1/2
f 38/1/2 37/1/2 39/1/2
f 40/2/2 41/2/2 42/2/2
f 42/2/2 41/2/2 43/2/2
f 42/3/2 43/3/2 45/3/2
f 45/3/2 43/3/2 46/3/2
f 44/1/2 45/1/2 47/1/2
f 47/1/2 45/1/2 48/1/2
f 49/1/2 50/1/2 51/1/2
f 51/1/2 50/1/2 52/1/2
f 53/1/2 54/1/2 56/1/2
f 55/1/2 56/1/2 57/1/2
f 56/1/2 54/1/2 58/1/2
f 57/1/2 56/1/2 58/1/2
f 58/1/2 54/1/2 59/1/2
f 59/1/2 54/1/2 60/1/2
f 64/1/3 62/1/3 61/1/3
f 65/1/3 62/1/3 64/1/3
f 67/1/3 64/1/3 63/1/3
f 68/1/3 64/1/3 67/1/3
f 69/1/3 66/1/3 65/1/3
f 70/1/3 66/1/3 69/1/3
f 71/1/3 69/1/3 68/1/3
f 72/1/3 69/1/3 71/1/3
f 76/2/3 74/2/3 73/2/3
f 77/2/3 74/2/3 76/2/3
f 82/3/3 76/3/3 75/3/3
f 82/3/3 77/3/3 76/3/3
f 83/3/3 77/3/3 82/3/3
f 84/3/3 77/3/3 83/3/3
f 85/3/3 77/3/3 84/3/3
f 86/1/3 79/1/3 78/1/3
f 87/1/3 79/1/3 86/1/3
f 88/1/3 81/1/3 80/1/3
f 89/1/3 81/1/3 88/1/3
f 90/2/3 84/2/3 83/2/3
f 91/3/3 85/3/3 84/3/3
f 91/2/3 84/2/3 90/2/3
f 91/3/3 86/3/3 85/3/3
f 92/3/3 86/3/3 91/3/3
f 93/1/3 88/1/3 87/1/3
f 94/1/3 88/1/3 93/1/3
f 96/1/3 93/1/3 92/1/3
f 97/1/3 93/1/3 96/1/3
f 98/1/3 95/1/3 94/1/3
f 99/1/3 95/1/3 98/1/3
f 100/2/4 101/2/4 103/2/4
f 103/2/4 101/2/4 104/2/4
f 102/3/4 103/3/4 107/3/4
f 103/3/4 104/3/4 107/3/4
f 107/3/4 104/3/4 108/3/4
f 108/3/4 104/3/4 109/3/4
f 109/3/4 104/3/4 110/3/4
f 105/1/4 106/1/4 111/1/4
f 108/2/4 109/2/4 112/2/4
f 109/3/4 110/3/4 113/3/4
f 112/2/4 109/2/4 113/2/4
f 110/3/4 111/3/4 113/3/4
f 111/1/4 106/1/4 114/1/4
f 113/3/4 111/3/4 114/3/4
f 114/1/4 106/1/4 115/1/4
f 115/1/4 106/1/4 116/1/4
f 119/3/5 118/3/5 117/3/5
f 120/3/5 118/3/5 119/3/5
f 123/2/5 122/2/5 121/2/5
f 124/2/5 122/2/5 123/2/5
f 127/2/5 126/2/5 125/2/5
f 128/2/5 126/2/5 127/2/5
f 132/1/5 130/1/5 129/1/5
f 133/1/5 130/1/5 132/1/5
f 135/1/5 132/1/5 131/1/5
f 136/1/5 132/1/5 135/1/5
f 137/1/5 134/1/5 133/1/5
f 138/1/5 134/1/5 137/1/5
f 143/1/5 140/1/5 139/1/5
f 144/1/5 140/1/5 143/1/5
f 145/1/5 142/1/5 141/1/5
f 146/1/5 142/1/5 145/1/5
f 149/1/5 148/1/5 147/1/5
f 150/1/5 148/1/5 149/1/5
f 151/2/6 152/2/6 154/2/6
f 152/3/6 153/3/6 155/3/6
f 154/2/6 152/2/6 155/2/6
f 155/3/6 153/3/6 156/3/6
f 157/1/6 158/1/6 159/1/6
f 159/1/6 158/1/6 160/1/6
f 161/1/6 162/1/6 165/1/6
f 165/1/6 162/1/6 166/1/6
f 163/1/6 164/1/6 167/1/6
f 167/1/6 164/1/6 168/1/6
f 169/1/6 170/1/6 172/1/6
f 172/1/6 170/1/6 173/1/6
f 171/1/6 172/1/6 175/1/6
f 173/1/6 174/1/6 175/1/6
f 172/1/6 173/1/6 175/1/6
f 175/1/6 174/1/6 176/1/6
