# MagicaVoxel @ Ephtracy

# material
mtllib phone.mtl
usemtl palette

# normals
vn -1 0 0
vn 1 0 0
vn 0 0 1
vn 0 0 -1
vn 0 -1 0
vn 0 1 0

# texcoords
vt 0.970703 0.5
vt 0.974609 0.5
vt 0.982422 0.5
vt 0.990234 0.5

# verts
v -11 3 0.5
v -11 3 -0.5
v -11 5 1.5
v -11 5 0.5
v -11 5 -0.5
v -11 5 -1.5
v -11 20 0.5
v -11 20 -0.5
v -11 23 0.5
v -11 23 -0.5
v -11 24 0.5
v -11 24 -0.5
v -11 27 0.5
v -11 27 -0.5
v -11 28 0.5
v -11 28 -0.5
v -11 33 0.5
v -11 33 -0.5
v -11 35 1.5
v -11 35 0.5
v -11 35 -0.5
v -11 35 -1.5
v -11 37 0.5
v -11 37 -0.5
v -10 1 0.5
v -10 1 -0.5
v -10 2 1.5
v -10 2 0.5
v -10 2 -0.5
v -10 2 -1.5
v -10 3 2.5
v -10 3 1.5
v -10 3 0.5
v -10 3 -0.5
v -10 3 -1.5
v -10 3 -2.5
v -10 5 1.5
v -10 5 0.5
v -10 5 -0.5
v -10 5 -1.5
v -10 35 1.5
v -10 35 0.5
v -10 35 -0.5
v -10 35 -1.5
v -10 37 2.5
v -10 37 1.5
v -10 37 0.5
v -10 37 -0.5
v -10 37 -1.5
v -10 37 -2.5
v -10 38 1.5
v -10 38 0.5
v -10 38 -0.5
v -10 38 -1.5
v -10 39 0.5
v -10 39 -0.5
v -9 1 1.5
v -9 1 0.5
v -9 1 -0.5
v -9 1 -1.5
v -9 2 2.5
v -9 2 1.5
v -9 2 0.5
v -9 2 -0.5
v -9 2 -1.5
v -9 2 -2.5
v -9 3 2.5
v -9 3 1.5
v -9 3 -1.5
v -9 3 -2.5
v -9 37 2.5
v -9 37 1.5
v -9 37 -1.5
v -9 37 -2.5
v -9 38 2.5
v -9 38 1.5
v -9 38 0.5
v -9 38 -0.5
v -9 38 -1.5
v -9 38 -2.5
v -9 39 1.5
v -9 39 0.5
v -9 39 -0.5
v -9 39 -1.5
v -8 0 0.5
v -8 0 -0.5
v -8 1 2.5
v -8 1 1.5
v -8 1 0.5
v -8 1 -0.5
v -8 1 -1.5
v -8 1 -2.5
v -8 2 2.5
v -8 2 1.5
v -8 2 -1.5
v -8 2 -2.5
v -8 38 2.5
v -8 38 1.5
v -8 38 -1.5
v -8 38 -2.5
v -8 39 2.5
v -8 39 1.5
v -8 39 0.5
v -8 39 -0.5
v -8 39 -1.5
v -8 39 -2.5
v -8 40 0.5
v -8 40 -0.5
v -6 0 1.5
v -6 0 0.5
v -6 0 -0.5
v -6 0 -1.5
v -6 1 1.5
v -6 1 0.5
v -6 1 -0.5
v -6 1 -1.5
v -6 39 1.5
v -6 39 0.5
v -6 39 -0.5
v -6 39 -1.5
v -6 40 1.5
v -6 40 0.5
v -6 40 -0.5
v -6 40 -1.5
v 9 7 2.5
v 9 7 1.5
v 9 34 2.5
v 9 34 1.5
v -9 7 2.5
v -9 7 1.5
v -9 34 2.5
v -9 34 1.5
v 6 0 1.5
v 6 0 0.5
v 6 0 -0.5
v 6 0 -1.5
v 6 1 1.5
v 6 1 0.5
v 6 1 -0.5
v 6 1 -1.5
v 6 39 1.5
v 6 39 0.5
v 6 39 -0.5
v 6 39 -1.5
v 6 40 1.5
v 6 40 0.5
v 6 40 -0.5
v 6 40 -1.5
v 8 0 0.5
v 8 0 -0.5
v 8 1 2.5
v 8 1 1.5
v 8 1 0.5
v 8 1 -0.5
v 8 1 -1.5
v 8 1 -2.5
v 8 2 2.5
v 8 2 1.5
v 8 2 -1.5
v 8 2 -2.5
v 8 38 2.5
v 8 38 1.5
v 8 38 -1.5
v 8 38 -2.5
v 8 39 2.5
v 8 39 1.5
v 8 39 0.5
v 8 39 -0.5
v 8 39 -1.5
v 8 39 -2.5
v 8 40 0.5
v 8 40 -0.5
v 9 1 1.5
v 9 1 0.5
v 9 1 -0.5
v 9 1 -1.5
v 9 2 2.5
v 9 2 1.5
v 9 2 0.5
v 9 2 -0.5
v 9 2 -1.5
v 9 2 -2.5
v 9 3 2.5
v 9 3 1.5
v 9 3 -1.5
v 9 3 -2.5
v 9 37 2.5
v 9 37 1.5
v 9 37 -1.5
v 9 37 -2.5
v 9 38 2.5
v 9 38 1.5
v 9 38 0.5
v 9 38 -0.5
v 9 38 -1.5
v 9 38 -2.5
v 9 39 1.5
v 9 39 0.5
v 9 39 -0.5
v 9 39 -1.5
v 10 1 0.5
v 10 1 -0.5
v 10 2 1.5
v 10 2 0.5
v 10 2 -0.5
v 10 2 -1.5
v 10 3 2.5
v 10 3 1.5
v 10 3 0.5
v 10 3 -0.5
v 10 3 -1.5
v 10 3 -2.5
v 10 5 1.5
v 10 5 0.5
v 10 5 -0.5
v 10 5 -1.5
v 10 35 1.5
v 10 35 0.5
v 10 35 -0.5
v 10 35 -1.5
v 10 37 2.5
v 10 37 1.5
v 10 37 0.5
v 10 37 -0.5
v 10 37 -1.5
v 10 37 -2.5
v 10 38 1.5
v 10 38 0.5
v 10 38 -0.5
v 10 38 -1.5
v 10 39 0.5
v 10 39 -0.5
v 11 3 0.5
v 11 3 -0.5
v 11 5 1.5
v 11 5 0.5
v 11 5 -0.5
v 11 5 -1.5
v 11 35 1.5
v 11 35 0.5
v 11 35 -0.5
v 11 35 -1.5
v 11 37 0.5
v 11 37 -0.5
v -10 3 2.5
v -10 37 2.5
v -9 2 2.5
v -9 3 2.5
v -9 7 2.5
v -9 34 2.5
v -9 37 2.5
v -9 38 2.5
v -8 1 2.5
v -8 2 2.5
v -8 38 2.5
v -8 39 2.5
v -2 3 2.5
v -2 5 2.5
v -2 36 2.5
v -2 37 2.5
v -1 2 2.5
v -1 3 2.5
v -1 5 2.5
v -1 6 2.5
v 1 2 2.5
v 1 3 2.5
v 1 5 2.5
v 1 6 2.5
v 2 3 2.5
v 2 5 2.5
v 2 36 2.5
v 2 37 2.5
v 8 1 2.5
v 8 2 2.5
v 8 38 2.5
v 8 39 2.5
v 9 2 2.5
v 9 3 2.5
v 9 7 2.5
v 9 34 2.5
v 9 37 2.5
v 9 38 2.5
v 10 3 2.5
v 10 37 2.5
v -11 5 1.5
v -11 35 1.5
v -10 2 1.5
v -10 3 1.5
v -10 5 1.5
v -10 35 1.5
v -10 37 1.5
v -10 38 1.5
v -9 1 1.5
v -9 2 1.5
v -9 3 1.5
v -9 7 1.5
v -9 34 1.5
v -9 37 1.5
v -9 38 1.5
v -9 39 1.5
v -8 1 1.5
v -8 2 1.5
v -8 38 1.5
v -8 39 1.5
v -6 0 1.5
v -6 1 1.5
v -6 39 1.5
v -6 40 1.5
v 6 0 1.5
v 6 1 1.5
v 6 39 1.5
v 6 40 1.5
v 8 1 1.5
v 8 2 1.5
v 8 38 1.5
v 8 39 1.5
v 9 1 1.5
v 9 2 1.5
v 9 3 1.5
v 9 7 1.5
v 9 34 1.5
v 9 37 1.5
v 9 38 1.5
v 9 39 1.5
v 10 2 1.5
v 10 3 1.5
v 10 5 1.5
v 10 35 1.5
v 10 37 1.5
v 10 38 1.5
v 11 5 1.5
v 11 35 1.5
v -11 3 0.5
v -11 5 0.5
v -11 35 0.5
v -11 37 0.5
v -10 1 0.5
v -10 2 0.5
v -10 3 0.5
v -10 5 0.5
v -10 35 0.5
v -10 37 0.5
v -10 38 0.5
v -10 39 0.5
v -9 1 0.5
v -9 2 0.5
v -9 38 0.5
v -9 39 0.5
v -8 0 0.5
v -8 1 0.5
v -8 39 0.5
v -8 40 0.5
v -6 0 0.5
v -6 1 0.5
v -6 39 0.5
v -6 40 0.5
v 6 0 0.5
v 6 1 0.5
v 6 39 0.5
v 6 40 0.5
v 8 0 0.5
v 8 1 0.5
v 8 39 0.5
v 8 40 0.5
v 9 1 0.5
v 9 2 0.5
v 9 38 0.5
v 9 39 0.5
v 10 1 0.5
v 10 2 0.5
v 10 3 0.5
v 10 5 0.5
v 10 35 0.5
v 10 37 0.5
v 10 38 0.5
v 10 39 0.5
v 11 3 0.5
v 11 5 0.5
v 11 35 0.5
v 11 37 0.5
v -11 3 -0.5
v -11 5 -0.5
v -11 35 -0.5
v -11 37 -0.5
v -10 1 -0.5
v -10 2 -0.5
v -10 3 -0.5
v -10 5 -0.5
v -10 35 -0.5
v -10 37 -0.5
v -10 38 -0.5
v -10 39 -0.5
v -9 1 -0.5
v -9 2 -0.5
v -9 38 -0.5
v -9 39 -0.5
v -8 0 -0.5
v -8 1 -0.5
v -8 39 -0.5
v -8 40 -0.5
v -6 0 -0.5
v -6 1 -0.5
v -6 39 -0.5
v -6 40 -0.5
v 6 0 -0.5
v 6 1 -0.5
v 6 39 -0.5
v 6 40 -0.5
v 8 0 -0.5
v 8 1 -0.5
v 8 39 -0.5
v 8 40 -0.5
v 9 1 -0.5
v 9 2 -0.5
v 9 38 -0.5
v 9 39 -0.5
v 10 1 -0.5
v 10 2 -0.5
v 10 3 -0.5
v 10 5 -0.5
v 10 35 -0.5
v 10 37 -0.5
v 10 38 -0.5
v 10 39 -0.5
v 11 3 -0.5
v 11 5 -0.5
v 11 35 -0.5
v 11 37 -0.5
v -11 5 -1.5
v -11 35 -1.5
v -10 2 -1.5
v -10 3 -1.5
v -10 5 -1.5
v -10 35 -1.5
v -10 37 -1.5
v -10 38 -1.5
v -9 1 -1.5
v -9 2 -1.5
v -9 3 -1.5
v -9 37 -1.5
v -9 38 -1.5
v -9 39 -1.5
v -8 1 -1.5
v -8 2 -1.5
v -8 38 -1.5
v -8 39 -1.5
v -6 0 -1.5
v -6 1 -1.5
v -6 39 -1.5
v -6 40 -1.5
v 6 0 -1.5
v 6 1 -1.5
v 6 39 -1.5
v 6 40 -1.5
v 8 1 -1.5
v 8 2 -1.5
v 8 38 -1.5
v 8 39 -1.5
v 9 1 -1.5
v 9 2 -1.5
v 9 3 -1.5
v 9 37 -1.5
v 9 38 -1.5
v 9 39 -1.5
v 10 2 -1.5
v 10 3 -1.5
v 10 5 -1.5
v 10 35 -1.5
v 10 37 -1.5
v 10 38 -1.5
v 11 5 -1.5
v 11 35 -1.5
v -10 3 -2.5
v -10 37 -2.5
v -9 2 -2.5
v -9 3 -2.5
v -9 37 -2.5
v -9 38 -2.5
v -8 1 -2.5
v -8 2 -2.5
v -8 38 -2.5
v -8 39 -2.5
v 8 1 -2.5
v 8 2 -2.5
v 8 38 -2.5
v 8 39 -2.5
v 9 2 -2.5
v 9 3 -2.5
v 9 37 -2.5
v 9 38 -2.5
v 10 3 -2.5
v 10 37 -2.5
v -6 0 1.5
v 6 0 1.5
v -8 0 0.5
v -6 0 0.5
v 6 0 0.5
v 8 0 0.5
v -8 0 -0.5
v -6 0 -0.5
v 6 0 -0.5
v 8 0 -0.5
v -6 0 -1.5
v 6 0 -1.5
v -8 1 2.5
v 8 1 2.5
v -9 1 1.5
v -8 1 1.5
v -6 1 1.5
v 6 1 1.5
v 8 1 1.5
v 9 1 1.5
v -10 1 0.5
v -9 1 0.5
v -8 1 0.5
v -6 1 0.5
v 6 1 0.5
v 8 1 0.5
v 9 1 0.5
v 10 1 0.5
v -10 1 -0.5
v -9 1 -0.5
v -8 1 -0.5
v -6 1 -0.5
v 6 1 -0.5
v 8 1 -0.5
v 9 1 -0.5
v 10 1 -0.5
v -9 1 -1.5
v -8 1 -1.5
v -6 1 -1.5
v 6 1 -1.5
v 8 1 -1.5
v 9 1 -1.5
v -8 1 -2.5
v 8 1 -2.5
v -9 2 2.5
v -8 2 2.5
v 8 2 2.5
v 9 2 2.5
v -10 2 1.5
v -9 2 1.5
v -8 2 1.5
v 8 2 1.5
v 9 2 1.5
v 10 2 1.5
v -10 2 0.5
v -9 2 0.5
v 9 2 0.5
v 10 2 0.5
v -10 2 -0.5
v -9 2 -0.5
v 9 2 -0.5
v 10 2 -0.5
v -10 2 -1.5
v -9 2 -1.5
v -8 2 -1.5
v 8 2 -1.5
v 9 2 -1.5
v 10 2 -1.5
v -9 2 -2.5
v -8 2 -2.5
v 8 2 -2.5
v 9 2 -2.5
v -10 3 2.5
v -9 3 2.5
v 9 3 2.5
v 10 3 2.5
v -10 3 1.5
v -9 3 1.5
v 9 3 1.5
v 10 3 1.5
v -11 3 0.5
v -10 3 0.5
v 10 3 0.5
v 11 3 0.5
v -11 3 -0.5
v -10 3 -0.5
v 10 3 -0.5
v 11 3 -0.5
v -10 3 -1.5
v -9 3 -1.5
v 9 3 -1.5
v 10 3 -1.5
v -10 3 -2.5
v -9 3 -2.5
v 9 3 -2.5
v 10 3 -2.5
v -11 5 1.5
v -10 5 1.5
v 10 5 1.5
v 11 5 1.5
v -11 5 0.5
v -10 5 0.5
v 10 5 0.5
v 11 5 0.5
v -11 5 -0.5
v -10 5 -0.5
v 10 5 -0.5
v 11 5 -0.5
v -11 5 -1.5
v -10 5 -1.5
v 10 5 -1.5
v 11 5 -1.5
v -9 34 2.5
v 9 34 2.5
v -9 34 1.5
v 9 34 1.5
v -9 7 2.5
v 9 7 2.5
v -9 7 1.5
v 9 7 1.5
v -11 35 1.5
v -10 35 1.5
v 10 35 1.5
v 11 35 1.5
v -11 35 0.5
v -10 35 0.5
v 10 35 0.5
v 11 35 0.5
v -11 35 -0.5
v -10 35 -0.5
v 10 35 -0.5
v 11 35 -0.5
v -11 35 -1.5
v -10 35 -1.5
v 10 35 -1.5
v 11 35 -1.5
v -10 37 2.5
v -9 37 2.5
v 9 37 2.5
v 10 37 2.5
v -10 37 1.5
v -9 37 1.5
v 9 37 1.5
v 10 37 1.5
v -11 37 0.5
v -10 37 0.5
v 10 37 0.5
v 11 37 0.5
v -11 37 -0.5
v -10 37 -0.5
v 10 37 -0.5
v 11 37 -0.5
v -10 37 -1.5
v -9 37 -1.5
v 9 37 -1.5
v 10 37 -1.5
v -10 37 -2.5
v -9 37 -2.5
v 9 37 -2.5
v 10 37 -2.5
v -9 38 2.5
v -8 38 2.5
v 8 38 2.5
v 9 38 2.5
v -10 38 1.5
v -9 38 1.5
v -8 38 1.5
v 8 38 1.5
v 9 38 1.5
v 10 38 1.5
v -10 38 0.5
v -9 38 0.5
v 9 38 0.5
v 10 38 0.5
v -10 38 -0.5
v -9 38 -0.5
v 9 38 -0.5
v 10 38 -0.5
v -10 38 -1.5
v -9 38 -1.5
v -8 38 -1.5
v 8 38 -1.5
v 9 38 -1.5
v 10 38 -1.5
v -9 38 -2.5
v -8 38 -2.5
v 8 38 -2.5
v 9 38 -2.5
v -8 39 2.5
v 8 39 2.5
v -9 39 1.5
v -8 39 1.5
v -6 39 1.5
v 6 39 1.5
v 8 39 1.5
v 9 39 1.5
v -10 39 0.5
v -9 39 0.5
v -8 39 0.5
v -6 39 0.5
v 6 39 0.5
v 8 39 0.5
v 9 39 0.5
v 10 39 0.5
v -10 39 -0.5
v -9 39 -0.5
v -8 39 -0.5
v -6 39 -0.5
v 6 39 -0.5
v 8 39 -0.5
v 9 39 -0.5
v 10 39 -0.5
v -9 39 -1.5
v -8 39 -1.5
v -6 39 -1.5
v 6 39 -1.5
v 8 39 -1.5
v 9 39 -1.5
v -8 39 -2.5
v 8 39 -2.5
v -6 40 1.5
v 6 40 1.5
v -8 40 0.5
v -6 40 0.5
v 6 40 0.5
v 8 40 0.5
v -8 40 -0.5
v -6 40 -0.5
v 6 40 -0.5
v 8 40 -0.5
v -6 40 -1.5
v 6 40 -1.5

# faces
f 4/4/1 2/4/1 1/4/1
f 5/4/1 2/4/1 4/4/1
f 7/4/1 4/4/1 3/4/1
f 7/4/1 6/4/1 5/4/1
f 7/4/1 5/4/1 4/4/1
f 8/4/1 6/4/1 7/4/1
f 9/4/1 7/4/1 3/4/1
f 9/2/1 8/2/1 7/2/1
f 10/4/1 6/4/1 8/4/1
f 10/2/1 8/2/1 9/2/1
f 11/4/1 9/4/1 3/4/1
f 11/3/1 10/3/1 9/3/1
f 12/4/1 6/4/1 10/4/1
f 12/3/1 10/3/1 11/3/1
f 13/4/1 11/4/1 3/4/1
f 13/2/1 12/2/1 11/2/1
f 14/4/1 6/4/1 12/4/1
f 14/2/1 12/2/1 13/2/1
f 15/4/1 13/4/1 3/4/1
f 15/4/1 14/4/1 13/4/1
f 16/4/1 6/4/1 14/4/1
f 16/4/1 14/4/1 15/4/1
f 17/4/1 15/4/1 3/4/1
f 17/2/1 16/2/1 15/2/1
f 18/4/1 6/4/1 16/4/1
f 18/2/1 16/2/1 17/2/1
f 19/4/1 17/4/1 3/4/1
f 19/4/1 18/4/1 17/4/1
f 20/4/1 18/4/1 19/4/1
f 21/4/1 6/4/1 18/4/1
f 21/4/1 18/4/1 20/4/1
f 22/4/1 6/4/1 21/4/1
f 23/4/1 21/4/1 20/4/1
f 24/4/1 21/4/1 23/4/1
f 28/4/1 26/4/1 25/4/1
f 29/4/1 26/4/1 28/4/1
f 32/4/1 28/4/1 27/4/1
f 32/4/1 30/4/1 29/4/1
f 32/4/1 29/4/1 28/4/1
f 33/4/1 30/4/1 32/4/1
f 34/4/1 30/4/1 33/4/1
f 35/4/1 30/4/1 34/4/1
f 37/4/1 32/4/1 31/4/1
f 37/4/1 33/4/1 32/4/1
f 38/4/1 33/4/1 37/4/1
f 39/4/1 36/4/1 35/4/1
f 39/4/1 35/4/1 34/4/1
f 40/4/1 36/4/1 39/4/1
f 41/4/1 37/4/1 31/4/1
f 44/4/1 36/4/1 40/4/1
f 45/4/1 42/4/1 41/4/1
f 45/4/1 41/4/1 31/4/1
f 46/4/1 42/4/1 45/4/1
f 47/4/1 42/4/1 46/4/1
f 48/4/1 44/4/1 43/4/1
f 49/4/1 36/4/1 44/4/1
f 49/4/1 44/4/1 48/4/1
f 50/4/1 36/4/1 49/4/1
f 51/4/1 47/4/1 46/4/1
f 51/4/1 48/4/1 47/4/1
f 51/4/1 49/4/1 48/4/1
f 52/4/1 49/4/1 51/4/1
f 53/4/1 49/4/1 52/4/1
f 54/4/1 49/4/1 53/4/1
f 55/4/1 53/4/1 52/4/1
f 56/4/1 53/4/1 55/4/1
f 62/4/1 58/4/1 57/4/1
f 63/4/1 58/4/1 62/4/1
f 64/4/1 60/4/1 59/4/1
f 65/4/1 60/4/1 64/4/1
f 67/4/1 62/4/1 61/4/1
f 68/4/1 62/4/1 67/4/1
f 69/4/1 66/4/1 65/4/1
f 70/4/1 66/4/1 69/4/1
f 75/4/1 72/4/1 71/4/1
f 76/4/1 72/4/1 75/4/1
f 79/4/1 74/4/1 73/4/1
f 80/4/1 74/4/1 79/4/1
f 81/4/1 77/4/1 76/4/1
f 82/4/1 77/4/1 81/4/1
f 83/4/1 79/4/1 78/4/1
f 84/4/1 79/4/1 83/4/1
f 89/4/1 86/4/1 85/4/1
f 90/4/1 86/4/1 89/4/1
f 93/4/1 88/4/1 87/4/1
f 94/4/1 88/4/1 93/4/1
f 95/4/1 92/4/1 91/4/1
f 96/4/1 92/4/1 95/4/1
f 101/4/1 98/4/1 97/4/1
f 102/4/1 98/4/1 101/4/1
f 105/4/1 100/4/1 99/4/1
f 106/4/1 100/4/1 105/4/1
f 107/4/1 104/4/1 103/4/1
f 108/4/1 104/4/1 107/4/1
f 113/4/1 110/4/1 109/4/1
f 114/4/1 110/4/1 113/4/1
f 115/4/1 112/4/1 111/4/1
f 116/4/1 112/4/1 115/4/1
f 121/4/1 118/4/1 117/4/1
f 122/4/1 118/4/1 121/4/1
f 123/4/1 120/4/1 119/4/1
f 124/4/1 120/4/1 123/4/1
f 127/4/1 126/4/1 125/4/1
f 128/4/1 126/4/1 127/4/1
f 129/4/2 130/4/2 131/4/2
f 131/4/2 130/4/2 132/4/2
f 133/4/2 134/4/2 137/4/2
f 137/4/2 134/4/2 138/4/2
f 135/4/2 136/4/2 139/4/2
f 139/4/2 136/4/2 140/4/2
f 141/4/2 142/4/2 145/4/2
f 145/4/2 142/4/2 146/4/2
f 143/4/2 144/4/2 147/4/2
f 147/4/2 144/4/2 148/4/2
f 149/4/2 150/4/2 153/4/2
f 153/4/2 150/4/2 154/4/2
f 151/4/2 152/4/2 157/4/2
f 157/4/2 152/4/2 158/4/2
f 155/4/2 156/4/2 159/4/2
f 159/4/2 156/4/2 160/4/2
f 161/4/2 162/4/2 165/4/2
f 165/4/2 162/4/2 166/4/2
f 163/4/2 164/4/2 169/4/2
f 169/4/2 164/4/2 170/4/2
f 167/4/2 168/4/2 171/4/2
f 171/4/2 168/4/2 172/4/2
f 173/4/2 174/4/2 178/4/2
f 178/4/2 174/4/2 179/4/2
f 175/4/2 176/4/2 180/4/2
f 180/4/2 176/4/2 181/4/2
f 177/4/2 178/4/2 183/4/2
f 183/4/2 178/4/2 184/4/2
f 181/4/2 182/4/2 185/4/2
f 185/4/2 182/4/2 186/4/2
f 187/4/2 188/4/2 191/4/2
f 191/4/2 188/4/2 192/4/2
f 189/4/2 190/4/2 195/4/2
f 195/4/2 190/4/2 196/4/2
f 192/4/2 193/4/2 197/4/2
f 197/4/2 193/4/2 198/4/2
f 194/4/2 195/4/2 199/4/2
f 199/4/2 195/4/2 200/4/2
f 201/4/2 202/4/2 204/4/2
f 204/4/2 202/4/2 205/4/2
f 203/4/2 204/4/2 208/4/2
f 205/4/2 206/4/2 208/4/2
f 204/4/2 205/4/2 208/4/2
f 208/4/2 206/4/2 209/4/2
f 209/4/2 206/4/2 210/4/2
f 210/4/2 206/4/2 211/4/2
f 207/4/2 208/4/2 213/4/2
f 208/4/2 209/4/2 213/4/2
f 213/4/2 209/4/2 214/4/2
f 211/4/2 212/4/2 215/4/2
f 210/4/2 211/4/2 215/4/2
f 215/4/2 212/4/2 216/4/2
f 207/4/2 213/4/2 217/4/2
f 216/4/2 212/4/2 220/4/2
f 217/4/2 218/4/2 221/4/2
f 207/4/2 217/4/2 221/4/2
f 221/4/2 218/4/2 222/4/2
f 222/4/2 218/4/2 223/4/2
f 219/4/2 220/4/2 224/4/2
f 220/4/2 212/4/2 225/4/2
f 224/4/2 220/4/2 225/4/2
f 225/4/2 212/4/2 226/4/2
f 222/4/2 223/4/2 227/4/2
f 223/4/2 224/4/2 227/4/2
f 224/4/2 225/4/2 227/4/2
f 227/4/2 225/4/2 228/4/2
f 228/4/2 225/4/2 229/4/2
f 229/4/2 225/4/2 230/4/2
f 228/4/2 229/4/2 231/4/2
f 231/4/2 229/4/2 232/4/2
f 233/4/2 234/4/2 236/4/2
f 236/4/2 234/4/2 237/4/2
f 235/4/2 236/4/2 239/4/2
f 237/4/2 238/4/2 239/4/2
f 236/4/2 237/4/2 239/4/2
f 239/4/2 238/4/2 240/4/2
f 240/4/2 238/4/2 241/4/2
f 241/4/2 238/4/2 242/4/2
f 240/4/2 241/4/2 243/4/2
f 243/4/2 241/4/2 244/4/2
f 248/4/3 246/4/3 245/4/3
f 249/4/3 246/4/3 248/4/3
f 250/4/3 246/4/3 249/4/3
f 251/4/3 246/4/3 250/4/3
f 254/4/3 248/4/3 247/4/3
f 254/4/3 249/4/3 248/4/3
f 255/4/3 251/4/3 250/4/3
f 255/4/3 252/4/3 251/4/3
f 257/4/3 254/4/3 253/4/3
f 257/4/3 249/4/3 254/4/3
f 258/4/3 249/4/3 257/4/3
f 259/4/3 256/4/3 255/4/3
f 259/4/3 255/4/3 250/4/3
f 260/4/3 256/4/3 259/4/3
f 261/4/3 257/4/3 253/4/3
f 262/3/3 258/3/3 257/3/3
f 262/4/3 257/4/3 261/4/3
f 263/4/3 249/4/3 258/4/3
f 263/3/3 258/3/3 262/3/3
f 264/4/3 249/4/3 263/4/3
f 265/3/3 262/3/3 261/3/3
f 265/4/3 261/4/3 253/4/3
f 265/3/3 264/3/3 263/3/3
f 265/3/3 263/3/3 262/3/3
f 266/3/3 264/3/3 265/3/3
f 267/3/3 264/3/3 266/3/3
f 268/4/3 249/4/3 264/4/3
f 268/3/3 264/3/3 267/3/3
f 269/3/3 267/3/3 266/3/3
f 269/4/3 266/4/3 265/4/3
f 270/4/3 268/4/3 267/4/3
f 270/3/3 267/3/3 269/3/3
f 271/3/3 260/3/3 259/3/3
f 271/4/3 259/4/3 250/4/3
f 272/4/3 256/4/3 260/4/3
f 272/3/3 260/3/3 271/3/3
f 273/4/3 270/4/3 269/4/3
f 273/4/3 265/4/3 253/4/3
f 273/4/3 269/4/3 265/4/3
f 274/4/3 270/4/3 273/4/3
f 275/4/3 256/4/3 272/4/3
f 275/4/3 272/4/3 271/4/3
f 276/4/3 256/4/3 275/4/3
f 277/4/3 270/4/3 274/4/3
f 278/4/3 270/4/3 277/4/3
f 279/4/3 249/4/3 268/4/3
f 279/4/3 270/4/3 278/4/3
f 279/4/3 268/4/3 270/4/3
f 280/4/3 271/4/3 250/4/3
f 280/4/3 275/4/3 271/4/3
f 281/4/3 275/4/3 280/4/3
f 282/4/3 275/4/3 281/4/3
f 283/4/3 279/4/3 278/4/3
f 283/4/3 281/4/3 280/4/3
f 283/4/3 280/4/3 279/4/3
f 284/4/3 281/4/3 283/4/3
f 289/4/3 286/4/3 285/4/3
f 290/4/3 286/4/3 289/4/3
f 294/4/3 288/4/3 287/4/3
f 295/4/3 288/4/3 294/4/3
f 298/4/3 292/4/3 291/4/3
f 299/4/3 292/4/3 298/4/3
f 301/4/3 294/4/3 293/4/3
f 302/4/3 294/4/3 301/4/3
f 303/4/3 300/4/3 299/4/3
f 304/4/3 300/4/3 303/4/3
f 309/4/3 306/4/3 305/4/3
f 310/4/3 306/4/3 309/4/3
f 311/4/3 308/4/3 307/4/3
f 312/4/3 308/4/3 311/4/3
f 317/4/3 314/4/3 313/4/3
f 318/4/3 314/4/3 317/4/3
f 320/1/3 297/1/3 296/1/3
f 321/1/3 297/1/3 320/1/3
f 323/4/3 316/4/3 315/4/3
f 324/4/3 316/4/3 323/4/3
f 325/4/3 319/4/3 318/4/3
f 326/4/3 319/4/3 325/4/3
f 329/4/3 323/4/3 322/4/3
f 330/4/3 323/4/3 329/4/3
f 331/4/3 328/4/3 327/4/3
f 332/4/3 328/4/3 331/4/3
f 339/4/3 334/4/3 333/4/3
f 340/4/3 334/4/3 339/4/3
f 341/4/3 336/4/3 335/4/3
f 342/4/3 336/4/3 341/4/3
f 345/4/3 338/4/3 337/4/3
f 346/4/3 338/4/3 345/4/3
f 347/4/3 344/4/3 343/4/3
f 348/4/3 344/4/3 347/4/3
f 353/4/3 350/4/3 349/4/3
f 354/4/3 350/4/3 353/4/3
f 355/4/3 352/4/3 351/4/3
f 356/4/3 352/4/3 355/4/3
f 361/4/3 358/4/3 357/4/3
f 362/4/3 358/4/3 361/4/3
f 363/4/3 360/4/3 359/4/3
f 364/4/3 360/4/3 363/4/3
f 369/4/3 366/4/3 365/4/3
f 370/4/3 366/4/3 369/4/3
f 375/4/3 368/4/3 367/4/3
f 376/4/3 368/4/3 375/4/3
f 377/4/3 372/4/3 371/4/3
f 378/4/3 372/4/3 377/4/3
f 379/4/3 374/4/3 373/4/3
f 380/4/3 374/4/3 379/4/3
f 381/4/4 382/4/4 387/4/4
f 387/4/4 382/4/4 388/4/4
f 383/4/4 384/4/4 389/4/4
f 389/4/4 384/4/4 390/4/4
f 385/4/4 386/4/4 393/4/4
f 393/4/4 386/4/4 394/4/4
f 391/4/4 392/4/4 395/4/4
f 395/4/4 392/4/4 396/4/4
f 397/4/4 398/4/4 401/4/4
f 401/4/4 398/4/4 402/4/4
f 399/4/4 400/4/4 403/4/4
f 403/4/4 400/4/4 404/4/4
f 405/4/4 406/4/4 409/4/4
f 409/4/4 406/4/4 410/4/4
f 407/4/4 408/4/4 411/4/4
f 411/4/4 408/4/4 412/4/4
f 413/4/4 414/4/4 417/4/4
f 417/4/4 414/4/4 418/4/4
f 415/4/4 416/4/4 423/4/4
f 423/4/4 416/4/4 424/4/4
f 419/4/4 420/4/4 425/4/4
f 425/4/4 420/4/4 426/4/4
f 421/4/4 422/4/4 427/4/4
f 427/4/4 422/4/4 428/4/4
f 429/4/4 430/4/4 433/4/4
f 433/4/4 430/4/4 434/4/4
f 431/4/4 432/4/4 438/4/4
f 438/4/4 432/4/4 439/4/4
f 435/4/4 436/4/4 440/4/4
f 440/4/4 436/4/4 441/4/4
f 437/4/4 438/4/4 443/4/4
f 443/4/4 438/4/4 444/4/4
f 441/4/4 442/4/4 445/4/4
f 445/4/4 442/4/4 446/4/4
f 447/4/4 448/4/4 451/4/4
f 451/4/4 448/4/4 452/4/4
f 449/4/4 450/4/4 453/4/4
f 453/4/4 450/4/4 454/4/4
f 455/4/4 456/4/4 459/4/4
f 459/4/4 456/4/4 460/4/4
f 457/4/4 458/4/4 463/4/4
f 463/4/4 458/4/4 464/4/4
f 460/4/4 461/4/4 465/4/4
f 465/4/4 461/4/4 466/4/4
f 462/4/4 463/4/4 469/4/4
f 469/4/4 463/4/4 470/4/4
f 467/4/4 468/4/4 471/4/4
f 471/4/4 468/4/4 472/4/4
f 473/4/4 474/4/4 476/4/4
f 476/4/4 474/4/4 477/4/4
f 475/4/4 476/4/4 480/4/4
f 477/4/4 478/4/4 480/4/4
f 476/4/4 477/4/4 480/4/4
f 480/4/4 478/4/4 481/4/4
f 479/4/4 480/4/4 483/4/4
f 481/4/4 482/4/4 483/4/4
f 480/4/4 481/4/4 483/4/4
f 483/4/4 482/4/4 484/4/4
f 484/4/4 482/4/4 485/4/4
f 485/4/4 482/4/4 486/4/4
f 484/4/4 485/4/4 487/4/4
f 487/4/4 485/4/4 488/4/4
f 488/4/4 485/4/4 489/4/4
f 489/4/4 485/4/4 490/4/4
f 488/4/4 489/4/4 491/4/4
f 491/4/4 489/4/4 492/4/4
f 496/4/5 494/4/5 493/4/5
f 497/4/5 494/4/5 496/4/5
f 499/4/5 496/4/5 495/4/5
f 499/4/5 498/4/5 497/4/5
f 499/4/5 497/4/5 496/4/5
f 500/4/5 498/4/5 499/4/5
f 501/4/5 498/4/5 500/4/5
f 502/4/5 498/4/5 501/4/5
f 503/4/5 501/4/5 500/4/5
f 504/4/5 501/4/5 503/4/5
f 508/4/5 506/4/5 505/4/5
f 509/4/5 506/4/5 508/4/5
f 510/4/5 506/4/5 509/4/5
f 511/4/5 506/4/5 510/4/5
f 514/4/5 508/4/5 507/4/5
f 514/4/5 509/4/5 508/4/5
f 515/4/5 509/4/5 514/4/5
f 516/4/5 509/4/5 515/4/5
f 517/4/5 511/4/5 510/4/5
f 517/4/5 512/4/5 511/4/5
f 518/4/5 512/4/5 517/4/5
f 519/4/5 512/4/5 518/4/5
f 521/4/5 515/4/5 514/4/5
f 521/4/5 514/4/5 513/4/5
f 522/4/5 515/4/5 521/4/5
f 523/4/5 515/4/5 522/4/5
f 526/4/5 520/4/5 519/4/5
f 526/4/5 519/4/5 518/4/5
f 527/4/5 520/4/5 526/4/5
f 528/4/5 520/4/5 527/4/5
f 529/4/5 524/4/5 523/4/5
f 529/4/5 523/4/5 522/4/5
f 530/4/5 524/4/5 529/4/5
f 531/4/5 524/4/5 530/4/5
f 532/4/5 527/4/5 526/4/5
f 532/4/5 526/4/5 525/4/5
f 533/4/5 527/4/5 532/4/5
f 534/4/5 527/4/5 533/4/5
f 535/4/5 531/4/5 530/4/5
f 535/4/5 533/4/5 532/4/5
f 535/4/5 532/4/5 531/4/5
f 536/4/5 533/4/5 535/4/5
f 542/4/5 538/4/5 537/4/5
f 543/4/5 538/4/5 542/4/5
f 544/4/5 540/4/5 539/4/5
f 545/4/5 540/4/5 544/4/5
f 547/4/5 542/4/5 541/4/5
f 548/4/5 542/4/5 547/4/5
f 549/4/5 546/4/5 545/4/5
f 550/4/5 546/4/5 549/4/5
f 555/4/5 552/4/5 551/4/5
f 556/4/5 552/4/5 555/4/5
f 559/4/5 554/4/5 553/4/5
f 560/4/5 554/4/5 559/4/5
f 561/4/5 557/4/5 556/4/5
f 562/4/5 557/4/5 561/4/5
f 563/4/5 559/4/5 558/4/5
f 564/4/5 559/4/5 563/4/5
f 569/4/5 566/4/5 565/4/5
f 570/4/5 566/4/5 569/4/5
f 571/4/5 568/4/5 567/4/5
f 572/4/5 568/4/5 571/4/5
f 577/4/5 574/4/5 573/4/5
f 578/4/5 574/4/5 577/4/5
f 579/4/5 576/4/5 575/4/5
f 580/4/5 576/4/5 579/4/5
f 585/4/5 582/4/5 581/4/5
f 586/4/5 582/4/5 585/4/5
f 587/4/5 584/4/5 583/4/5
f 588/4/5 584/4/5 587/4/5
f 593/4/5 590/4/5 589/4/5
f 594/4/5 590/4/5 593/4/5
f 595/4/5 592/4/5 591/4/5
f 596/4/5 592/4/5 595/4/5
f 601/4/5 598/4/5 597/4/5
f 602/4/5 598/4/5 601/4/5
f 603/4/5 600/4/5 599/4/5
f 604/4/5 600/4/5 603/4/5
f 607/4/5 606/4/5 605/4/5
f 608/4/5 606/4/5 607/4/5
f 609/4/6 610/4/6 611/4/6
f 611/4/6 610/4/6 612/4/6
f 613/4/6 614/4/6 617/4/6
f 617/4/6 614/4/6 618/4/6
f 615/4/6 616/4/6 619/4/6
f 619/4/6 616/4/6 620/4/6
f 621/4/6 622/4/6 625/4/6
f 625/4/6 622/4/6 626/4/6
f 623/4/6 624/4/6 627/4/6
f 627/4/6 624/4/6 628/4/6
f 629/4/6 630/4/6 633/4/6
f 633/4/6 630/4/6 634/4/6
f 631/4/6 632/4/6 635/4/6
f 635/4/6 632/4/6 636/4/6
f 637/4/6 638/4/6 641/4/6
f 641/4/6 638/4/6 642/4/6
f 639/4/6 640/4/6 643/4/6
f 643/4/6 640/4/6 644/4/6
f 645/4/6 646/4/6 649/4/6
f 649/4/6 646/4/6 650/4/6
f 647/4/6 648/4/6 651/4/6
f 651/4/6 648/4/6 652/4/6
f 653/4/6 654/4/6 658/4/6
f 658/4/6 654/4/6 659/4/6
f 655/4/6 656/4/6 660/4/6
f 660/4/6 656/4/6 661/4/6
f 657/4/6 658/4/6 663/4/6
f 663/4/6 658/4/6 664/4/6
f 661/4/6 662/4/6 665/4/6
f 665/4/6 662/4/6 666/4/6
f 667/4/6 668/4/6 671/4/6
f 671/4/6 668/4/6 672/4/6
f 669/4/6 670/4/6 675/4/6
f 675/4/6 670/4/6 676/4/6
f 672/4/6 673/4/6 677/4/6
f 677/4/6 673/4/6 678/4/6
f 674/4/6 675/4/6 679/4/6
f 679/4/6 675/4/6 680/4/6
f 681/4/6 682/4/6 684/4/6
f 684/4/6 682/4/6 685/4/6
f 685/4/6 682/4/6 686/4/6
f 686/4/6 682/4/6 687/4/6
f 683/4/6 684/4/6 690/4/6
f 684/4/6 685/4/6 690/4/6
f 690/4/6 685/4/6 691/4/6
f 691/4/6 685/4/6 692/4/6
f 686/4/6 687/4/6 693/4/6
f 687/4/6 688/4/6 693/4/6
f 693/4/6 688/4/6 694/4/6
f 694/4/6 688/4/6 695/4/6
f 690/4/6 691/4/6 697/4/6
f 689/4/6 690/4/6 697/4/6
f 697/4/6 691/4/6 698/4/6
f 698/4/6 691/4/6 699/4/6
f 695/4/6 696/4/6 702/4/6
f 694/4/6 695/4/6 702/4/6
f 702/4/6 696/4/6 703/4/6
f 703/4/6 696/4/6 704/4/6
f 699/4/6 700/4/6 705/4/6
f 698/4/6 699/4/6 705/4/6
f 705/4/6 700/4/6 706/4/6
f 706/4/6 700/4/6 707/4/6
f 702/4/6 703/4/6 708/4/6
f 701/4/6 702/4/6 708/4/6
f 708/4/6 703/4/6 709/4/6
f 709/4/6 703/4/6 710/4/6
f 706/4/6 707/4/6 711/4/6
f 708/4/6 709/4/6 711/4/6
f 707/4/6 708/4/6 711/4/6
f 711/4/6 709/4/6 712/4/6
f 713/4/6 714/4/6 716/4/6
f 716/4/6 714/4/6 717/4/6
f 715/4/6 716/4/6 719/4/6
f 717/4/6 718/4/6 719/4/6
f 716/4/6 717/4/6 719/4/6
f 719/4/6 718/4/6 720/4/6
f 720/4/6 718/4/6 721/4/6
f 721/4/6 718/4/6 722/4/6
f 720/4/6 721/4/6 723/4/6
f 723/4/6 721/4/6 724/4/6
