# MagicaVoxel @ Ephtracy

# group
g Bork 3 An1

# material
mtllib Bork 3 An1.mtl
usemtl palette

# normals
vn -1 0 0
vn 1 0 0
vn 0 0 1
vn 0 0 -1
vn 0 -1 0
vn 0 1 0

# texcoords
vt 0.0644531 0.5
vt 0.958984 0.5
vt 0.994141 0.5

# verts
v -7 1 1
v -7 1 -0
v -7 4 1
v -7 4 -0
v -6 4 1
v -6 4 -0
v -6 5 1
v -6 5 -0
v -5 5 1
v -5 5 -0
v -5 8 1
v -5 8 -0
v -4 0 -0
v -4 0 -2
v -4 1 3
v -4 1 1
v -4 4 1
v -4 4 -0
v -4 8 3
v -4 8 1
v -4 8 -0
v -4 8 -2
v 0 5 3
v 0 5 -2
v 0 6 3
v 0 6 -2
v 1 4 3
v 1 4 -2
v 1 5 3
v 1 5 -2
v 2 8 3
v 2 8 -2
v 2 11 5
v 2 11 3
v 2 11 -2
v 2 11 -4
v 2 12 3
v 2 12 -2
v 2 13 5
v 2 13 3
v 2 13 -2
v 2 13 -4
v 3 0 3
v 3 0 1
v 3 1 -0
v 3 1 -2
v 3 4 3
v 3 4 1
v 3 4 -0
v 3 4 -2
v -6 1 1
v -6 1 -0
v -6 3 1
v -6 3 -0
v -5 3 1
v -5 3 -0
v -5 4 1
v -5 4 -0
v -2 0 -0
v -2 0 -2
v -2 1 3
v -2 1 1
v -2 4 1
v -2 4 -0
v -2 6 3
v -2 6 -2
v 3 11 5
v 3 11 4
v 3 11 -3
v 3 11 -4
v 3 12 5
v 3 12 4
v 3 12 -3
v 3 12 -4
v 4 11 4
v 4 11 3
v 4 11 -2
v 4 11 -3
v 4 12 5
v 4 12 4
v 4 12 3
v 4 12 -2
v 4 12 -3
v 4 12 -4
v 4 13 5
v 4 13 3
v 4 13 -2
v 4 13 -4
v 5 0 3
v 5 0 1
v 5 1 -0
v 5 1 -2
v 5 4 1
v 5 4 -0
v 5 8 3
v 5 8 -2
v 5 11 3
v 5 11 2
v 5 11 -1
v 5 11 -2
v 5 12 3
v 5 12 2
v 5 12 -1
v 5 12 -2
v 6 8 3
v 6 8 2
v 6 8 -1
v 6 8 -2
v 6 9 2
v 6 9 -1
v 6 10 3
v 6 10 2
v 6 10 -1
v 6 10 -2
v 6 11 3
v 6 11 2
v 6 11 -1
v 6 11 -2
v 6 12 2
v 6 12 -1
v 8 8 2
v 8 8 1
v 8 8 -0
v 8 8 -1
v 8 9 2
v 8 9 1
v 8 9 -0
v 8 9 -1
v 8 10 2
v 8 10 1
v 8 10 -0
v 8 10 -1
v 9 9 1
v 9 9 -0
v 9 10 1
v 9 10 -0
v 2 11 5
v 2 13 5
v 3 11 5
v 3 12 5
v 4 12 5
v 4 13 5
v 3 11 4
v 3 12 4
v 4 11 4
v 4 12 4
v -4 1 3
v -4 8 3
v -2 1 3
v -2 6 3
v 0 5 3
v 0 6 3
v 1 4 3
v 1 5 3
v 2 8 3
v 2 11 3
v 3 0 3
v 3 4 3
v 4 11 3
v 4 12 3
v 5 0 3
v 5 8 3
v 5 10 3
v 5 11 3
v 5 12 3
v 6 8 3
v 6 10 3
v 6 11 3
v 5 11 2
v 5 12 2
v 6 8 2
v 6 9 2
v 6 10 2
v 6 11 2
v 6 12 2
v 8 8 2
v 8 9 2
v 8 10 2
v -7 1 1
v -7 4 1
v -6 1 1
v -6 3 1
v -6 4 1
v -6 5 1
v -5 3 1
v -5 4 1
v -5 5 1
v -5 8 1
v -4 4 1
v -4 8 1
v 8 9 1
v 8 10 1
v 9 9 1
v 9 10 1
v -4 0 -0
v -4 4 -0
v -2 0 -0
v -2 4 -0
v 3 1 -0
v 3 4 -0
v 5 1 -0
v 5 4 -0
v 2 12 -2
v 2 13 -2
v 4 12 -2
v 4 13 -2
v 2 12 3
v 2 13 3
v 4 12 3
v 4 13 3
v -4 1 1
v -4 4 1
v -2 1 1
v -2 4 1
v 3 0 1
v 3 4 1
v 5 0 1
v 5 4 1
v -7 1 -0
v -7 4 -0
v -6 1 -0
v -6 3 -0
v -6 4 -0
v -6 5 -0
v -5 3 -0
v -5 4 -0
v -5 5 -0
v -5 8 -0
v -4 4 -0
v -4 8 -0
v 8 9 -0
v 8 10 -0
v 9 9 -0
v 9 10 -0
v 5 11 -1
v 5 12 -1
v 6 8 -1
v 6 9 -1
v 6 10 -1
v 6 11 -1
v 6 12 -1
v 8 8 -1
v 8 9 -1
v 8 10 -1
v -4 0 -2
v -4 8 -2
v -2 0 -2
v -2 6 -2
v 0 5 -2
v 0 6 -2
v 1 4 -2
v 1 5 -2
v 2 8 -2
v 2 11 -2
v 3 1 -2
v 3 4 -2
v 4 11 -2
v 4 12 -2
v 5 1 -2
v 5 8 -2
v 5 10 -2
v 5 11 -2
v 5 12 -2
v 6 8 -2
v 6 10 -2
v 6 11 -2
v 3 11 -3
v 3 12 -3
v 4 11 -3
v 4 12 -3
v 2 11 -4
v 2 13 -4
v 3 11 -4
v 3 12 -4
v 4 12 -4
v 4 13 -4
v 3 0 3
v 5 0 3
v 3 0 1
v 5 0 1
v -4 0 -0
v -2 0 -0
v -4 0 -2
v -2 0 -2
v -4 1 3
v -2 1 3
v -7 1 1
v -6 1 1
v -4 1 1
v -2 1 1
v -7 1 -0
v -6 1 -0
v 3 1 -0
v 5 1 -0
v 3 1 -2
v 5 1 -2
v -6 3 1
v -5 3 1
v -6 3 -0
v -5 3 -0
v 1 4 3
v 3 4 3
v -5 4 1
v -4 4 1
v -2 4 1
v 3 4 1
v 5 4 1
v -5 4 -0
v -4 4 -0
v -2 4 -0
v 3 4 -0
v 5 4 -0
v 1 4 -2
v 3 4 -2
v 0 5 3
v 1 5 3
v 0 5 -2
v 1 5 -2
v -2 6 3
v 0 6 3
v -2 6 -2
v 0 6 -2
v 5 8 3
v 6 8 3
v 6 8 2
v 8 8 2
v 6 8 1
v 8 8 1
v 6 8 -0
v 8 8 -0
v 6 8 -1
v 8 8 -1
v 5 8 -2
v 6 8 -2
v 8 9 1
v 9 9 1
v 8 9 -0
v 9 9 -0
v 2 11 5
v 3 11 5
v 3 11 4
v 4 11 4
v 2 11 3
v 4 11 3
v 2 11 -2
v 4 11 -2
v 3 11 -3
v 4 11 -3
v 2 11 -4
v 3 11 -4
v 3 12 5
v 4 12 5
v 3 12 4
v 4 12 4
v 3 12 -3
v 4 12 -3
v 3 12 -4
v 4 12 -4
v -7 4 1
v -6 4 1
v -7 4 -0
v -6 4 -0
v -6 5 1
v -5 5 1
v -6 5 -0
v -5 5 -0
v -4 8 3
v 2 8 3
v -5 8 1
v -4 8 1
v -5 8 -0
v -4 8 -0
v -4 8 -2
v 2 8 -2
v 6 10 2
v 8 10 2
v 8 10 1
v 9 10 1
v 8 10 -0
v 9 10 -0
v 6 10 -1
v 8 10 -1
v 5 11 3
v 6 11 3
v 5 11 2
v 6 11 2
v 5 11 -1
v 6 11 -1
v 5 11 -2
v 6 11 -2
v 2 12 3
v 4 12 3
v 5 12 3
v 5 12 2
v 6 12 2
v 5 12 -1
v 6 12 -1
v 2 12 -2
v 4 12 -2
v 5 12 -2
v 2 13 5
v 4 13 5
v 2 13 3
v 4 13 3
v 2 13 -2
v 4 13 -2
v 2 13 -4
v 4 13 -4

# faces
f 3/1/1 2/1/1 1/1/1
f 4/1/1 2/1/1 3/1/1
f 7/1/1 6/1/1 5/1/1
f 8/1/1 6/1/1 7/1/1
f 11/1/1 10/1/1 9/1/1
f 12/1/1 10/1/1 11/1/1
f 17/1/1 16/1/1 15/1/1
f 18/1/1 14/1/1 13/1/1
f 19/1/1 17/1/1 15/1/1
f 20/1/1 17/1/1 19/1/1
f 21/1/1 14/1/1 18/1/1
f 22/1/1 14/1/1 21/1/1
f 25/1/1 24/1/1 23/1/1
f 26/1/1 24/1/1 25/1/1
f 29/1/1 28/1/1 27/1/1
f 30/1/1 28/1/1 29/1/1
f 34/1/1 32/1/1 31/1/1
f 35/1/1 32/1/1 34/1/1
f 37/1/1 34/1/1 33/1/1
f 37/1/1 36/1/1 35/1/1
f 37/1/1 35/1/1 34/1/1
f 38/1/1 36/1/1 37/1/1
f 39/1/1 37/1/1 33/1/1
f 40/1/1 37/1/1 39/1/1
f 41/1/1 36/1/1 38/1/1
f 42/1/1 36/1/1 41/1/1
f 47/1/1 44/1/1 43/1/1
f 48/1/1 44/1/1 47/1/1
f 49/1/1 46/1/1 45/1/1
f 50/1/1 46/1/1 49/1/1
f 51/1/2 52/1/2 53/1/2
f 53/1/2 52/1/2 54/1/2
f 55/1/2 56/1/2 57/1/2
f 57/1/2 56/1/2 58/1/2
f 61/1/2 62/1/2 63/1/2
f 59/1/2 60/1/2 64/1/2
f 61/1/2 63/1/2 65/1/2
f 63/1/2 64/1/2 65/1/2
f 64/1/2 60/1/2 66/1/2
f 65/1/2 64/1/2 66/1/2
f 67/1/2 68/1/2 71/1/2
f 71/1/2 68/1/2 72/1/2
f 69/1/2 70/1/2 73/1/2
f 73/1/2 70/1/2 74/1/2
f 75/1/2 76/1/2 80/1/2
f 80/1/2 76/1/2 81/1/2
f 77/1/2 78/1/2 82/1/2
f 82/1/2 78/1/2 83/1/2
f 80/1/2 81/1/2 85/1/2
f 79/1/2 80/1/2 85/1/2
f 85/1/2 81/1/2 86/1/2
f 83/1/2 84/1/2 87/1/2
f 82/1/2 83/1/2 87/1/2
f 87/1/2 84/1/2 88/1/2
f 89/1/2 90/1/2 93/1/2
f 91/1/2 92/1/2 94/1/2
f 89/1/2 93/1/2 95/1/2
f 93/1/2 94/1/2 95/1/2
f 94/1/2 92/1/2 96/1/2
f 95/1/2 94/1/2 96/1/2
f 97/1/2 98/1/2 101/1/2
f 101/1/2 98/1/2 102/1/2
f 99/1/2 100/1/2 103/1/2
f 103/1/2 100/1/2 104/1/2
f 105/1/2 106/1/2 109/1/2
f 107/1/2 108/1/2 110/1/2
f 105/1/2 109/1/2 111/1/2
f 111/1/2 109/1/2 112/1/2
f 110/1/2 108/1/2 113/1/2
f 113/1/2 108/1/2 114/1/2
f 111/3/2 112/3/2 115/3/2
f 112/1/2 113/1/2 116/1/2
f 115/3/2 112/3/2 116/3/2
f 113/3/2 114/3/2 117/3/2
f 116/1/2 113/1/2 117/1/2
f 117/3/2 114/3/2 118/3/2
f 116/1/2 117/1/2 119/1/2
f 119/1/2 117/1/2 120/1/2
f 121/2/2 122/2/2 125/2/2
f 122/1/2 123/1/2 126/1/2
f 125/2/2 122/2/2 126/2/2
f 123/2/2 124/2/2 127/2/2
f 126/1/2 123/1/2 127/1/2
f 127/2/2 124/2/2 128/2/2
f 125/1/2 126/1/2 129/1/2
f 129/1/2 126/1/2 130/1/2
f 127/1/2 128/1/2 131/1/2
f 131/1/2 128/1/2 132/1/2
f 133/3/2 134/3/2 135/3/2
f 135/3/2 134/3/2 136/3/2
f 139/1/3 138/1/3 137/1/3
f 140/1/3 138/1/3 139/1/3
f 141/1/3 138/1/3 140/1/3
f 142/1/3 138/1/3 141/1/3
f 145/1/3 144/1/3 143/1/3
f 146/1/3 144/1/3 145/1/3
f 149/1/3 148/1/3 147/1/3
f 150/1/3 148/1/3 149/1/3
f 152/1/3 148/1/3 150/1/3
f 154/1/3 152/1/3 151/1/3
f 155/1/3 148/1/3 152/1/3
f 155/1/3 154/1/3 153/1/3
f 155/1/3 152/1/3 154/1/3
f 158/1/3 155/1/3 153/1/3
f 158/1/3 156/1/3 155/1/3
f 159/1/3 156/1/3 158/1/3
f 159/1/3 158/1/3 157/1/3
f 161/1/3 159/1/3 157/1/3
f 161/1/3 160/1/3 159/1/3
f 162/1/3 160/1/3 161/1/3
f 163/1/3 160/1/3 162/1/3
f 164/1/3 160/1/3 163/1/3
f 165/1/3 160/1/3 164/1/3
f 166/1/3 163/1/3 162/1/3
f 167/3/3 164/3/3 163/3/3
f 167/1/3 163/1/3 166/1/3
f 168/3/3 164/3/3 167/3/3
f 174/1/3 170/1/3 169/1/3
f 175/1/3 170/1/3 174/1/3
f 176/2/3 172/2/3 171/2/3
f 177/1/3 173/1/3 172/1/3
f 177/2/3 172/2/3 176/2/3
f 178/1/3 173/1/3 177/1/3
f 181/1/3 180/1/3 179/1/3
f 182/1/3 180/1/3 181/1/3
f 183/1/3 180/1/3 182/1/3
f 185/1/3 184/1/3 183/1/3
f 185/1/3 183/1/3 182/1/3
f 186/1/3 184/1/3 185/1/3
f 187/1/3 184/1/3 186/1/3
f 189/1/3 188/1/3 187/1/3
f 189/1/3 187/1/3 186/1/3
f 190/1/3 188/1/3 189/1/3
f 193/3/3 192/3/3 191/3/3
f 194/3/3 192/3/3 193/3/3
f 197/1/3 196/1/3 195/1/3
f 198/1/3 196/1/3 197/1/3
f 201/1/3 200/1/3 199/1/3
f 202/1/3 200/1/3 201/1/3
f 205/1/3 204/1/3 203/1/3
f 206/1/3 204/1/3 205/1/3
f 207/1/4 208/1/4 209/1/4
f 209/1/4 208/1/4 210/1/4
f 211/1/4 212/1/4 213/1/4
f 213/1/4 212/1/4 214/1/4
f 215/1/4 216/1/4 217/1/4
f 217/1/4 216/1/4 218/1/4
f 219/1/4 220/1/4 221/1/4
f 221/1/4 220/1/4 222/1/4
f 222/1/4 220/1/4 223/1/4
f 223/1/4 224/1/4 225/1/4
f 222/1/4 223/1/4 225/1/4
f 225/1/4 224/1/4 226/1/4
f 226/1/4 224/1/4 227/1/4
f 227/1/4 228/1/4 229/1/4
f 226/1/4 227/1/4 229/1/4
f 229/1/4 228/1/4 230/1/4
f 231/3/4 232/3/4 233/3/4
f 233/3/4 232/3/4 234/3/4
f 235/1/4 236/1/4 240/1/4
f 240/1/4 236/1/4 241/1/4
f 237/2/4 238/2/4 242/2/4
f 238/1/4 239/1/4 243/1/4
f 242/2/4 238/2/4 243/2/4
f 243/1/4 239/1/4 244/1/4
f 245/1/4 246/1/4 247/1/4
f 247/1/4 246/1/4 248/1/4
f 248/1/4 246/1/4 250/1/4
f 249/1/4 250/1/4 252/1/4
f 250/1/4 246/1/4 253/1/4
f 251/1/4 252/1/4 253/1/4
f 252/1/4 250/1/4 253/1/4
f 251/1/4 253/1/4 256/1/4
f 253/1/4 254/1/4 256/1/4
f 256/1/4 254/1/4 257/1/4
f 255/1/4 256/1/4 257/1/4
f 255/1/4 257/1/4 259/1/4
f 257/1/4 258/1/4 259/1/4
f 259/1/4 258/1/4 260/1/4
f 260/1/4 258/1/4 261/1/4
f 261/1/4 258/1/4 262/1/4
f 262/1/4 258/1/4 263/1/4
f 260/1/4 261/1/4 264/1/4
f 261/3/4 262/3/4 265/3/4
f 264/1/4 261/1/4 265/1/4
f 265/3/4 262/3/4 266/3/4
f 267/1/4 268/1/4 269/1/4
f 269/1/4 268/1/4 270/1/4
f 271/1/4 272/1/4 273/1/4
f 273/1/4 272/1/4 274/1/4
f 274/1/4 272/1/4 275/1/4
f 275/1/4 272/1/4 276/1/4
f 279/1/5 278/1/5 277/1/5
f 280/1/5 278/1/5 279/1/5
f 283/1/5 282/1/5 281/1/5
f 284/1/5 282/1/5 283/1/5
f 289/1/5 286/1/5 285/1/5
f 290/1/5 286/1/5 289/1/5
f 291/1/5 288/1/5 287/1/5
f 292/1/5 288/1/5 291/1/5
f 295/1/5 294/1/5 293/1/5
f 296/1/5 294/1/5 295/1/5
f 299/1/5 298/1/5 297/1/5
f 300/1/5 298/1/5 299/1/5
f 306/1/5 302/1/5 301/1/5
f 308/1/5 305/1/5 304/1/5
f 308/1/5 304/1/5 303/1/5
f 309/1/5 305/1/5 308/1/5
f 310/1/5 305/1/5 309/1/5
f 311/1/5 307/1/5 306/1/5
f 311/1/5 306/1/5 301/1/5
f 312/1/5 307/1/5 311/1/5
f 313/1/5 311/1/5 301/1/5
f 314/1/5 311/1/5 313/1/5
f 317/1/5 316/1/5 315/1/5
f 318/1/5 316/1/5 317/1/5
f 321/1/5 320/1/5 319/1/5
f 322/1/5 320/1/5 321/1/5
f 325/1/5 324/1/5 323/1/5
f 327/1/5 325/1/5 323/1/5
f 327/2/5 326/2/5 325/2/5
f 328/2/5 326/2/5 327/2/5
f 329/1/5 327/1/5 323/1/5
f 329/1/5 328/1/5 327/1/5
f 330/1/5 328/1/5 329/1/5
f 331/1/5 329/1/5 323/1/5
f 331/2/5 330/2/5 329/2/5
f 332/2/5 330/2/5 331/2/5
f 333/1/5 331/1/5 323/1/5
f 334/1/5 331/1/5 333/1/5
f 337/3/5 336/3/5 335/3/5
f 338/3/5 336/3/5 337/3/5
f 341/1/5 340/1/5 339/1/5
f 343/1/5 341/1/5 339/1/5
f 343/1/5 342/1/5 341/1/5
f 344/1/5 342/1/5 343/1/5
f 347/1/5 346/1/5 345/1/5
f 348/1/5 346/1/5 347/1/5
f 349/1/5 347/1/5 345/1/5
f 350/1/5 347/1/5 349/1/5
f 353/1/5 352/1/5 351/1/5
f 354/1/5 352/1/5 353/1/5
f 357/1/5 356/1/5 355/1/5
f 358/1/5 356/1/5 357/1/5
f 359/1/6 360/1/6 361/1/6
f 361/1/6 360/1/6 362/1/6
f 363/1/6 364/1/6 365/1/6
f 365/1/6 364/1/6 366/1/6
f 367/1/6 368/1/6 370/1/6
f 369/1/6 370/1/6 371/1/6
f 370/1/6 368/1/6 372/1/6
f 371/1/6 370/1/6 372/1/6
f 372/1/6 368/1/6 373/1/6
f 373/1/6 368/1/6 374/1/6
f 375/1/6 376/1/6 377/1/6
f 375/1/6 377/1/6 379/1/6
f 377/3/6 378/3/6 379/3/6
f 379/3/6 378/3/6 380/3/6
f 375/1/6 379/1/6 381/1/6
f 381/1/6 379/1/6 382/1/6
f 383/3/6 384/3/6 385/3/6
f 385/3/6 384/3/6 386/3/6
f 387/3/6 388/3/6 389/3/6
f 389/3/6 388/3/6 390/3/6
f 391/1/6 392/1/6 394/1/6
f 392/1/6 393/1/6 394/1/6
f 391/1/6 394/1/6 396/1/6
f 394/1/6 395/1/6 396/1/6
f 396/1/6 395/1/6 397/1/6
f 391/1/6 396/1/6 398/1/6
f 398/1/6 396/1/6 399/1/6
f 399/1/6 396/1/6 400/1/6
f 401/1/6 402/1/6 403/1/6
f 403/1/6 402/1/6 404/1/6
f 405/1/6 406/1/6 407/1/6
f 407/1/6 406/1/6 408/1/6
