# MagicaVoxel @ Ephtracy

# group
g Bork 8 An1

# material
mtllib Bork 8 An1.mtl
usemtl palette

# normals
vn -1 0 0
vn 1 0 0
vn 0 0 1
vn 0 0 -1
vn 0 -1 0
vn 0 1 0

# texcoords
vt 0.0644531 0.5
vt 0.0683594 0.5
vt 0.958984 0.5
vt 0.994141 0.5

# verts
v -7 7 1
v -7 7 -0
v -7 10 1
v -7 10 -0
v -6 6 1
v -6 6 -0
v -6 7 1
v -6 7 -0
v -6 10 1
v -6 10 -0
v -6 12 1
v -6 12 -0
v -5 5 1
v -5 5 -0
v -5 6 1
v -5 6 -0
v -5 12 1
v -5 12 -0
v -5 13 1
v -5 13 -0
v -4 0 3
v -4 0 1
v -4 1 -0
v -4 1 -2
v -4 2 3
v -4 2 1
v -4 3 -0
v -4 3 -2
v -4 4 1
v -4 4 -0
v -4 5 1
v -4 5 -0
v -4 7 2
v -4 7 1
v -4 7 -0
v -4 7 -1
v -4 8 3
v -4 8 2
v -4 8 1
v -4 8 -0
v -4 8 -1
v -4 8 -2
v 2 8 4
v 2 8 3
v 2 8 -2
v 2 8 -3
v 2 11 4
v 2 11 3
v 2 11 2
v 2 11 1
v 2 11 -0
v 2 11 -1
v 2 11 -2
v 2 11 -3
v 2 12 3
v 2 12 2
v 2 12 1
v 2 12 -0
v 2 12 -1
v 2 12 -2
v 3 0 -0
v 3 0 -2
v 3 1 3
v 3 1 1
v 3 2 -0
v 3 2 -2
v 3 3 3
v 3 3 1
v 3 4 3
v 3 4 1
v 3 4 -0
v 3 4 -2
v 4 3 1
v 4 3 -0
v 4 4 1
v 4 4 -0
v -5 8 1
v -5 8 -0
v -5 10 1
v -5 10 -0
v -4 10 1
v -4 10 -0
v -4 11 1
v -4 11 -0
v -3 12 1
v -3 12 -0
v -3 13 1
v -3 13 -0
v -2 0 3
v -2 0 1
v -2 1 -0
v -2 1 -2
v -2 2 3
v -2 2 1
v -2 3 -0
v -2 3 -2
v -2 4 3
v -2 4 1
v -2 4 -0
v -2 4 -2
v -2 11 1
v -2 11 -0
v -2 12 1
v -2 12 -0
v 4 8 4
v 4 8 3
v 4 8 -2
v 4 8 -3
v 4 11 4
v 4 11 3
v 4 11 -2
v 4 11 -3
v 5 0 -0
v 5 0 -2
v 5 1 3
v 5 1 1
v 5 2 -0
v 5 2 -2
v 5 3 3
v 5 3 1
v 5 3 -0
v 5 4 2
v 5 4 1
v 5 4 -0
v 5 4 -1
v 5 7 3
v 5 7 2
v 5 7 -1
v 5 7 -2
v 5 11 3
v 5 11 2
v 5 11 -1
v 5 11 -2
v 5 12 3
v 5 12 2
v 5 12 -1
v 5 12 -2
v 6 7 3
v 6 7 2
v 6 7 -1
v 6 7 -2
v 6 10 3
v 6 10 2
v 6 10 1
v 6 10 -0
v 6 10 -1
v 6 10 -2
v 6 11 3
v 6 11 2
v 6 11 -1
v 6 11 -2
v 6 12 2
v 6 12 1
v 6 12 -0
v 6 12 -1
v 8 7 2
v 8 7 -1
v 8 9 1
v 8 9 -0
v 8 10 2
v 8 10 1
v 8 10 -0
v 8 10 -1
v 9 9 1
v 9 9 -0
v 9 10 1
v 9 10 -0
v 2 8 4
v 2 11 4
v 4 8 4
v 4 11 4
v -4 0 3
v -4 2 3
v -4 8 3
v -3 7 3
v -3 8 3
v -2 0 3
v -2 2 3
v -2 4 3
v -2 6 3
v -2 7 3
v -1 5 3
v -1 6 3
v 0 5 3
v 0 6 3
v 1 6 3
v 1 7 3
v 2 7 3
v 2 8 3
v 2 11 3
v 2 12 3
v 3 1 3
v 3 3 3
v 3 4 3
v 3 11 3
v 3 12 3
v 4 8 3
v 4 11 3
v 4 12 3
v 5 1 3
v 5 3 3
v 5 7 3
v 5 10 3
v 5 11 3
v 5 12 3
v 6 7 3
v 6 10 3
v 6 11 3
v 5 11 2
v 5 12 2
v 6 7 2
v 6 10 2
v 6 11 2
v 6 12 2
v 8 7 2
v 8 10 2
v -7 7 1
v -7 10 1
v -6 6 1
v -6 7 1
v -6 10 1
v -6 12 1
v -5 5 1
v -5 6 1
v -5 7 1
v -5 8 1
v -5 10 1
v -5 12 1
v -5 13 1
v -4 5 1
v -4 7 1
v -4 8 1
v -4 10 1
v -4 11 1
v -3 12 1
v -3 13 1
v -2 11 1
v -2 12 1
v 8 9 1
v 8 10 1
v 9 9 1
v 9 10 1
v -4 1 -0
v -4 3 -0
v -4 4 -0
v -2 1 -0
v -2 3 -0
v -2 4 -0
v 3 0 -0
v 3 2 -0
v 3 4 -0
v 4 3 -0
v 4 4 -0
v 5 0 -0
v 5 2 -0
v 5 3 -0
v -4 0 1
v -4 2 1
v -4 4 1
v -2 0 1
v -2 2 1
v -2 4 1
v 3 1 1
v 3 3 1
v 3 4 1
v 4 3 1
v 4 4 1
v 5 1 1
v 5 3 1
v -7 7 -0
v -7 10 -0
v -6 6 -0
v -6 7 -0
v -6 10 -0
v -6 12 -0
v -5 5 -0
v -5 6 -0
v -5 7 -0
v -5 8 -0
v -5 10 -0
v -5 12 -0
v -5 13 -0
v -4 5 -0
v -4 7 -0
v -4 8 -0
v -4 10 -0
v -4 11 -0
v -3 12 -0
v -3 13 -0
v -2 11 -0
v -2 12 -0
v 8 9 -0
v 8 10 -0
v 9 9 -0
v 9 10 -0
v 5 11 -1
v 5 12 -1
v 6 7 -1
v 6 10 -1
v 6 11 -1
v 6 12 -1
v 8 7 -1
v 8 10 -1
v -4 1 -2
v -4 3 -2
v -4 8 -2
v -3 7 -2
v -3 8 -2
v -2 1 -2
v -2 3 -2
v -2 4 -2
v -2 6 -2
v -2 7 -2
v -1 5 -2
v -1 6 -2
v 0 5 -2
v 0 6 -2
v 1 6 -2
v 1 7 -2
v 2 7 -2
v 2 8 -2
v 2 11 -2
v 2 12 -2
v 3 0 -2
v 3 2 -2
v 3 4 -2
v 3 11 -2
v 3 12 -2
v 4 8 -2
v 4 11 -2
v 4 12 -2
v 5 0 -2
v 5 2 -2
v 5 7 -2
v 5 10 -2
v 5 11 -2
v 5 12 -2
v 6 7 -2
v 6 10 -2
v 6 11 -2
v 2 8 -3
v 2 11 -3
v 4 8 -3
v 4 11 -3
v -4 0 3
v -2 0 3
v -4 0 1
v -2 0 1
v 3 0 -0
v 5 0 -0
v 3 0 -2
v 5 0 -2
v 3 1 3
v 5 1 3
v 3 1 1
v 5 1 1
v -4 1 -0
v -2 1 -0
v -4 1 -2
v -2 1 -2
v 4 3 1
v 5 3 1
v 4 3 -0
v 5 3 -0
v -2 4 3
v 3 4 3
v -4 4 1
v -2 4 1
v 3 4 1
v 4 4 1
v -4 4 -0
v -2 4 -0
v 3 4 -0
v 4 4 -0
v -2 4 -2
v 3 4 -2
v -5 5 1
v -4 5 1
v -5 5 -0
v -4 5 -0
v -6 6 1
v -5 6 1
v -6 6 -0
v -5 6 -0
v 5 7 3
v 6 7 3
v 5 7 2
v 6 7 2
v 8 7 2
v -7 7 1
v -6 7 1
v -7 7 -0
v -6 7 -0
v 5 7 -1
v 6 7 -1
v 8 7 -1
v 5 7 -2
v 6 7 -2
v 2 8 4
v 4 8 4
v 2 8 3
v 4 8 3
v 2 8 -2
v 4 8 -2
v 2 8 -3
v 4 8 -3
v 8 9 1
v 9 9 1
v 8 9 -0
v 9 9 -0
v -5 10 1
v -4 10 1
v -5 10 -0
v -4 10 -0
v -4 11 1
v -2 11 1
v -4 11 -0
v -2 11 -0
v -4 8 3
v -3 8 3
v 2 8 3
v -4 8 2
v -3 8 2
v -5 8 1
v -4 8 1
v -5 8 -0
v -4 8 -0
v -4 8 -1
v -3 8 -1
v -4 8 -2
v -3 8 -2
v 2 8 -2
v 6 10 2
v 8 10 2
v -7 10 1
v -6 10 1
v 6 10 1
v 8 10 1
v 9 10 1
v -7 10 -0
v -6 10 -0
v 6 10 -0
v 8 10 -0
v 9 10 -0
v 6 10 -1
v 8 10 -1
v 2 11 4
v 4 11 4
v 2 11 3
v 3 11 3
v 4 11 3
v 5 11 3
v 6 11 3
v 5 11 2
v 6 11 2
v 5 11 -1
v 6 11 -1
v 2 11 -2
v 3 11 -2
v 4 11 -2
v 5 11 -2
v 6 11 -2
v 2 11 -3
v 4 11 -3
v 2 12 3
v 3 12 3
v 4 12 3
v 5 12 3
v 2 12 2
v 3 12 2
v 4 12 2
v 5 12 2
v 6 12 2
v -6 12 1
v -5 12 1
v -3 12 1
v -2 12 1
v 2 12 1
v 4 12 1
v 5 12 1
v 6 12 1
v -6 12 -0
v -5 12 -0
v -3 12 -0
v -2 12 -0
v 2 12 -0
v 4 12 -0
v 5 12 -0
v 6 12 -0
v 2 12 -1
v 3 12 -1
v 4 12 -1
v 5 12 -1
v 6 12 -1
v 2 12 -2
v 3 12 -2
v 4 12 -2
v 5 12 -2
v -5 13 1
v -3 13 1
v -5 13 -0
v -3 13 -0

# faces
f 3/3/1 2/3/1 1/3/1
f 4/3/1 2/3/1 3/3/1
f 7/3/1 6/3/1 5/3/1
f 8/3/1 6/3/1 7/3/1
f 11/3/1 10/3/1 9/3/1
f 12/3/1 10/3/1 11/3/1
f 15/1/1 14/1/1 13/1/1
f 16/1/1 14/1/1 15/1/1
f 19/3/1 18/3/1 17/3/1
f 20/3/1 18/3/1 19/3/1
f 25/3/1 22/3/1 21/3/1
f 26/3/1 22/3/1 25/3/1
f 27/3/1 24/3/1 23/3/1
f 28/3/1 24/3/1 27/3/1
f 29/1/1 26/1/1 25/1/1
f 30/1/1 28/1/1 27/1/1
f 31/1/1 29/1/1 25/1/1
f 31/1/1 30/1/1 29/1/1
f 32/1/1 28/1/1 30/1/1
f 32/1/1 30/1/1 31/1/1
f 33/1/1 31/1/1 25/1/1
f 34/1/1 31/1/1 33/1/1
f 35/1/1 28/1/1 32/1/1
f 36/1/1 28/1/1 35/1/1
f 37/1/1 33/1/1 25/1/1
f 38/2/1 34/2/1 33/2/1
f 38/1/1 33/1/1 37/1/1
f 39/2/1 34/2/1 38/2/1
f 40/2/1 36/2/1 35/2/1
f 41/1/1 28/1/1 36/1/1
f 41/2/1 36/2/1 40/2/1
f 42/1/1 28/1/1 41/1/1
f 47/2/1 44/2/1 43/2/1
f 48/1/1 45/1/1 44/1/1
f 48/2/1 44/2/1 47/2/1
f 49/1/1 45/1/1 48/1/1
f 50/1/1 45/1/1 49/1/1
f 51/1/1 45/1/1 50/1/1
f 52/1/1 45/1/1 51/1/1
f 53/2/1 46/2/1 45/2/1
f 53/1/1 45/1/1 52/1/1
f 54/2/1 46/2/1 53/2/1
f 55/2/1 49/2/1 48/2/1
f 56/1/1 50/1/1 49/1/1
f 56/2/1 49/2/1 55/2/1
f 57/2/1 51/2/1 50/2/1
f 57/1/1 50/1/1 56/1/1
f 58/1/1 52/1/1 51/1/1
f 58/2/1 51/2/1 57/2/1
f 59/2/1 53/2/1 52/2/1
f 59/1/1 52/1/1 58/1/1
f 60/2/1 53/2/1 59/2/1
f 65/3/1 62/3/1 61/3/1
f 66/3/1 62/3/1 65/3/1
f 67/3/1 64/3/1 63/3/1
f 68/3/1 64/3/1 67/3/1
f 69/1/1 68/1/1 67/1/1
f 70/1/1 68/1/1 69/1/1
f 71/1/1 66/1/1 65/1/1
f 72/1/1 66/1/1 71/1/1
f 75/3/1 74/3/1 73/3/1
f 76/3/1 74/3/1 75/3/1
f 77/2/2 78/2/2 79/2/2
f 79/2/2 78/2/2 80/2/2
f 81/2/2 82/2/2 83/2/2
f 83/2/2 82/2/2 84/2/2
f 85/3/2 86/3/2 87/3/2
f 87/3/2 86/3/2 88/3/2
f 89/3/2 90/3/2 93/3/2
f 93/3/2 90/3/2 94/3/2
f 91/3/2 92/3/2 95/3/2
f 95/3/2 92/3/2 96/3/2
f 93/1/2 94/1/2 97/1/2
f 97/1/2 94/1/2 98/1/2
f 95/1/2 96/1/2 99/1/2
f 99/1/2 96/1/2 100/1/2
f 101/2/2 102/2/2 103/2/2
f 103/2/2 102/2/2 104/2/2
f 105/2/2 106/2/2 109/2/2
f 109/2/2 106/2/2 110/2/2
f 107/2/2 108/2/2 111/2/2
f 111/2/2 108/2/2 112/2/2
f 113/3/2 114/3/2 117/3/2
f 117/3/2 114/3/2 118/3/2
f 115/3/2 116/3/2 119/3/2
f 119/3/2 116/3/2 120/3/2
f 117/1/2 118/1/2 121/1/2
f 119/1/2 120/1/2 122/1/2
f 120/3/2 121/3/2 123/3/2
f 122/1/2 120/1/2 123/1/2
f 121/1/2 118/1/2 124/1/2
f 123/3/2 121/3/2 124/3/2
f 124/1/2 118/1/2 125/1/2
f 119/1/2 122/1/2 126/1/2
f 122/3/2 123/3/2 127/3/2
f 126/1/2 122/1/2 127/1/2
f 123/3/2 124/3/2 127/3/2
f 124/3/2 125/3/2 127/3/2
f 125/1/2 118/1/2 128/1/2
f 127/3/2 125/3/2 128/3/2
f 128/1/2 118/1/2 129/1/2
f 130/2/2 131/2/2 134/2/2
f 134/2/2 131/2/2 135/2/2
f 132/2/2 133/2/2 136/2/2
f 136/2/2 133/2/2 137/2/2
f 138/1/2 139/1/2 142/1/2
f 142/1/2 139/1/2 143/1/2
f 140/1/2 141/1/2 146/1/2
f 146/1/2 141/1/2 147/1/2
f 142/4/2 143/4/2 148/4/2
f 143/1/2 144/1/2 149/1/2
f 148/4/2 143/4/2 149/4/2
f 145/1/2 146/1/2 150/1/2
f 146/4/2 147/4/2 150/4/2
f 150/4/2 147/4/2 151/4/2
f 149/1/2 144/1/2 152/1/2
f 144/3/2 145/3/2 153/3/2
f 152/1/2 144/1/2 153/1/2
f 145/1/2 150/1/2 154/1/2
f 153/3/2 145/3/2 154/3/2
f 154/1/2 150/1/2 155/1/2
f 156/3/2 157/3/2 158/3/2
f 158/3/2 157/3/2 159/3/2
f 156/3/2 158/3/2 160/3/2
f 160/3/2 158/3/2 161/3/2
f 159/3/2 157/3/2 162/3/2
f 162/3/2 157/3/2 163/3/2
f 164/4/2 165/4/2 166/4/2
f 166/4/2 165/4/2 167/4/2
f 170/2/3 169/2/3 168/2/3
f 171/2/3 169/2/3 170/2/3
f 175/1/3 174/1/3 173/1/3
f 176/1/3 174/1/3 175/1/3
f 177/3/3 173/3/3 172/3/3
f 178/1/3 175/1/3 173/1/3
f 178/3/3 173/3/3 177/3/3
f 179/1/3 175/1/3 178/1/3
f 180/1/3 175/1/3 179/1/3
f 181/2/3 176/2/3 175/2/3
f 181/1/3 175/1/3 180/1/3
f 182/1/3 180/1/3 179/1/3
f 183/2/3 181/2/3 180/2/3
f 183/1/3 180/1/3 182/1/3
f 184/1/3 182/1/3 179/1/3
f 184/2/3 183/2/3 182/2/3
f 185/2/3 181/2/3 183/2/3
f 185/2/3 183/2/3 184/2/3
f 186/1/3 185/1/3 184/1/3
f 186/2/3 181/2/3 185/2/3
f 187/2/3 176/2/3 181/2/3
f 187/2/3 181/2/3 186/2/3
f 188/1/3 187/1/3 186/1/3
f 188/2/3 176/2/3 187/2/3
f 189/2/3 176/2/3 188/2/3
f 194/1/3 189/1/3 188/1/3
f 194/1/3 186/1/3 184/1/3
f 194/1/3 184/1/3 179/1/3
f 194/1/3 188/1/3 186/1/3
f 195/2/3 191/2/3 190/2/3
f 196/2/3 191/2/3 195/2/3
f 197/1/3 194/1/3 193/1/3
f 197/1/3 189/1/3 194/1/3
f 198/1/3 196/1/3 195/1/3
f 199/1/3 196/1/3 198/1/3
f 200/3/3 193/3/3 192/3/3
f 201/1/3 197/1/3 193/1/3
f 201/3/3 193/3/3 200/3/3
f 201/1/3 198/1/3 197/1/3
f 202/1/3 198/1/3 201/1/3
f 203/1/3 198/1/3 202/1/3
f 204/2/3 199/2/3 198/2/3
f 204/1/3 198/1/3 203/1/3
f 205/2/3 199/2/3 204/2/3
f 206/1/3 203/1/3 202/1/3
f 207/4/3 204/4/3 203/4/3
f 207/1/3 203/1/3 206/1/3
f 208/4/3 204/4/3 207/4/3
f 213/1/3 210/1/3 209/1/3
f 214/1/3 210/1/3 213/1/3
f 215/3/3 212/3/3 211/3/3
f 216/3/3 212/3/3 215/3/3
f 220/3/3 218/3/3 217/3/3
f 221/3/3 218/3/3 220/3/3
f 224/3/3 220/3/3 219/3/3
f 225/2/3 221/2/3 220/2/3
f 225/3/3 220/3/3 224/3/3
f 226/2/3 221/2/3 225/2/3
f 227/3/3 222/3/3 221/3/3
f 227/2/3 221/2/3 226/2/3
f 228/3/3 222/3/3 227/3/3
f 230/1/3 224/1/3 223/1/3
f 230/1/3 225/1/3 224/1/3
f 231/2/3 226/2/3 225/2/3
f 231/1/3 225/1/3 230/1/3
f 232/2/3 226/2/3 231/2/3
f 233/2/3 228/2/3 227/2/3
f 234/2/3 228/2/3 233/2/3
f 235/3/3 229/3/3 228/3/3
f 235/2/3 228/2/3 234/2/3
f 236/3/3 229/3/3 235/3/3
f 237/2/3 235/2/3 234/2/3
f 238/2/3 235/2/3 237/2/3
f 241/4/3 240/4/3 239/4/3
f 242/4/3 240/4/3 241/4/3
f 246/3/3 244/3/3 243/3/3
f 247/1/3 245/1/3 244/1/3
f 247/3/3 244/3/3 246/3/3
f 248/1/3 245/1/3 247/1/3
f 252/1/3 251/1/3 250/1/3
f 253/1/3 251/1/3 252/1/3
f 254/3/3 250/3/3 249/3/3
f 255/1/3 252/1/3 250/1/3
f 255/3/3 250/3/3 254/3/3
f 256/1/3 252/1/3 255/1/3
f 257/3/4 258/3/4 260/3/4
f 258/1/4 259/1/4 261/1/4
f 260/3/4 258/3/4 261/3/4
f 261/1/4 259/1/4 262/1/4
f 263/3/4 264/3/4 266/3/4
f 264/1/4 265/1/4 266/1/4
f 266/1/4 265/1/4 267/1/4
f 263/3/4 266/3/4 268/3/4
f 268/3/4 266/3/4 269/3/4
f 270/3/4 271/3/4 273/3/4
f 273/3/4 271/3/4 274/3/4
f 272/3/4 273/3/4 277/3/4
f 273/2/4 274/2/4 278/2/4
f 277/3/4 273/3/4 278/3/4
f 278/2/4 274/2/4 279/2/4
f 274/3/4 275/3/4 280/3/4
f 279/2/4 274/2/4 280/2/4
f 280/3/4 275/3/4 281/3/4
f 276/1/4 277/1/4 283/1/4
f 277/1/4 278/1/4 283/1/4
f 278/2/4 279/2/4 284/2/4
f 283/1/4 278/1/4 284/1/4
f 284/2/4 279/2/4 285/2/4
f 280/2/4 281/2/4 286/2/4
f 286/2/4 281/2/4 287/2/4
f 281/3/4 282/3/4 288/3/4
f 287/2/4 281/2/4 288/2/4
f 288/3/4 282/3/4 289/3/4
f 287/2/4 288/2/4 290/2/4
f 290/2/4 288/2/4 291/2/4
f 292/4/4 293/4/4 294/4/4
f 294/4/4 293/4/4 295/4/4
f 296/1/4 297/1/4 300/1/4
f 300/1/4 297/1/4 301/1/4
f 298/3/4 299/3/4 302/3/4
f 302/3/4 299/3/4 303/3/4
f 305/1/4 306/1/4 307/1/4
f 307/1/4 306/1/4 308/1/4
f 304/3/4 305/3/4 309/3/4
f 305/1/4 307/1/4 310/1/4
f 309/3/4 305/3/4 310/3/4
f 310/1/4 307/1/4 311/1/4
f 311/1/4 307/1/4 312/1/4
f 307/2/4 308/2/4 313/2/4
f 312/1/4 307/1/4 313/1/4
f 311/1/4 312/1/4 314/1/4
f 312/2/4 313/2/4 315/2/4
f 314/1/4 312/1/4 315/1/4
f 311/1/4 314/1/4 316/1/4
f 314/2/4 315/2/4 316/2/4
f 315/2/4 313/2/4 317/2/4
f 316/2/4 315/2/4 317/2/4
f 316/1/4 317/1/4 318/1/4
f 317/2/4 313/2/4 318/2/4
f 313/2/4 308/2/4 319/2/4
f 318/2/4 313/2/4 319/2/4
f 318/1/4 319/1/4 320/1/4
f 319/2/4 308/2/4 320/2/4
f 320/2/4 308/2/4 321/2/4
f 320/1/4 321/1/4 326/1/4
f 316/1/4 318/1/4 326/1/4
f 311/1/4 316/1/4 326/1/4
f 318/1/4 320/1/4 326/1/4
f 322/2/4 323/2/4 327/2/4
f 327/2/4 323/2/4 328/2/4
f 325/1/4 326/1/4 329/1/4
f 326/1/4 321/1/4 329/1/4
f 327/1/4 328/1/4 330/1/4
f 330/1/4 328/1/4 331/1/4
f 324/3/4 325/3/4 332/3/4
f 325/1/4 329/1/4 333/1/4
f 332/3/4 325/3/4 333/3/4
f 329/1/4 330/1/4 333/1/4
f 333/1/4 330/1/4 334/1/4
f 334/1/4 330/1/4 335/1/4
f 330/2/4 331/2/4 336/2/4
f 335/1/4 330/1/4 336/1/4
f 336/2/4 331/2/4 337/2/4
f 334/1/4 335/1/4 338/1/4
f 335/4/4 336/4/4 339/4/4
f 338/1/4 335/1/4 339/1/4
f 339/4/4 336/4/4 340/4/4
f 341/2/4 342/2/4 343/2/4
f 343/2/4 342/2/4 344/2/4
f 347/3/5 346/3/5 345/3/5
f 348/3/5 346/3/5 347/3/5
f 351/3/5 350/3/5 349/3/5
f 352/3/5 350/3/5 351/3/5
f 355/3/5 354/3/5 353/3/5
f 356/3/5 354/3/5 355/3/5
f 359/3/5 358/3/5 357/3/5
f 360/3/5 358/3/5 359/3/5
f 363/3/5 362/3/5 361/3/5
f 364/3/5 362/3/5 363/3/5
f 368/1/5 366/1/5 365/1/5
f 369/1/5 366/1/5 368/1/5
f 371/1/5 368/1/5 367/1/5
f 371/1/5 370/1/5 369/1/5
f 371/1/5 369/1/5 368/1/5
f 372/1/5 370/1/5 371/1/5
f 373/1/5 370/1/5 372/1/5
f 374/1/5 370/1/5 373/1/5
f 375/1/5 373/1/5 372/1/5
f 376/1/5 373/1/5 375/1/5
f 379/1/5 378/1/5 377/1/5
f 380/1/5 378/1/5 379/1/5
f 383/3/5 382/3/5 381/3/5
f 384/3/5 382/3/5 383/3/5
f 387/1/5 386/1/5 385/1/5
f 388/1/5 386/1/5 387/1/5
f 392/3/5 391/3/5 390/3/5
f 393/3/5 391/3/5 392/3/5
f 394/1/5 388/1/5 387/1/5
f 395/3/5 389/3/5 388/3/5
f 395/1/5 388/1/5 394/1/5
f 396/3/5 389/3/5 395/3/5
f 397/1/5 395/1/5 394/1/5
f 398/1/5 395/1/5 397/1/5
f 401/2/5 400/2/5 399/2/5
f 402/2/5 400/2/5 401/2/5
f 405/2/5 404/2/5 403/2/5
f 406/2/5 404/2/5 405/2/5
f 409/4/5 408/4/5 407/4/5
f 410/4/5 408/4/5 409/4/5
f 413/2/5 412/2/5 411/2/5
f 414/2/5 412/2/5 413/2/5
f 417/2/5 416/2/5 415/2/5
f 418/2/5 416/2/5 417/2/5
f 419/1/6 420/1/6 422/1/6
f 420/2/6 421/2/6 423/2/6
f 422/1/6 420/1/6 423/1/6
f 422/2/6 423/2/6 425/2/6
f 424/2/6 425/2/6 426/2/6
f 425/2/6 423/2/6 427/2/6
f 426/2/6 425/2/6 427/2/6
f 427/2/6 423/2/6 428/2/6
f 423/2/6 421/2/6 429/2/6
f 428/2/6 423/2/6 429/2/6
f 428/1/6 429/1/6 430/1/6
f 429/2/6 421/2/6 431/2/6
f 430/1/6 429/1/6 431/1/6
f 431/2/6 421/2/6 432/2/6
f 433/3/6 434/3/6 437/3/6
f 437/3/6 434/3/6 438/3/6
f 435/3/6 436/3/6 440/3/6
f 440/3/6 436/3/6 441/3/6
f 437/3/6 438/3/6 442/3/6
f 438/4/6 439/4/6 443/4/6
f 442/3/6 438/3/6 443/3/6
f 443/4/6 439/4/6 444/4/6
f 442/3/6 443/3/6 445/3/6
f 445/3/6 443/3/6 446/3/6
f 447/2/6 448/2/6 449/2/6
f 449/2/6 448/2/6 450/2/6
f 450/2/6 448/2/6 451/2/6
f 452/4/6 453/4/6 454/4/6
f 454/4/6 453/4/6 455/4/6
f 456/4/6 457/4/6 461/4/6
f 461/4/6 457/4/6 462/4/6
f 459/2/6 460/2/6 463/2/6
f 458/2/6 459/2/6 463/2/6
f 463/2/6 460/2/6 464/2/6
f 465/2/6 466/2/6 469/2/6
f 466/1/6 467/1/6 470/1/6
f 469/2/6 466/2/6 470/2/6
f 467/2/6 468/2/6 471/2/6
f 470/1/6 467/1/6 471/1/6
f 471/2/6 468/2/6 472/2/6
f 469/1/6 470/1/6 478/1/6
f 470/1/6 471/1/6 478/1/6
f 471/1/6 472/1/6 478/1/6
f 472/1/6 473/1/6 478/1/6
f 478/1/6 473/1/6 479/1/6
f 479/1/6 473/1/6 480/1/6
f 480/1/6 473/1/6 481/1/6
f 474/3/6 475/3/6 482/3/6
f 482/3/6 475/3/6 483/3/6
f 476/2/6 477/2/6 484/2/6
f 484/2/6 477/2/6 485/2/6
f 478/2/6 479/2/6 486/2/6
f 479/1/6 480/1/6 487/1/6
f 486/2/6 479/2/6 487/2/6
f 480/3/6 481/3/6 488/3/6
f 487/1/6 480/1/6 488/1/6
f 488/3/6 481/3/6 489/3/6
f 488/1/6 489/1/6 490/1/6
f 487/1/6 488/1/6 490/1/6
f 486/1/6 487/1/6 490/1/6
f 490/1/6 489/1/6 491/1/6
f 491/1/6 489/1/6 492/1/6
f 492/1/6 489/1/6 493/1/6
f 493/1/6 489/1/6 494/1/6
f 490/2/6 491/2/6 495/2/6
f 491/1/6 492/1/6 496/1/6
f 495/2/6 491/2/6 496/2/6
f 492/2/6 493/2/6 497/2/6
f 496/1/6 492/1/6 497/1/6
f 497/2/6 493/2/6 498/2/6
f 499/3/6 500/3/6 501/3/6
f 501/3/6 500/3/6 502/3/6
