# MagicaVoxel @ Ephtracy

# group
g Tiny Tree 5

# material
mtllib Tiny Tree 5.mtl
usemtl palette

# normals
vn -1 0 0
vn 1 0 0
vn 0 0 1
vn 0 0 -1
vn 0 -1 0
vn 0 1 0

# texcoords
vt 0.310547 0.5
vt 0.583984 0.5
vt 0.595703 0.5
vt 0.626953 0.5

# verts
v -3 3 -0
v -3 3 -1
v -3 4 1
v -3 4 -0
v -3 4 -1
v -3 5 1
v -3 5 -1
v -2 3 1
v -2 3 -0
v -2 3 -1
v -2 3 -2
v -2 4 1
v -2 4 -0
v -2 4 -1
v -2 5 -0
v -2 5 -1
v -2 5 -2
v -2 6 -0
v -2 6 -1
v -1 0 -0
v -1 0 -1
v -1 1 -0
v -1 1 -1
v -1 2 1
v -1 2 -0
v -1 2 -1
v -1 3 2
v -1 3 1
v -1 3 -0
v -1 3 -1
v -1 3 -2
v -1 3 -3
v -1 4 2
v -1 4 1
v -1 5 -1
v -1 5 -2
v -1 5 -3
v -1 6 -1
v -1 6 -2
v 0 1 -0
v 0 1 -1
v 0 2 -0
v 0 2 -1
v 0 4 2
v 0 4 1
v 0 5 2
v 0 5 1
v 0 2 1
v 0 2 -0
v 0 3 1
v 0 3 -0
v 0 4 -2
v 0 4 -3
v 0 5 -1
v 0 5 -2
v 0 5 -3
v 0 6 -1
v 0 6 -2
v 1 0 -0
v 1 0 -1
v 1 2 -0
v 1 2 -1
v 1 3 2
v 1 3 1
v 1 3 -2
v 1 3 -3
v 1 4 2
v 1 4 1
v 1 4 -0
v 1 4 -1
v 1 4 -2
v 1 4 -3
v 1 5 2
v 1 5 1
v 1 5 -0
v 1 5 -1
v 1 6 -0
v 1 6 -1
v 2 2 -0
v 2 2 -1
v 2 3 1
v 2 3 -0
v 2 3 -1
v 2 3 -2
v 2 4 1
v 2 4 -0
v 2 4 -1
v 2 4 -2
v 2 5 -1
v 2 5 -2
v -1 3 2
v -1 4 2
v 0 4 2
v 0 5 2
v 1 3 2
v 1 4 2
v 1 5 2
v -3 4 1
v -3 5 1
v -2 3 1
v -2 4 1
v -2 5 1
v -1 2 1
v -1 3 1
v -1 4 1
v -1 5 1
v 0 2 1
v 0 3 1
v 0 4 1
v 0 5 1
v 1 3 1
v 1 4 1
v 2 3 1
v 2 4 1
v -3 3 -0
v -3 4 -0
v -2 3 -0
v -2 4 -0
v -2 5 -0
v -2 6 -0
v -1 0 -0
v -1 1 -0
v -1 5 -0
v -1 6 -0
v 0 1 -0
v 0 2 -0
v 0 3 -0
v 0 5 -0
v 0 6 -0
v 1 0 -0
v 1 2 -0
v 1 3 -0
v 1 5 -0
v 1 6 -0
v 2 2 -0
v 2 3 -0
v 1 4 -1
v 1 5 -1
v 2 4 -1
v 2 5 -1
v -3 3 -1
v -3 4 -1
v -3 5 -1
v -2 3 -1
v -2 4 -1
v -2 5 -1
v -2 6 -1
v -1 0 -1
v -1 1 -1
v -1 2 -1
v -1 3 -1
v -1 5 -1
v -1 6 -1
v 0 1 -1
v 0 2 -1
v 0 5 -1
v 0 6 -1
v 1 0 -1
v 1 2 -1
v 1 3 -1
v 1 5 -1
v 1 6 -1
v 2 2 -1
v 2 3 -1
v -2 3 -2
v -2 5 -2
v -1 3 -2
v -1 5 -2
v -1 6 -2
v 0 4 -2
v 0 5 -2
v 0 6 -2
v 1 3 -2
v 1 4 -2
v 1 5 -2
v 2 3 -2
v 2 4 -2
v 2 5 -2
v -1 3 -3
v -1 5 -3
v 0 4 -3
v 0 5 -3
v 1 3 -3
v 1 4 -3
v -1 0 -0
v 1 0 -0
v -1 0 -1
v 1 0 -1
v -1 2 1
v 0 2 1
v -1 2 -0
v 0 2 -0
v 1 2 -0
v 2 2 -0
v -1 2 -1
v 0 2 -1
v 1 2 -1
v 2 2 -1
v -1 3 2
v 1 3 2
v -2 3 1
v -1 3 1
v 0 3 1
v 1 3 1
v 2 3 1
v -3 3 -0
v -2 3 -0
v -1 3 -0
v 0 3 -0
v 1 3 -0
v 2 3 -0
v -3 3 -1
v -2 3 -1
v -1 3 -1
v 1 3 -1
v 2 3 -1
v -2 3 -2
v -1 3 -2
v 1 3 -2
v 2 3 -2
v -1 3 -3
v 1 3 -3
v -3 4 1
v -2 4 1
v -3 4 -0
v -2 4 -0
v -1 1 -0
v 0 1 -0
v -1 1 -1
v 0 1 -1
v -1 4 2
v 0 4 2
v -1 4 1
v 0 4 1
v 1 4 1
v 2 4 1
v 1 4 -0
v 2 4 -0
v 1 4 -1
v 2 4 -1
v 0 4 -2
v 1 4 -2
v 0 4 -3
v 1 4 -3
v 0 5 2
v 1 5 2
v -3 5 1
v -2 5 1
v -1 5 1
v 0 5 1
v 1 5 1
v -2 5 -0
v -1 5 -0
v 0 5 -0
v 1 5 -0
v -3 5 -1
v -2 5 -1
v -1 5 -1
v 0 5 -1
v 1 5 -1
v 2 5 -1
v -2 5 -2
v -1 5 -2
v 0 5 -2
v 1 5 -2
v 2 5 -2
v -1 5 -3
v 0 5 -3
v -2 6 -0
v -1 6 -0
v 0 6 -0
v 1 6 -0
v -2 6 -1
v -1 6 -1
v 0 6 -1
v 1 6 -1
v -1 6 -2
v 0 6 -2

# faces
f 4/3/1 2/3/1 1/3/1
f 5/3/1 2/3/1 4/3/1
f 6/2/1 4/2/1 3/2/1
f 6/2/1 5/2/1 4/2/1
f 7/2/1 5/2/1 6/2/1
f 12/2/1 9/2/1 8/2/1
f 13/2/1 9/2/1 12/2/1
f 14/4/1 11/4/1 10/4/1
f 16/4/1 11/4/1 14/4/1
f 17/4/1 11/4/1 16/4/1
f 18/2/1 16/2/1 15/2/1
f 19/2/1 16/2/1 18/2/1
f 22/1/1 21/1/1 20/1/1
f 23/1/1 21/1/1 22/1/1
f 28/4/1 25/4/1 24/4/1
f 29/1/1 26/1/1 25/1/1
f 29/4/1 25/4/1 28/4/1
f 30/1/1 26/1/1 29/1/1
f 33/3/1 28/3/1 27/3/1
f 34/3/1 28/3/1 33/3/1
f 36/2/1 32/2/1 31/2/1
f 37/2/1 32/2/1 36/2/1
f 38/3/1 36/3/1 35/3/1
f 39/3/1 36/3/1 38/3/1
f 42/1/1 41/1/1 40/1/1
f 43/1/1 41/1/1 42/1/1
f 46/2/1 45/2/1 44/2/1
f 47/2/1 45/2/1 46/2/1
f 48/4/2 49/4/2 50/4/2
f 50/4/2 49/4/2 51/4/2
f 52/2/2 53/2/2 55/2/2
f 55/2/2 53/2/2 56/2/2
f 54/3/2 55/3/2 57/3/2
f 57/3/2 55/3/2 58/3/2
f 59/1/2 60/1/2 61/1/2
f 61/1/2 60/1/2 62/1/2
f 63/3/2 64/3/2 67/3/2
f 67/3/2 64/3/2 68/3/2
f 65/2/2 66/2/2 71/2/2
f 71/2/2 66/2/2 72/2/2
f 67/2/2 68/2/2 73/2/2
f 68/4/2 69/4/2 74/4/2
f 73/2/2 68/2/2 74/2/2
f 69/2/2 70/2/2 75/2/2
f 74/4/2 69/4/2 75/4/2
f 75/2/2 70/2/2 76/2/2
f 75/3/2 76/3/2 77/3/2
f 77/3/2 76/3/2 78/3/2
f 79/3/2 80/3/2 82/3/2
f 82/3/2 80/3/2 83/3/2
f 81/3/2 82/3/2 85/3/2
f 82/2/2 83/2/2 86/2/2
f 85/3/2 82/3/2 86/3/2
f 83/3/2 84/3/2 87/3/2
f 86/2/2 83/2/2 87/2/2
f 87/3/2 84/3/2 88/3/2
f 87/2/2 88/2/2 89/2/2
f 89/2/2 88/2/2 90/2/2
f 93/3/3 92/3/3 91/3/3
f 95/3/3 93/3/3 91/3/3
f 96/2/3 94/2/3 93/2/3
f 96/3/3 93/3/3 95/3/3
f 97/2/3 94/2/3 96/2/3
f 101/2/3 99/2/3 98/2/3
f 102/2/3 99/2/3 101/2/3
f 104/2/3 101/2/3 100/2/3
f 105/3/3 102/3/3 101/3/3
f 105/2/3 101/2/3 104/2/3
f 106/3/3 102/3/3 105/3/3
f 107/4/3 104/4/3 103/4/3
f 108/4/3 104/4/3 107/4/3
f 109/4/3 106/4/3 105/4/3
f 110/4/3 106/4/3 109/4/3
f 113/3/3 112/3/3 111/3/3
f 114/3/3 112/3/3 113/3/3
f 117/3/3 116/3/3 115/3/3
f 118/3/3 116/3/3 117/3/3
f 123/2/3 120/2/3 119/2/3
f 124/2/3 120/2/3 123/2/3
f 125/1/3 122/1/3 121/1/3
f 128/4/3 124/4/3 123/4/3
f 129/4/3 124/4/3 128/4/3
f 130/1/3 127/1/3 126/1/3
f 130/1/3 125/1/3 121/1/3
f 130/1/3 126/1/3 125/1/3
f 131/1/3 127/1/3 130/1/3
f 132/1/3 127/1/3 131/1/3
f 133/3/3 129/3/3 128/3/3
f 134/3/3 129/3/3 133/3/3
f 135/3/3 132/3/3 131/3/3
f 136/3/3 132/3/3 135/3/3
f 139/2/3 138/2/3 137/2/3
f 140/2/3 138/2/3 139/2/3
f 141/3/4 142/3/4 144/3/4
f 142/2/4 143/2/4 145/2/4
f 144/3/4 142/3/4 145/3/4
f 145/2/4 143/2/4 146/2/4
f 146/2/4 147/2/4 152/2/4
f 152/2/4 147/2/4 153/2/4
f 148/1/4 149/1/4 154/1/4
f 150/1/4 151/1/4 155/1/4
f 148/1/4 154/1/4 158/1/4
f 154/1/4 155/1/4 158/1/4
f 155/1/4 151/1/4 159/1/4
f 158/1/4 155/1/4 159/1/4
f 159/1/4 151/1/4 160/1/4
f 156/3/4 157/3/4 161/3/4
f 161/3/4 157/3/4 162/3/4
f 159/3/4 160/3/4 163/3/4
f 163/3/4 160/3/4 164/3/4
f 165/4/4 166/4/4 167/4/4
f 167/4/4 166/4/4 168/4/4
f 168/3/4 169/3/4 171/3/4
f 171/3/4 169/3/4 172/3/4
f 170/4/4 171/4/4 174/4/4
f 174/4/4 171/4/4 175/4/4
f 173/3/4 174/3/4 176/3/4
f 174/2/4 175/2/4 177/2/4
f 176/3/4 174/3/4 177/3/4
f 177/2/4 175/2/4 178/2/4
f 179/2/4 180/2/4 181/2/4
f 181/2/4 180/2/4 182/2/4
f 179/2/4 181/2/4 183/2/4
f 183/2/4 181/2/4 184/2/4
f 187/1/5 186/1/5 185/1/5
f 188/1/5 186/1/5 187/1/5
f 191/4/5 190/4/5 189/4/5
f 192/4/5 190/4/5 191/4/5
f 195/1/5 192/1/5 191/1/5
f 196/1/5 192/1/5 195/1/5
f 197/3/5 194/3/5 193/3/5
f 198/3/5 194/3/5 197/3/5
f 202/3/5 200/3/5 199/3/5
f 203/3/5 200/3/5 202/3/5
f 204/3/5 200/3/5 203/3/5
f 207/2/5 202/2/5 201/2/5
f 208/2/5 202/2/5 207/2/5
f 209/1/5 204/1/5 203/1/5
f 210/3/5 205/3/5 204/3/5
f 210/1/5 204/1/5 209/1/5
f 211/3/5 205/3/5 210/3/5
f 212/3/5 207/3/5 206/3/5
f 213/1/5 208/1/5 207/1/5
f 213/3/5 207/3/5 212/3/5
f 214/1/5 208/1/5 213/1/5
f 217/4/5 214/4/5 213/4/5
f 218/1/5 215/1/5 214/1/5
f 218/4/5 214/4/5 217/4/5
f 219/3/5 216/3/5 215/3/5
f 219/1/5 215/1/5 218/1/5
f 220/3/5 216/3/5 219/3/5
f 221/2/5 219/2/5 218/2/5
f 222/2/5 219/2/5 221/2/5
f 225/2/5 224/2/5 223/2/5
f 226/2/5 224/2/5 225/2/5
f 227/1/6 228/1/6 229/1/6
f 229/1/6 228/1/6 230/1/6
f 231/3/6 232/3/6 233/3/6
f 233/3/6 232/3/6 234/3/6
f 235/3/6 236/3/6 237/3/6
f 237/3/6 236/3/6 238/3/6
f 237/2/6 238/2/6 239/2/6
f 239/2/6 238/2/6 240/2/6
f 241/2/6 242/2/6 243/2/6
f 243/2/6 242/2/6 244/2/6
f 245/2/6 246/2/6 250/2/6
f 250/2/6 246/2/6 251/2/6
f 248/3/6 249/3/6 252/3/6
f 247/2/6 248/2/6 252/2/6
f 250/4/6 251/4/6 253/4/6
f 252/3/6 249/3/6 253/3/6
f 249/4/6 250/4/6 253/4/6
f 253/4/6 251/4/6 254/4/6
f 254/4/6 251/4/6 255/4/6
f 247/2/6 252/2/6 256/2/6
f 256/2/6 252/2/6 257/2/6
f 257/4/6 258/4/6 262/4/6
f 262/4/6 258/4/6 263/4/6
f 259/4/6 260/4/6 264/4/6
f 260/2/6 261/2/6 265/2/6
f 264/4/6 260/4/6 265/4/6
f 265/2/6 261/2/6 266/2/6
f 263/2/6 264/2/6 267/2/6
f 267/2/6 264/2/6 268/2/6
f 269/2/6 270/2/6 273/2/6
f 270/4/6 271/4/6 274/4/6
f 273/2/6 270/2/6 274/2/6
f 271/3/6 272/3/6 275/3/6
f 274/4/6 271/4/6 275/4/6
f 275/3/6 272/3/6 276/3/6
f 274/3/6 275/3/6 277/3/6
f 277/3/6 275/3/6 278/3/6
