# MagicaVoxel @ Ephtracy

# group
g Bork 7

# material
mtllib Bork 7.mtl
usemtl palette

# normals
vn -1 0 0
vn 1 0 0
vn 0 0 1
vn 0 0 -1
vn 0 -1 0
vn 0 1 0

# texcoords
vt 0.0292969 0.5
vt 0.0644531 0.5
vt 0.958984 0.5

# verts
v -7 2 1
v -7 2 -0
v -7 3 2
v -7 3 1
v -7 3 -0
v -7 3 -1
v -7 5 2
v -7 5 -1
v -6 0 3
v -6 0 1
v -6 0 -0
v -6 0 -2
v -6 1 2
v -6 1 1
v -6 1 -0
v -6 1 -1
v -6 2 1
v -6 2 -0
v -6 3 2
v -6 3 1
v -6 3 -0
v -6 3 -1
v -6 5 3
v -6 5 2
v -6 5 -1
v -6 5 -2
v 2 3 4
v 2 3 3
v 2 3 -2
v 2 3 -3
v 2 4 3
v 2 4 -2
v 2 5 3
v 2 5 -2
v 2 8 4
v 2 8 3
v 2 8 1
v 2 8 -0
v 2 8 -2
v 2 8 -3
v 2 9 3
v 2 9 1
v 2 9 -0
v 2 9 -2
v 3 0 3
v 3 0 1
v 3 0 -0
v 3 0 -2
v 3 1 3
v 3 1 2
v 3 1 1
v 3 1 -0
v 3 1 -1
v 3 1 -2
v 6 5 2
v 6 5 1
v 6 5 -0
v 6 5 -1
v 6 6 2
v 6 6 1
v 6 6 -0
v 6 6 -1
v -4 0 3
v -4 0 1
v -4 0 -0
v -4 0 -2
v -4 1 3
v -4 1 2
v -4 1 1
v -4 1 -0
v -4 1 -1
v -4 1 -2
v 5 0 3
v 5 0 1
v 5 0 -0
v 5 0 -2
v 5 1 1
v 5 1 -0
v 5 3 3
v 5 3 -2
v 5 6 3
v 5 6 -2
v 6 3 4
v 6 3 3
v 6 3 -2
v 6 3 -3
v 6 6 3
v 6 6 2
v 6 6 -1
v 6 6 -2
v 6 7 3
v 6 7 2
v 6 7 1
v 6 7 -0
v 6 7 -1
v 6 7 -2
v 6 8 4
v 6 8 3
v 6 8 2
v 6 8 1
v 6 8 -0
v 6 8 -1
v 6 8 -2
v 6 8 -3
v 6 9 3
v 6 9 1
v 6 9 -0
v 6 9 -2
v 8 5 2
v 8 5 1
v 8 5 -0
v 8 5 -1
v 8 6 1
v 8 6 -0
v 8 7 2
v 8 7 1
v 8 7 -0
v 8 7 -1
v 9 7 1
v 9 7 -0
v 9 8 1
v 9 8 -0
v 2 3 4
v 2 8 4
v 6 3 4
v 6 8 4
v -6 0 3
v -6 5 3
v -4 0 3
v -4 1 3
v -4 3 3
v -4 5 3
v -3 1 3
v -3 2 3
v -2 2 3
v -2 3 3
v -1 1 3
v -1 2 3
v 0 2 3
v 0 3 3
v 1 3 3
v 1 4 3
v 2 3 3
v 2 4 3
v 2 5 3
v 2 8 3
v 2 9 3
v 3 0 3
v 3 1 3
v 5 0 3
v 5 3 3
v 6 8 3
v 6 9 3
v -7 3 2
v -7 5 2
v -6 3 2
v -6 5 2
v 6 5 2
v 6 6 2
v 6 7 2
v 8 5 2
v 8 7 2
v -7 2 1
v -7 3 1
v -6 2 1
v -6 3 1
v 6 7 1
v 6 8 1
v 8 7 1
v 8 8 1
v 9 7 1
v 9 8 1
v -6 0 -0
v -6 1 -0
v -4 0 -0
v -4 1 -0
v 3 0 -0
v 3 1 -0
v 4 1 -0
v 5 0 -0
v 5 1 -0
v 6 5 -0
v 6 6 -0
v 8 5 -0
v 8 6 -0
v 5 3 -2
v 5 6 -2
v 6 3 -2
v 6 6 -2
v 5 3 3
v 5 6 3
v 6 3 3
v 6 6 3
v -6 0 1
v -6 1 1
v -4 0 1
v -4 1 1
v 3 0 1
v 3 1 1
v 4 1 1
v 5 0 1
v 5 1 1
v 6 5 1
v 6 6 1
v 8 5 1
v 8 6 1
v -7 2 -0
v -7 3 -0
v -6 2 -0
v -6 3 -0
v 6 7 -0
v 6 8 -0
v 8 7 -0
v 8 8 -0
v 9 7 -0
v 9 8 -0
v -7 3 -1
v -7 5 -1
v -6 3 -1
v -6 5 -1
v 6 5 -1
v 6 6 -1
v 6 7 -1
v 8 5 -1
v 8 7 -1
v -6 0 -2
v -6 5 -2
v -4 0 -2
v -4 1 -2
v -4 3 -2
v -4 5 -2
v -3 1 -2
v -3 2 -2
v -2 2 -2
v -2 3 -2
v -1 1 -2
v -1 2 -2
v 0 2 -2
v 0 3 -2
v 1 3 -2
v 1 4 -2
v 2 3 -2
v 2 4 -2
v 2 5 -2
v 2 8 -2
v 2 9 -2
v 3 0 -2
v 3 1 -2
v 5 0 -2
v 5 3 -2
v 6 8 -2
v 6 9 -2
v 2 3 -3
v 2 8 -3
v 6 3 -3
v 6 8 -3
v -6 0 3
v -4 0 3
v 3 0 3
v 5 0 3
v -6 0 1
v -4 0 1
v 3 0 1
v 5 0 1
v -6 0 -0
v -4 0 -0
v 3 0 -0
v 5 0 -0
v -6 0 -2
v -4 0 -2
v 3 0 -2
v 5 0 -2
v -4 1 3
v -3 1 3
v -1 1 3
v 3 1 3
v -4 1 2
v -3 1 2
v -1 1 2
v 3 1 2
v -6 1 1
v -4 1 1
v 3 1 1
v 4 1 1
v 5 1 1
v -6 1 -0
v -4 1 -0
v 3 1 -0
v 4 1 -0
v 5 1 -0
v -4 1 -1
v -3 1 -1
v -1 1 -1
v 3 1 -1
v -4 1 -2
v -3 1 -2
v -1 1 -2
v 3 1 -2
v -7 2 1
v -6 2 1
v -7 2 -0
v -6 2 -0
v 2 3 4
v 6 3 4
v 2 3 3
v 5 3 3
v 6 3 3
v -7 3 2
v -6 3 2
v -7 3 1
v -6 3 1
v -7 3 -0
v -6 3 -0
v -7 3 -1
v -6 3 -1
v 2 3 -2
v 5 3 -2
v 6 3 -2
v 2 3 -3
v 6 3 -3
v 6 5 2
v 8 5 2
v 6 5 1
v 8 5 1
v 6 5 -0
v 8 5 -0
v 6 5 -1
v 8 5 -1
v 5 6 3
v 6 6 3
v 6 6 2
v 6 6 1
v 8 6 1
v 6 6 -0
v 8 6 -0
v 6 6 -1
v 5 6 -2
v 6 6 -2
v 8 7 1
v 9 7 1
v 8 7 -0
v 9 7 -0
v -6 5 3
v -4 5 3
v 2 5 3
v -7 5 2
v -6 5 2
v -5 5 2
v -4 5 2
v -7 5 -1
v -6 5 -1
v -5 5 -1
v -4 5 -1
v -6 5 -2
v -4 5 -2
v 2 5 -2
v 6 7 2
v 8 7 2
v 6 7 1
v 8 7 1
v 6 7 -0
v 8 7 -0
v 6 7 -1
v 8 7 -1
v 2 8 4
v 6 8 4
v 2 8 3
v 6 8 3
v 6 8 1
v 8 8 1
v 9 8 1
v 6 8 -0
v 8 8 -0
v 9 8 -0
v 2 8 -2
v 6 8 -2
v 2 8 -3
v 6 8 -3
v 2 9 3
v 6 9 3
v 2 9 1
v 6 9 1
v 2 9 -0
v 6 9 -0
v 2 9 -2
v 6 9 -2

# faces
f 4/2/1 2/2/1 1/2/1
f 5/2/1 2/2/1 4/2/1
f 7/2/1 4/2/1 3/2/1
f 7/2/1 6/2/1 5/2/1
f 7/2/1 5/2/1 4/2/1
f 8/2/1 6/2/1 7/2/1
f 13/3/1 10/3/1 9/3/1
f 14/3/1 10/3/1 13/3/1
f 15/3/1 12/3/1 11/3/1
f 16/3/1 12/3/1 15/3/1
f 17/2/1 14/2/1 13/2/1
f 17/2/1 15/2/1 14/2/1
f 17/2/1 16/2/1 15/2/1
f 18/2/1 16/2/1 17/2/1
f 19/3/1 13/3/1 9/3/1
f 19/2/1 17/2/1 13/2/1
f 20/2/1 17/2/1 19/2/1
f 21/2/1 16/2/1 18/2/1
f 22/3/1 12/3/1 16/3/1
f 22/2/1 16/2/1 21/2/1
f 23/3/1 19/3/1 9/3/1
f 24/3/1 19/3/1 23/3/1
f 25/3/1 12/3/1 22/3/1
f 26/3/1 12/3/1 25/3/1
f 31/2/1 28/2/1 27/2/1
f 32/2/1 30/2/1 29/2/1
f 33/2/1 31/2/1 27/2/1
f 34/2/1 30/2/1 32/2/1
f 35/2/1 33/2/1 27/2/1
f 35/2/1 34/2/1 33/2/1
f 36/2/1 34/2/1 35/2/1
f 37/2/1 34/2/1 36/2/1
f 38/2/1 34/2/1 37/2/1
f 39/2/1 30/2/1 34/2/1
f 39/2/1 34/2/1 38/2/1
f 40/2/1 30/2/1 39/2/1
f 41/2/1 37/2/1 36/2/1
f 42/3/1 38/3/1 37/3/1
f 42/2/1 37/2/1 41/2/1
f 43/2/1 39/2/1 38/2/1
f 43/3/1 38/3/1 42/3/1
f 44/2/1 39/2/1 43/2/1
f 49/3/1 46/3/1 45/3/1
f 50/3/1 46/3/1 49/3/1
f 51/3/1 46/3/1 50/3/1
f 52/3/1 48/3/1 47/3/1
f 53/3/1 48/3/1 52/3/1
f 54/3/1 48/3/1 53/3/1
f 59/3/1 56/3/1 55/3/1
f 60/3/1 56/3/1 59/3/1
f 61/3/1 58/3/1 57/3/1
f 62/3/1 58/3/1 61/3/1
f 63/3/2 64/3/2 67/3/2
f 67/3/2 64/3/2 68/3/2
f 68/3/2 64/3/2 69/3/2
f 65/3/2 66/3/2 70/3/2
f 70/3/2 66/3/2 71/3/2
f 71/3/2 66/3/2 72/3/2
f 73/3/2 74/3/2 77/3/2
f 75/3/2 76/3/2 78/3/2
f 73/3/2 77/3/2 79/3/2
f 77/3/2 78/3/2 79/3/2
f 78/3/2 76/3/2 80/3/2
f 79/3/2 78/3/2 80/3/2
f 79/3/2 80/3/2 81/3/2
f 81/3/2 80/3/2 82/3/2
f 83/2/2 84/2/2 87/2/2
f 85/2/2 86/2/2 90/2/2
f 87/2/2 88/2/2 91/2/2
f 83/2/2 87/2/2 91/2/2
f 91/2/2 88/2/2 92/2/2
f 89/2/2 90/2/2 95/2/2
f 90/2/2 86/2/2 96/2/2
f 95/2/2 90/2/2 96/2/2
f 83/2/2 91/2/2 97/2/2
f 91/1/2 92/1/2 98/1/2
f 97/2/2 91/2/2 98/2/2
f 92/2/2 93/2/2 99/2/2
f 98/1/2 92/1/2 99/1/2
f 99/2/2 93/2/2 100/2/2
f 94/2/2 95/2/2 101/2/2
f 95/1/2 96/1/2 102/1/2
f 101/2/2 95/2/2 102/2/2
f 96/2/2 86/2/2 103/2/2
f 102/1/2 96/1/2 103/1/2
f 103/2/2 86/2/2 104/2/2
f 99/2/2 100/2/2 105/2/2
f 98/2/2 99/2/2 105/2/2
f 100/3/2 101/3/2 106/3/2
f 105/2/2 100/2/2 106/2/2
f 102/2/2 103/2/2 107/2/2
f 106/3/2 101/3/2 107/3/2
f 101/2/2 102/2/2 107/2/2
f 107/2/2 103/2/2 108/2/2
f 109/3/2 110/3/2 113/3/2
f 111/3/2 112/3/2 114/3/2
f 109/3/2 113/3/2 115/3/2
f 113/3/2 114/3/2 115/3/2
f 115/3/2 114/3/2 116/3/2
f 114/3/2 112/3/2 117/3/2
f 116/3/2 114/3/2 117/3/2
f 117/3/2 112/3/2 118/3/2
f 119/1/2 120/1/2 121/1/2
f 121/1/2 120/1/2 122/1/2
f 125/2/3 124/2/3 123/2/3
f 126/2/3 124/2/3 125/2/3
f 129/3/3 128/3/3 127/3/3
f 130/3/3 128/3/3 129/3/3
f 131/3/3 128/3/3 130/3/3
f 132/3/3 128/3/3 131/3/3
f 133/3/3 131/3/3 130/3/3
f 134/3/3 131/3/3 133/3/3
f 135/2/3 134/2/3 133/2/3
f 135/3/3 131/3/3 134/3/3
f 136/2/3 132/2/3 131/2/3
f 136/3/3 131/3/3 135/3/3
f 137/2/3 135/2/3 133/2/3
f 137/2/3 136/2/3 135/2/3
f 138/2/3 136/2/3 137/2/3
f 139/3/3 138/3/3 137/3/3
f 139/2/3 136/2/3 138/2/3
f 140/2/3 132/2/3 136/2/3
f 140/2/3 136/2/3 139/2/3
f 141/3/3 140/3/3 139/3/3
f 141/2/3 132/2/3 140/2/3
f 142/2/3 132/2/3 141/2/3
f 143/3/3 141/3/3 139/3/3
f 143/3/3 142/3/3 141/3/3
f 144/2/3 132/2/3 142/2/3
f 144/3/3 142/3/3 143/3/3
f 145/2/3 132/2/3 144/2/3
f 149/3/3 139/3/3 137/3/3
f 149/3/3 143/3/3 139/3/3
f 150/3/3 149/3/3 148/3/3
f 151/3/3 143/3/3 149/3/3
f 151/3/3 149/3/3 150/3/3
f 152/2/3 147/2/3 146/2/3
f 153/2/3 147/2/3 152/2/3
f 156/2/3 155/2/3 154/2/3
f 157/2/3 155/2/3 156/2/3
f 161/3/3 159/3/3 158/3/3
f 161/3/3 160/3/3 159/3/3
f 162/3/3 160/3/3 161/3/3
f 165/2/3 164/2/3 163/2/3
f 166/2/3 164/2/3 165/2/3
f 169/3/3 168/3/3 167/3/3
f 170/3/3 168/3/3 169/3/3
f 171/1/3 170/1/3 169/1/3
f 172/1/3 170/1/3 171/1/3
f 175/3/3 174/3/3 173/3/3
f 176/3/3 174/3/3 175/3/3
f 179/3/3 178/3/3 177/3/3
f 180/3/3 179/3/3 177/3/3
f 181/3/3 179/3/3 180/3/3
f 184/3/3 183/3/3 182/3/3
f 185/3/3 183/3/3 184/3/3
f 188/2/3 187/2/3 186/2/3
f 189/2/3 187/2/3 188/2/3
f 190/2/4 191/2/4 192/2/4
f 192/2/4 191/2/4 193/2/4
f 194/3/4 195/3/4 196/3/4
f 196/3/4 195/3/4 197/3/4
f 198/3/4 199/3/4 200/3/4
f 198/3/4 200/3/4 201/3/4
f 201/3/4 200/3/4 202/3/4
f 203/3/4 204/3/4 205/3/4
f 205/3/4 204/3/4 206/3/4
f 207/2/4 208/2/4 209/2/4
f 209/2/4 208/2/4 210/2/4
f 211/3/4 212/3/4 213/3/4
f 213/3/4 212/3/4 214/3/4
f 213/1/4 214/1/4 215/1/4
f 215/1/4 214/1/4 216/1/4
f 217/2/4 218/2/4 219/2/4
f 219/2/4 218/2/4 220/2/4
f 221/3/4 222/3/4 224/3/4
f 222/3/4 223/3/4 224/3/4
f 224/3/4 223/3/4 225/3/4
f 226/3/4 227/3/4 228/3/4
f 228/3/4 227/3/4 229/3/4
f 229/3/4 227/3/4 230/3/4
f 230/3/4 227/3/4 231/3/4
f 229/3/4 230/3/4 232/3/4
f 232/3/4 230/3/4 233/3/4
f 232/2/4 233/2/4 234/2/4
f 233/3/4 230/3/4 234/3/4
f 230/2/4 231/2/4 235/2/4
f 234/3/4 230/3/4 235/3/4
f 232/2/4 234/2/4 236/2/4
f 234/2/4 235/2/4 236/2/4
f 236/2/4 235/2/4 237/2/4
f 236/3/4 237/3/4 238/3/4
f 237/2/4 235/2/4 238/2/4
f 235/2/4 231/2/4 239/2/4
f 238/2/4 235/2/4 239/2/4
f 238/3/4 239/3/4 240/3/4
f 239/2/4 231/2/4 240/2/4
f 240/2/4 231/2/4 241/2/4
f 238/3/4 240/3/4 242/3/4
f 240/3/4 241/3/4 242/3/4
f 241/2/4 231/2/4 243/2/4
f 242/3/4 241/3/4 243/3/4
f 243/2/4 231/2/4 244/2/4
f 236/3/4 238/3/4 248/3/4
f 238/3/4 242/3/4 248/3/4
f 247/3/4 248/3/4 249/3/4
f 248/3/4 242/3/4 250/3/4
f 249/3/4 248/3/4 250/3/4
f 245/2/4 246/2/4 251/2/4
f 251/2/4 246/2/4 252/2/4
f 253/2/4 254/2/4 255/2/4
f 255/2/4 254/2/4 256/2/4
f 261/3/5 258/3/5 257/3/5
f 262/3/5 258/3/5 261/3/5
f 263/3/5 260/3/5 259/3/5
f 264/3/5 260/3/5 263/3/5
f 269/3/5 266/3/5 265/3/5
f 270/3/5 266/3/5 269/3/5
f 271/3/5 268/3/5 267/3/5
f 272/3/5 268/3/5 271/3/5
f 277/3/5 274/3/5 273/3/5
f 278/2/5 275/2/5 274/2/5
f 278/3/5 274/3/5 277/3/5
f 279/3/5 276/3/5 275/3/5
f 279/2/5 275/2/5 278/2/5
f 280/3/5 276/3/5 279/3/5
f 282/2/5 278/2/5 277/2/5
f 282/2/5 279/2/5 278/2/5
f 282/2/5 280/2/5 279/2/5
f 283/2/5 280/2/5 282/2/5
f 286/2/5 283/2/5 282/2/5
f 286/2/5 282/2/5 281/2/5
f 286/2/5 284/2/5 283/2/5
f 287/2/5 284/2/5 286/2/5
f 288/2/5 284/2/5 287/2/5
f 289/3/5 285/3/5 284/3/5
f 289/2/5 284/2/5 288/2/5
f 290/3/5 285/3/5 289/3/5
f 291/2/5 288/2/5 287/2/5
f 292/2/5 288/2/5 291/2/5
f 293/2/5 288/2/5 292/2/5
f 294/2/5 288/2/5 293/2/5
f 295/3/5 292/3/5 291/3/5
f 296/2/5 293/2/5 292/2/5
f 296/3/5 292/3/5 295/3/5
f 297/3/5 294/3/5 293/3/5
f 297/2/5 293/2/5 296/2/5
f 298/3/5 294/3/5 297/3/5
f 301/2/5 300/2/5 299/2/5
f 302/2/5 300/2/5 301/2/5
f 305/2/5 304/2/5 303/2/5
f 306/2/5 304/2/5 305/2/5
f 307/2/5 304/2/5 306/2/5
f 310/2/5 309/2/5 308/2/5
f 311/2/5 309/2/5 310/2/5
f 314/2/5 313/2/5 312/2/5
f 315/2/5 313/2/5 314/2/5
f 319/2/5 317/2/5 316/2/5
f 319/2/5 318/2/5 317/2/5
f 320/2/5 318/2/5 319/2/5
f 323/3/5 322/3/5 321/3/5
f 324/3/5 322/3/5 323/3/5
f 327/3/5 326/3/5 325/3/5
f 328/3/5 326/3/5 327/3/5
f 331/2/5 330/2/5 329/2/5
f 332/2/5 331/2/5 329/2/5
f 334/2/5 332/2/5 329/2/5
f 334/3/5 333/3/5 332/3/5
f 335/3/5 333/3/5 334/3/5
f 336/2/5 334/2/5 329/2/5
f 337/2/5 336/2/5 329/2/5
f 338/2/5 336/2/5 337/2/5
f 341/1/5 340/1/5 339/1/5
f 342/1/5 340/1/5 341/1/5
f 343/3/6 344/3/6 347/3/6
f 347/3/6 344/3/6 348/3/6
f 344/2/6 345/2/6 349/2/6
f 348/3/6 344/3/6 349/3/6
f 346/2/6 347/2/6 350/2/6
f 347/3/6 348/3/6 351/3/6
f 350/2/6 347/2/6 351/2/6
f 348/2/6 349/2/6 352/2/6
f 351/3/6 348/3/6 352/3/6
f 349/2/6 345/2/6 353/2/6
f 352/2/6 349/2/6 353/2/6
f 351/3/6 352/3/6 354/3/6
f 352/3/6 353/3/6 354/3/6
f 353/2/6 345/2/6 355/2/6
f 354/3/6 353/3/6 355/3/6
f 355/2/6 345/2/6 356/2/6
f 357/3/6 358/3/6 359/3/6
f 359/3/6 358/3/6 360/3/6
f 361/3/6 362/3/6 363/3/6
f 363/3/6 362/3/6 364/3/6
f 365/2/6 366/2/6 367/2/6
f 367/2/6 366/2/6 368/2/6
f 369/3/6 370/3/6 372/3/6
f 370/1/6 371/1/6 373/1/6
f 372/3/6 370/3/6 373/3/6
f 373/1/6 371/1/6 374/1/6
f 375/2/6 376/2/6 377/2/6
f 377/2/6 376/2/6 378/2/6
f 379/2/6 380/2/6 381/2/6
f 381/2/6 380/2/6 382/2/6
f 381/3/6 382/3/6 383/3/6
f 383/3/6 382/3/6 384/3/6
f 383/2/6 384/2/6 385/2/6
f 385/2/6 384/2/6 386/2/6
