# MagicaVoxel @ Ephtracy

# group
g Bork 1

# material
mtllib Bork 1.mtl
usemtl palette

# normals
vn -1 0 0
vn 1 0 0
vn 0 0 1
vn 0 0 -1
vn 0 -1 0
vn 0 1 0

# texcoords
vt 0.0644531 0.5
vt 0.958984 0.5
vt 0.994141 0.5

# verts
v -7 7 1
v -7 7 -0
v -7 10 1
v -7 10 -0
v -6 6 1
v -6 6 -0
v -6 7 1
v -6 7 -0
v -6 10 1
v -6 10 -0
v -6 12 1
v -6 12 -0
v -5 5 1
v -5 5 -0
v -5 6 1
v -5 6 -0
v -5 12 1
v -5 12 -0
v -5 13 1
v -5 13 -0
v -4 0 3
v -4 0 1
v -4 0 -0
v -4 0 -2
v -4 2 3
v -4 2 1
v -4 2 -0
v -4 2 -2
v -4 4 1
v -4 4 -0
v -4 5 1
v -4 5 -0
v -4 8 3
v -4 8 1
v -4 8 -0
v -4 8 -2
v 2 8 4
v 2 8 3
v 2 8 -2
v 2 8 -3
v 2 11 4
v 2 11 3
v 2 11 -2
v 2 11 -3
v 2 12 3
v 2 12 -2
v 3 0 3
v 3 0 1
v 3 0 -0
v 3 0 -2
v 3 2 3
v 3 2 1
v 3 2 -0
v 3 2 -2
v 3 4 3
v 3 4 1
v 3 4 -0
v 3 4 -2
v 4 3 1
v 4 3 -0
v 4 4 1
v 4 4 -0
v -5 8 1
v -5 8 -0
v -5 10 1
v -5 10 -0
v -4 10 1
v -4 10 -0
v -4 11 1
v -4 11 -0
v -3 12 1
v -3 12 -0
v -3 13 1
v -3 13 -0
v -2 0 3
v -2 0 1
v -2 0 -0
v -2 0 -2
v -2 2 3
v -2 2 1
v -2 2 -0
v -2 2 -2
v -2 4 3
v -2 4 1
v -2 4 -0
v -2 4 -2
v -2 11 1
v -2 11 -0
v -2 12 1
v -2 12 -0
v 4 8 4
v 4 8 3
v 4 8 -2
v 4 8 -3
v 4 11 4
v 4 11 3
v 4 11 -2
v 4 11 -3
v 5 0 3
v 5 0 1
v 5 0 -0
v 5 0 -2
v 5 2 3
v 5 2 1
v 5 2 -0
v 5 2 -2
v 5 3 1
v 5 3 -0
v 5 5 2
v 5 5 1
v 5 5 -0
v 5 5 -1
v 5 8 3
v 5 8 2
v 5 8 -1
v 5 8 -2
v 5 11 3
v 5 11 2
v 5 11 -1
v 5 11 -2
v 5 12 3
v 5 12 2
v 5 12 -1
v 5 12 -2
v 6 8 3
v 6 8 2
v 6 8 -1
v 6 8 -2
v 6 10 3
v 6 10 2
v 6 10 1
v 6 10 -0
v 6 10 -1
v 6 10 -2
v 6 11 3
v 6 11 2
v 6 11 -1
v 6 11 -2
v 6 12 2
v 6 12 1
v 6 12 -0
v 6 12 -1
v 8 8 2
v 8 8 -1
v 8 9 1
v 8 9 -0
v 8 10 2
v 8 10 1
v 8 10 -0
v 8 10 -1
v 9 9 1
v 9 9 -0
v 9 10 1
v 9 10 -0
v 2 8 4
v 2 11 4
v 4 8 4
v 4 11 4
v -4 0 3
v -4 2 3
v -4 8 3
v -2 0 3
v -2 2 3
v -2 4 3
v 2 8 3
v 2 11 3
v 2 12 3
v 3 0 3
v 3 2 3
v 3 4 3
v 4 8 3
v 4 11 3
v 5 0 3
v 5 2 3
v 5 8 3
v 5 10 3
v 5 11 3
v 5 12 3
v 6 8 3
v 6 10 3
v 6 11 3
v 5 11 2
v 5 12 2
v 6 8 2
v 6 10 2
v 6 11 2
v 6 12 2
v 8 8 2
v 8 10 2
v -7 7 1
v -7 10 1
v -6 6 1
v -6 7 1
v -6 10 1
v -6 12 1
v -5 5 1
v -5 6 1
v -5 8 1
v -5 10 1
v -5 12 1
v -5 13 1
v -4 5 1
v -4 8 1
v -4 10 1
v -4 11 1
v -3 12 1
v -3 13 1
v -2 11 1
v -2 12 1
v 8 9 1
v 8 10 1
v 9 9 1
v 9 10 1
v -4 0 -0
v -4 2 -0
v -4 4 -0
v -2 0 -0
v -2 2 -0
v -2 4 -0
v 3 0 -0
v 3 2 -0
v 3 4 -0
v 4 3 -0
v 4 4 -0
v 5 0 -0
v 5 2 -0
v 5 3 -0
v -4 0 1
v -4 2 1
v -4 4 1
v -2 0 1
v -2 2 1
v -2 4 1
v 3 0 1
v 3 2 1
v 3 4 1
v 4 3 1
v 4 4 1
v 5 0 1
v 5 2 1
v 5 3 1
v -7 7 -0
v -7 10 -0
v -6 6 -0
v -6 7 -0
v -6 10 -0
v -6 12 -0
v -5 5 -0
v -5 6 -0
v -5 8 -0
v -5 10 -0
v -5 12 -0
v -5 13 -0
v -4 5 -0
v -4 8 -0
v -4 10 -0
v -4 11 -0
v -3 12 -0
v -3 13 -0
v -2 11 -0
v -2 12 -0
v 8 9 -0
v 8 10 -0
v 9 9 -0
v 9 10 -0
v 5 11 -1
v 5 12 -1
v 6 8 -1
v 6 10 -1
v 6 11 -1
v 6 12 -1
v 8 8 -1
v 8 10 -1
v -4 0 -2
v -4 2 -2
v -4 8 -2
v -2 0 -2
v -2 2 -2
v -2 4 -2
v 2 8 -2
v 2 11 -2
v 2 12 -2
v 3 0 -2
v 3 2 -2
v 3 4 -2
v 4 8 -2
v 4 11 -2
v 5 0 -2
v 5 2 -2
v 5 8 -2
v 5 10 -2
v 5 11 -2
v 5 12 -2
v 6 8 -2
v 6 10 -2
v 6 11 -2
v 2 8 -3
v 2 11 -3
v 4 8 -3
v 4 11 -3
v -4 0 3
v -2 0 3
v 3 0 3
v 5 0 3
v -4 0 1
v -2 0 1
v 3 0 1
v 5 0 1
v -4 0 -0
v -2 0 -0
v 3 0 -0
v 5 0 -0
v -4 0 -2
v -2 0 -2
v 3 0 -2
v 5 0 -2
v 4 3 1
v 5 3 1
v 4 3 -0
v 5 3 -0
v -2 4 3
v 3 4 3
v -4 4 1
v -2 4 1
v 3 4 1
v 4 4 1
v -4 4 -0
v -2 4 -0
v 3 4 -0
v 4 4 -0
v -2 4 -2
v 3 4 -2
v -5 5 1
v -4 5 1
v -5 5 -0
v -4 5 -0
v -6 6 1
v -5 6 1
v -6 6 -0
v -5 6 -0
v -7 7 1
v -6 7 1
v -7 7 -0
v -6 7 -0
v 2 8 4
v 4 8 4
v 2 8 3
v 4 8 3
v 5 8 3
v 6 8 3
v 5 8 2
v 6 8 2
v 8 8 2
v 5 8 -1
v 6 8 -1
v 8 8 -1
v 2 8 -2
v 4 8 -2
v 5 8 -2
v 6 8 -2
v 2 8 -3
v 4 8 -3
v 8 9 1
v 9 9 1
v 8 9 -0
v 9 9 -0
v -5 10 1
v -4 10 1
v -5 10 -0
v -4 10 -0
v -4 11 1
v -2 11 1
v -4 11 -0
v -2 11 -0
v -4 8 3
v 2 8 3
v -5 8 1
v -4 8 1
v -5 8 -0
v -4 8 -0
v -4 8 -2
v 2 8 -2
v 6 10 2
v 8 10 2
v -7 10 1
v -6 10 1
v 6 10 1
v 8 10 1
v 9 10 1
v -7 10 -0
v -6 10 -0
v 6 10 -0
v 8 10 -0
v 9 10 -0
v 6 10 -1
v 8 10 -1
v 2 11 4
v 4 11 4
v 2 11 3
v 4 11 3
v 5 11 3
v 6 11 3
v 5 11 2
v 6 11 2
v 5 11 -1
v 6 11 -1
v 2 11 -2
v 4 11 -2
v 5 11 -2
v 6 11 -2
v 2 11 -3
v 4 11 -3
v 2 12 3
v 5 12 3
v 5 12 2
v 6 12 2
v -6 12 1
v -5 12 1
v -3 12 1
v -2 12 1
v 5 12 1
v 6 12 1
v -6 12 -0
v -5 12 -0
v -3 12 -0
v -2 12 -0
v 5 12 -0
v 6 12 -0
v 5 12 -1
v 6 12 -1
v 2 12 -2
v 5 12 -2
v -5 13 1
v -3 13 1
v -5 13 -0
v -3 13 -0

# faces
f 3/1/1 2/1/1 1/1/1
f 4/1/1 2/1/1 3/1/1
f 7/1/1 6/1/1 5/1/1
f 8/1/1 6/1/1 7/1/1
f 11/1/1 10/1/1 9/1/1
f 12/1/1 10/1/1 11/1/1
f 15/1/1 14/1/1 13/1/1
f 16/1/1 14/1/1 15/1/1
f 19/1/1 18/1/1 17/1/1
f 20/1/1 18/1/1 19/1/1
f 25/2/1 22/2/1 21/2/1
f 26/2/1 22/2/1 25/2/1
f 27/2/1 24/2/1 23/2/1
f 28/2/1 24/2/1 27/2/1
f 29/1/1 26/1/1 25/1/1
f 30/1/1 28/1/1 27/1/1
f 31/1/1 29/1/1 25/1/1
f 31/1/1 30/1/1 29/1/1
f 32/1/1 28/1/1 30/1/1
f 32/1/1 30/1/1 31/1/1
f 33/1/1 31/1/1 25/1/1
f 34/1/1 31/1/1 33/1/1
f 35/1/1 28/1/1 32/1/1
f 36/1/1 28/1/1 35/1/1
f 41/1/1 38/1/1 37/1/1
f 41/1/1 40/1/1 39/1/1
f 41/1/1 39/1/1 38/1/1
f 42/1/1 40/1/1 41/1/1
f 43/1/1 40/1/1 42/1/1
f 44/1/1 40/1/1 43/1/1
f 45/1/1 43/1/1 42/1/1
f 46/1/1 43/1/1 45/1/1
f 51/2/1 48/2/1 47/2/1
f 52/2/1 48/2/1 51/2/1
f 53/2/1 50/2/1 49/2/1
f 54/2/1 50/2/1 53/2/1
f 55/1/1 52/1/1 51/1/1
f 56/1/1 52/1/1 55/1/1
f 57/1/1 54/1/1 53/1/1
f 58/1/1 54/1/1 57/1/1
f 61/2/1 60/2/1 59/2/1
f 62/2/1 60/2/1 61/2/1
f 63/1/2 64/1/2 65/1/2
f 65/1/2 64/1/2 66/1/2
f 67/1/2 68/1/2 69/1/2
f 69/1/2 68/1/2 70/1/2
f 71/1/2 72/1/2 73/1/2
f 73/1/2 72/1/2 74/1/2
f 75/2/2 76/2/2 79/2/2
f 79/2/2 76/2/2 80/2/2
f 77/2/2 78/2/2 81/2/2
f 81/2/2 78/2/2 82/2/2
f 79/1/2 80/1/2 83/1/2
f 83/1/2 80/1/2 84/1/2
f 81/1/2 82/1/2 85/1/2
f 85/1/2 82/1/2 86/1/2
f 87/1/2 88/1/2 89/1/2
f 89/1/2 88/1/2 90/1/2
f 91/1/2 92/1/2 95/1/2
f 95/1/2 92/1/2 96/1/2
f 93/1/2 94/1/2 97/1/2
f 97/1/2 94/1/2 98/1/2
f 99/2/2 100/2/2 103/2/2
f 103/2/2 100/2/2 104/2/2
f 101/2/2 102/2/2 105/2/2
f 105/2/2 102/2/2 106/2/2
f 103/1/2 104/1/2 107/1/2
f 105/1/2 106/1/2 108/1/2
f 103/1/2 107/1/2 109/1/2
f 107/2/2 108/2/2 110/2/2
f 109/1/2 107/1/2 110/1/2
f 108/1/2 106/1/2 111/1/2
f 110/2/2 108/2/2 111/2/2
f 111/1/2 106/1/2 112/1/2
f 103/1/2 109/1/2 113/1/2
f 109/2/2 110/2/2 114/2/2
f 113/1/2 109/1/2 114/1/2
f 110/2/2 111/2/2 114/2/2
f 111/2/2 112/2/2 114/2/2
f 112/1/2 106/1/2 115/1/2
f 114/2/2 112/2/2 115/2/2
f 115/1/2 106/1/2 116/1/2
f 117/1/2 118/1/2 121/1/2
f 121/1/2 118/1/2 122/1/2
f 119/1/2 120/1/2 123/1/2
f 123/1/2 120/1/2 124/1/2
f 125/1/2 126/1/2 129/1/2
f 129/1/2 126/1/2 130/1/2
f 127/1/2 128/1/2 133/1/2
f 133/1/2 128/1/2 134/1/2
f 129/3/2 130/3/2 135/3/2
f 130/1/2 131/1/2 136/1/2
f 135/3/2 130/3/2 136/3/2
f 132/1/2 133/1/2 137/1/2
f 133/3/2 134/3/2 137/3/2
f 137/3/2 134/3/2 138/3/2
f 136/1/2 131/1/2 139/1/2
f 131/2/2 132/2/2 140/2/2
f 139/1/2 131/1/2 140/1/2
f 132/1/2 137/1/2 141/1/2
f 140/2/2 132/2/2 141/2/2
f 141/1/2 137/1/2 142/1/2
f 143/2/2 144/2/2 145/2/2
f 145/2/2 144/2/2 146/2/2
f 143/2/2 145/2/2 147/2/2
f 147/2/2 145/2/2 148/2/2
f 146/2/2 144/2/2 149/2/2
f 149/2/2 144/2/2 150/2/2
f 151/3/2 152/3/2 153/3/2
f 153/3/2 152/3/2 154/3/2
f 157/1/3 156/1/3 155/1/3
f 158/1/3 156/1/3 157/1/3
f 162/2/3 160/2/3 159/2/3
f 163/1/3 161/1/3 160/1/3
f 163/2/3 160/2/3 162/2/3
f 164/1/3 161/1/3 163/1/3
f 165/1/3 161/1/3 164/1/3
f 170/1/3 165/1/3 164/1/3
f 171/1/3 165/1/3 170/1/3
f 171/1/3 170/1/3 169/1/3
f 172/1/3 167/1/3 166/1/3
f 173/2/3 169/2/3 168/2/3
f 174/1/3 172/1/3 171/1/3
f 174/2/3 169/2/3 173/2/3
f 174/1/3 171/1/3 169/1/3
f 175/1/3 172/1/3 174/1/3
f 176/1/3 172/1/3 175/1/3
f 177/1/3 167/1/3 172/1/3
f 177/1/3 172/1/3 176/1/3
f 178/1/3 167/1/3 177/1/3
f 179/1/3 176/1/3 175/1/3
f 180/3/3 177/3/3 176/3/3
f 180/1/3 176/1/3 179/1/3
f 181/3/3 177/3/3 180/3/3
f 186/1/3 183/1/3 182/1/3
f 187/1/3 183/1/3 186/1/3
f 188/2/3 185/2/3 184/2/3
f 189/2/3 185/2/3 188/2/3
f 193/1/3 191/1/3 190/1/3
f 194/1/3 191/1/3 193/1/3
f 197/1/3 193/1/3 192/1/3
f 197/1/3 195/1/3 194/1/3
f 197/1/3 194/1/3 193/1/3
f 198/1/3 195/1/3 197/1/3
f 199/1/3 195/1/3 198/1/3
f 200/1/3 195/1/3 199/1/3
f 202/1/3 197/1/3 196/1/3
f 202/1/3 198/1/3 197/1/3
f 203/1/3 198/1/3 202/1/3
f 204/1/3 201/1/3 200/1/3
f 204/1/3 200/1/3 199/1/3
f 205/1/3 201/1/3 204/1/3
f 206/1/3 201/1/3 205/1/3
f 207/1/3 201/1/3 206/1/3
f 208/1/3 206/1/3 205/1/3
f 209/1/3 206/1/3 208/1/3
f 212/3/3 211/3/3 210/3/3
f 213/3/3 211/3/3 212/3/3
f 217/2/3 215/2/3 214/2/3
f 218/1/3 216/1/3 215/1/3
f 218/2/3 215/2/3 217/2/3
f 219/1/3 216/1/3 218/1/3
f 223/1/3 222/1/3 221/1/3
f 224/1/3 222/1/3 223/1/3
f 225/2/3 221/2/3 220/2/3
f 226/1/3 223/1/3 221/1/3
f 226/2/3 221/2/3 225/2/3
f 227/1/3 223/1/3 226/1/3
f 228/2/4 229/2/4 231/2/4
f 229/1/4 230/1/4 232/1/4
f 231/2/4 229/2/4 232/2/4
f 232/1/4 230/1/4 233/1/4
f 235/1/4 236/1/4 237/1/4
f 237/1/4 236/1/4 238/1/4
f 234/2/4 235/2/4 239/2/4
f 235/1/4 237/1/4 240/1/4
f 239/2/4 235/2/4 240/2/4
f 240/1/4 237/1/4 241/1/4
f 242/1/4 243/1/4 245/1/4
f 245/1/4 243/1/4 246/1/4
f 244/1/4 245/1/4 249/1/4
f 246/1/4 247/1/4 249/1/4
f 245/1/4 246/1/4 249/1/4
f 249/1/4 247/1/4 250/1/4
f 250/1/4 247/1/4 251/1/4
f 251/1/4 247/1/4 252/1/4
f 248/1/4 249/1/4 254/1/4
f 249/1/4 250/1/4 254/1/4
f 254/1/4 250/1/4 255/1/4
f 252/1/4 253/1/4 256/1/4
f 251/1/4 252/1/4 256/1/4
f 256/1/4 253/1/4 257/1/4
f 257/1/4 253/1/4 258/1/4
f 258/1/4 253/1/4 259/1/4
f 257/1/4 258/1/4 260/1/4
f 260/1/4 258/1/4 261/1/4
f 262/3/4 263/3/4 264/3/4
f 264/3/4 263/3/4 265/3/4
f 266/1/4 267/1/4 270/1/4
f 270/1/4 267/1/4 271/1/4
f 268/2/4 269/2/4 272/2/4
f 272/2/4 269/2/4 273/2/4
f 274/2/4 275/2/4 277/2/4
f 275/1/4 276/1/4 278/1/4
f 277/2/4 275/2/4 278/2/4
f 278/1/4 276/1/4 279/1/4
f 279/1/4 276/1/4 280/1/4
f 279/1/4 280/1/4 285/1/4
f 285/1/4 280/1/4 286/1/4
f 284/1/4 285/1/4 286/1/4
f 281/1/4 282/1/4 287/1/4
f 283/2/4 284/2/4 288/2/4
f 286/1/4 287/1/4 289/1/4
f 288/2/4 284/2/4 289/2/4
f 284/1/4 286/1/4 289/1/4
f 289/1/4 287/1/4 290/1/4
f 290/1/4 287/1/4 291/1/4
f 287/1/4 282/1/4 292/1/4
f 291/1/4 287/1/4 292/1/4
f 292/1/4 282/1/4 293/1/4
f 290/1/4 291/1/4 294/1/4
f 291/3/4 292/3/4 295/3/4
f 294/1/4 291/1/4 295/1/4
f 295/3/4 292/3/4 296/3/4
f 297/1/4 298/1/4 299/1/4
f 299/1/4 298/1/4 300/1/4
f 305/2/5 302/2/5 301/2/5
f 306/2/5 302/2/5 305/2/5
f 307/2/5 304/2/5 303/2/5
f 308/2/5 304/2/5 307/2/5
f 313/2/5 310/2/5 309/2/5
f 314/2/5 310/2/5 313/2/5
f 315/2/5 312/2/5 311/2/5
f 316/2/5 312/2/5 315/2/5
f 319/2/5 318/2/5 317/2/5
f 320/2/5 318/2/5 319/2/5
f 324/1/5 322/1/5 321/1/5
f 325/1/5 322/1/5 324/1/5
f 327/1/5 324/1/5 323/1/5
f 327/1/5 326/1/5 325/1/5
f 327/1/5 325/1/5 324/1/5
f 328/1/5 326/1/5 327/1/5
f 329/1/5 326/1/5 328/1/5
f 330/1/5 326/1/5 329/1/5
f 331/1/5 329/1/5 328/1/5
f 332/1/5 329/1/5 331/1/5
f 335/1/5 334/1/5 333/1/5
f 336/1/5 334/1/5 335/1/5
f 339/1/5 338/1/5 337/1/5
f 340/1/5 338/1/5 339/1/5
f 343/1/5 342/1/5 341/1/5
f 344/1/5 342/1/5 343/1/5
f 347/1/5 346/1/5 345/1/5
f 348/1/5 346/1/5 347/1/5
f 351/1/5 350/1/5 349/1/5
f 352/1/5 350/1/5 351/1/5
f 354/1/5 352/1/5 351/1/5
f 355/2/5 353/2/5 352/2/5
f 355/1/5 352/1/5 354/1/5
f 356/2/5 353/2/5 355/2/5
f 359/1/5 355/1/5 354/1/5
f 360/1/5 355/1/5 359/1/5
f 361/1/5 358/1/5 357/1/5
f 362/1/5 358/1/5 361/1/5
f 365/3/5 364/3/5 363/3/5
f 366/3/5 364/3/5 365/3/5
f 369/1/5 368/1/5 367/1/5
f 370/1/5 368/1/5 369/1/5
f 373/1/5 372/1/5 371/1/5
f 374/1/5 372/1/5 373/1/5
f 375/1/6 376/1/6 378/1/6
f 377/1/6 378/1/6 379/1/6
f 378/1/6 376/1/6 380/1/6
f 379/1/6 378/1/6 380/1/6
f 380/1/6 376/1/6 381/1/6
f 381/1/6 376/1/6 382/1/6
f 383/2/6 384/2/6 387/2/6
f 387/2/6 384/2/6 388/2/6
f 385/1/6 386/1/6 390/1/6
f 390/1/6 386/1/6 391/1/6
f 387/2/6 388/2/6 392/2/6
f 388/3/6 389/3/6 393/3/6
f 392/2/6 388/2/6 393/2/6
f 393/3/6 389/3/6 394/3/6
f 392/2/6 393/2/6 395/2/6
f 395/2/6 393/2/6 396/2/6
f 397/1/6 398/1/6 399/1/6
f 399/1/6 398/1/6 400/1/6
f 401/3/6 402/3/6 403/3/6
f 403/3/6 402/3/6 404/3/6
f 405/3/6 406/3/6 409/3/6
f 409/3/6 406/3/6 410/3/6
f 407/1/6 408/1/6 411/1/6
f 411/1/6 408/1/6 412/1/6
f 413/1/6 414/1/6 415/1/6
f 413/1/6 415/1/6 421/1/6
f 415/1/6 416/1/6 421/1/6
f 421/1/6 416/1/6 422/1/6
f 417/1/6 418/1/6 423/1/6
f 423/1/6 418/1/6 424/1/6
f 419/1/6 420/1/6 425/1/6
f 425/1/6 420/1/6 426/1/6
f 413/1/6 421/1/6 427/1/6
f 421/2/6 422/2/6 427/2/6
f 427/2/6 422/2/6 428/2/6
f 427/1/6 428/1/6 429/1/6
f 413/1/6 427/1/6 429/1/6
f 429/1/6 428/1/6 430/1/6
f 413/1/6 429/1/6 431/1/6
f 431/1/6 429/1/6 432/1/6
f 433/1/6 434/1/6 435/1/6
f 435/1/6 434/1/6 436/1/6
