# MagicaVoxel @ Ephtracy

# group
g Bork 8

# material
mtllib Bork 8.mtl
usemtl palette

# normals
vn -1 0 0
vn 1 0 0
vn 0 0 1
vn 0 0 -1
vn 0 -1 0
vn 0 1 0

# texcoords
vt 0.0644531 0.5
vt 0.0683594 0.5
vt 0.958984 0.5
vt 0.994141 0.5

# verts
v -7 7 1
v -7 7 -0
v -7 10 1
v -7 10 -0
v -6 6 1
v -6 6 -0
v -6 7 1
v -6 7 -0
v -6 10 1
v -6 10 -0
v -6 12 1
v -6 12 -0
v -5 5 1
v -5 5 -0
v -5 6 1
v -5 6 -0
v -5 12 1
v -5 12 -0
v -5 13 1
v -5 13 -0
v -4 0 3
v -4 0 1
v -4 0 -0
v -4 0 -2
v -4 2 3
v -4 2 1
v -4 2 -0
v -4 2 -2
v -4 4 1
v -4 4 -0
v -4 5 1
v -4 5 -0
v -4 7 2
v -4 7 1
v -4 7 -0
v -4 7 -1
v -4 8 3
v -4 8 2
v -4 8 1
v -4 8 -0
v -4 8 -1
v -4 8 -2
v 2 8 4
v 2 8 3
v 2 8 -2
v 2 8 -3
v 2 11 4
v 2 11 3
v 2 11 2
v 2 11 1
v 2 11 -0
v 2 11 -1
v 2 11 -2
v 2 11 -3
v 2 12 3
v 2 12 2
v 2 12 1
v 2 12 -0
v 2 12 -1
v 2 12 -2
v 3 0 3
v 3 0 1
v 3 0 -0
v 3 0 -2
v 3 2 3
v 3 2 1
v 3 2 -0
v 3 2 -2
v 3 4 3
v 3 4 1
v 3 4 -0
v 3 4 -2
v 4 3 1
v 4 3 -0
v 4 4 1
v 4 4 -0
v -5 8 1
v -5 8 -0
v -5 10 1
v -5 10 -0
v -4 10 1
v -4 10 -0
v -4 11 1
v -4 11 -0
v -3 12 1
v -3 12 -0
v -3 13 1
v -3 13 -0
v -2 0 3
v -2 0 1
v -2 0 -0
v -2 0 -2
v -2 2 3
v -2 2 1
v -2 2 -0
v -2 2 -2
v -2 4 3
v -2 4 1
v -2 4 -0
v -2 4 -2
v -2 11 1
v -2 11 -0
v -2 12 1
v -2 12 -0
v 4 8 4
v 4 8 3
v 4 8 -2
v 4 8 -3
v 4 11 4
v 4 11 3
v 4 11 -2
v 4 11 -3
v 5 0 3
v 5 0 1
v 5 0 -0
v 5 0 -2
v 5 2 3
v 5 2 1
v 5 2 -0
v 5 2 -2
v 5 3 1
v 5 3 -0
v 5 4 2
v 5 4 1
v 5 4 -0
v 5 4 -1
v 5 7 3
v 5 7 2
v 5 7 -1
v 5 7 -2
v 5 11 3
v 5 11 2
v 5 11 -1
v 5 11 -2
v 5 12 3
v 5 12 2
v 5 12 -1
v 5 12 -2
v 6 7 3
v 6 7 2
v 6 7 -1
v 6 7 -2
v 6 10 3
v 6 10 2
v 6 10 1
v 6 10 -0
v 6 10 -1
v 6 10 -2
v 6 11 3
v 6 11 2
v 6 11 -1
v 6 11 -2
v 6 12 2
v 6 12 1
v 6 12 -0
v 6 12 -1
v 8 7 2
v 8 7 -1
v 8 9 1
v 8 9 -0
v 8 10 2
v 8 10 1
v 8 10 -0
v 8 10 -1
v 9 9 1
v 9 9 -0
v 9 10 1
v 9 10 -0
v 2 8 4
v 2 11 4
v 4 8 4
v 4 11 4
v -4 0 3
v -4 2 3
v -4 8 3
v -3 7 3
v -3 8 3
v -2 0 3
v -2 2 3
v -2 4 3
v -2 6 3
v -2 7 3
v -1 5 3
v -1 6 3
v 0 5 3
v 0 6 3
v 1 6 3
v 1 7 3
v 2 7 3
v 2 8 3
v 2 11 3
v 2 12 3
v 3 0 3
v 3 2 3
v 3 4 3
v 3 11 3
v 3 12 3
v 4 8 3
v 4 11 3
v 4 12 3
v 5 0 3
v 5 2 3
v 5 7 3
v 5 10 3
v 5 11 3
v 5 12 3
v 6 7 3
v 6 10 3
v 6 11 3
v 5 11 2
v 5 12 2
v 6 7 2
v 6 10 2
v 6 11 2
v 6 12 2
v 8 7 2
v 8 10 2
v -7 7 1
v -7 10 1
v -6 6 1
v -6 7 1
v -6 10 1
v -6 12 1
v -5 5 1
v -5 6 1
v -5 7 1
v -5 8 1
v -5 10 1
v -5 12 1
v -5 13 1
v -4 5 1
v -4 7 1
v -4 8 1
v -4 10 1
v -4 11 1
v -3 12 1
v -3 13 1
v -2 11 1
v -2 12 1
v 8 9 1
v 8 10 1
v 9 9 1
v 9 10 1
v -4 0 -0
v -4 2 -0
v -4 4 -0
v -2 0 -0
v -2 2 -0
v -2 4 -0
v 3 0 -0
v 3 2 -0
v 3 4 -0
v 4 3 -0
v 4 4 -0
v 5 0 -0
v 5 2 -0
v 5 3 -0
v -4 0 1
v -4 2 1
v -4 4 1
v -2 0 1
v -2 2 1
v -2 4 1
v 3 0 1
v 3 2 1
v 3 4 1
v 4 3 1
v 4 4 1
v 5 0 1
v 5 2 1
v 5 3 1
v -7 7 -0
v -7 10 -0
v -6 6 -0
v -6 7 -0
v -6 10 -0
v -6 12 -0
v -5 5 -0
v -5 6 -0
v -5 7 -0
v -5 8 -0
v -5 10 -0
v -5 12 -0
v -5 13 -0
v -4 5 -0
v -4 7 -0
v -4 8 -0
v -4 10 -0
v -4 11 -0
v -3 12 -0
v -3 13 -0
v -2 11 -0
v -2 12 -0
v 8 9 -0
v 8 10 -0
v 9 9 -0
v 9 10 -0
v 5 11 -1
v 5 12 -1
v 6 7 -1
v 6 10 -1
v 6 11 -1
v 6 12 -1
v 8 7 -1
v 8 10 -1
v -4 0 -2
v -4 2 -2
v -4 8 -2
v -3 7 -2
v -3 8 -2
v -2 0 -2
v -2 2 -2
v -2 4 -2
v -2 6 -2
v -2 7 -2
v -1 5 -2
v -1 6 -2
v 0 5 -2
v 0 6 -2
v 1 6 -2
v 1 7 -2
v 2 7 -2
v 2 8 -2
v 2 11 -2
v 2 12 -2
v 3 0 -2
v 3 2 -2
v 3 4 -2
v 3 11 -2
v 3 12 -2
v 4 8 -2
v 4 11 -2
v 4 12 -2
v 5 0 -2
v 5 2 -2
v 5 7 -2
v 5 10 -2
v 5 11 -2
v 5 12 -2
v 6 7 -2
v 6 10 -2
v 6 11 -2
v 2 8 -3
v 2 11 -3
v 4 8 -3
v 4 11 -3
v -4 0 3
v -2 0 3
v 3 0 3
v 5 0 3
v -4 0 1
v -2 0 1
v 3 0 1
v 5 0 1
v -4 0 -0
v -2 0 -0
v 3 0 -0
v 5 0 -0
v -4 0 -2
v -2 0 -2
v 3 0 -2
v 5 0 -2
v 4 3 1
v 5 3 1
v 4 3 -0
v 5 3 -0
v -2 4 3
v 3 4 3
v -4 4 1
v -2 4 1
v 3 4 1
v 4 4 1
v -4 4 -0
v -2 4 -0
v 3 4 -0
v 4 4 -0
v -2 4 -2
v 3 4 -2
v -5 5 1
v -4 5 1
v -5 5 -0
v -4 5 -0
v -6 6 1
v -5 6 1
v -6 6 -0
v -5 6 -0
v 5 7 3
v 6 7 3
v 5 7 2
v 6 7 2
v 8 7 2
v -7 7 1
v -6 7 1
v -7 7 -0
v -6 7 -0
v 5 7 -1
v 6 7 -1
v 8 7 -1
v 5 7 -2
v 6 7 -2
v 2 8 4
v 4 8 4
v 2 8 3
v 4 8 3
v 2 8 -2
v 4 8 -2
v 2 8 -3
v 4 8 -3
v 8 9 1
v 9 9 1
v 8 9 -0
v 9 9 -0
v -5 10 1
v -4 10 1
v -5 10 -0
v -4 10 -0
v -4 11 1
v -2 11 1
v -4 11 -0
v -2 11 -0
v -4 8 3
v -3 8 3
v 2 8 3
v -4 8 2
v -3 8 2
v -5 8 1
v -4 8 1
v -5 8 -0
v -4 8 -0
v -4 8 -1
v -3 8 -1
v -4 8 -2
v -3 8 -2
v 2 8 -2
v 6 10 2
v 8 10 2
v -7 10 1
v -6 10 1
v 6 10 1
v 8 10 1
v 9 10 1
v -7 10 -0
v -6 10 -0
v 6 10 -0
v 8 10 -0
v 9 10 -0
v 6 10 -1
v 8 10 -1
v 2 11 4
v 4 11 4
v 2 11 3
v 3 11 3
v 4 11 3
v 5 11 3
v 6 11 3
v 5 11 2
v 6 11 2
v 5 11 -1
v 6 11 -1
v 2 11 -2
v 3 11 -2
v 4 11 -2
v 5 11 -2
v 6 11 -2
v 2 11 -3
v 4 11 -3
v 2 12 3
v 3 12 3
v 4 12 3
v 5 12 3
v 2 12 2
v 3 12 2
v 4 12 2
v 5 12 2
v 6 12 2
v -6 12 1
v -5 12 1
v -3 12 1
v -2 12 1
v 2 12 1
v 4 12 1
v 5 12 1
v 6 12 1
v -6 12 -0
v -5 12 -0
v -3 12 -0
v -2 12 -0
v 2 12 -0
v 4 12 -0
v 5 12 -0
v 6 12 -0
v 2 12 -1
v 3 12 -1
v 4 12 -1
v 5 12 -1
v 6 12 -1
v 2 12 -2
v 3 12 -2
v 4 12 -2
v 5 12 -2
v -5 13 1
v -3 13 1
v -5 13 -0
v -3 13 -0

# faces
f 3/3/1 2/3/1 1/3/1
f 4/3/1 2/3/1 3/3/1
f 7/3/1 6/3/1 5/3/1
f 8/3/1 6/3/1 7/3/1
f 11/3/1 10/3/1 9/3/1
f 12/3/1 10/3/1 11/3/1
f 15/1/1 14/1/1 13/1/1
f 16/1/1 14/1/1 15/1/1
f 19/3/1 18/3/1 17/3/1
f 20/3/1 18/3/1 19/3/1
f 25/3/1 22/3/1 21/3/1
f 26/3/1 22/3/1 25/3/1
f 27/3/1 24/3/1 23/3/1
f 28/3/1 24/3/1 27/3/1
f 29/1/1 26/1/1 25/1/1
f 30/1/1 28/1/1 27/1/1
f 31/1/1 29/1/1 25/1/1
f 31/1/1 30/1/1 29/1/1
f 32/1/1 28/1/1 30/1/1
f 32/1/1 30/1/1 31/1/1
f 33/1/1 31/1/1 25/1/1
f 34/1/1 31/1/1 33/1/1
f 35/1/1 28/1/1 32/1/1
f 36/1/1 28/1/1 35/1/1
f 37/1/1 33/1/1 25/1/1
f 38/2/1 34/2/1 33/2/1
f 38/1/1 33/1/1 37/1/1
f 39/2/1 34/2/1 38/2/1
f 40/2/1 36/2/1 35/2/1
f 41/1/1 28/1/1 36/1/1
f 41/2/1 36/2/1 40/2/1
f 42/1/1 28/1/1 41/1/1
f 47/2/1 44/2/1 43/2/1
f 48/1/1 45/1/1 44/1/1
f 48/2/1 44/2/1 47/2/1
f 49/1/1 45/1/1 48/1/1
f 50/1/1 45/1/1 49/1/1
f 51/1/1 45/1/1 50/1/1
f 52/1/1 45/1/1 51/1/1
f 53/2/1 46/2/1 45/2/1
f 53/1/1 45/1/1 52/1/1
f 54/2/1 46/2/1 53/2/1
f 55/2/1 49/2/1 48/2/1
f 56/1/1 50/1/1 49/1/1
f 56/2/1 49/2/1 55/2/1
f 57/2/1 51/2/1 50/2/1
f 57/1/1 50/1/1 56/1/1
f 58/1/1 52/1/1 51/1/1
f 58/2/1 51/2/1 57/2/1
f 59/2/1 53/2/1 52/2/1
f 59/1/1 52/1/1 58/1/1
f 60/2/1 53/2/1 59/2/1
f 65/3/1 62/3/1 61/3/1
f 66/3/1 62/3/1 65/3/1
f 67/3/1 64/3/1 63/3/1
f 68/3/1 64/3/1 67/3/1
f 69/1/1 66/1/1 65/1/1
f 70/1/1 66/1/1 69/1/1
f 71/1/1 68/1/1 67/1/1
f 72/1/1 68/1/1 71/1/1
f 75/3/1 74/3/1 73/3/1
f 76/3/1 74/3/1 75/3/1
f 77/2/2 78/2/2 79/2/2
f 79/2/2 78/2/2 80/2/2
f 81/2/2 82/2/2 83/2/2
f 83/2/2 82/2/2 84/2/2
f 85/3/2 86/3/2 87/3/2
f 87/3/2 86/3/2 88/3/2
f 89/3/2 90/3/2 93/3/2
f 93/3/2 90/3/2 94/3/2
f 91/3/2 92/3/2 95/3/2
f 95/3/2 92/3/2 96/3/2
f 93/1/2 94/1/2 97/1/2
f 97/1/2 94/1/2 98/1/2
f 95/1/2 96/1/2 99/1/2
f 99/1/2 96/1/2 100/1/2
f 101/2/2 102/2/2 103/2/2
f 103/2/2 102/2/2 104/2/2
f 105/2/2 106/2/2 109/2/2
f 109/2/2 106/2/2 110/2/2
f 107/2/2 108/2/2 111/2/2
f 111/2/2 108/2/2 112/2/2
f 113/3/2 114/3/2 117/3/2
f 117/3/2 114/3/2 118/3/2
f 115/3/2 116/3/2 119/3/2
f 119/3/2 116/3/2 120/3/2
f 117/1/2 118/1/2 121/1/2
f 119/1/2 120/1/2 122/1/2
f 117/1/2 121/1/2 123/1/2
f 121/3/2 122/3/2 124/3/2
f 123/1/2 121/1/2 124/1/2
f 122/1/2 120/1/2 125/1/2
f 124/3/2 122/3/2 125/3/2
f 125/1/2 120/1/2 126/1/2
f 117/1/2 123/1/2 127/1/2
f 123/3/2 124/3/2 128/3/2
f 127/1/2 123/1/2 128/1/2
f 124/3/2 125/3/2 128/3/2
f 125/3/2 126/3/2 128/3/2
f 126/1/2 120/1/2 129/1/2
f 128/3/2 126/3/2 129/3/2
f 129/1/2 120/1/2 130/1/2
f 131/2/2 132/2/2 135/2/2
f 135/2/2 132/2/2 136/2/2
f 133/2/2 134/2/2 137/2/2
f 137/2/2 134/2/2 138/2/2
f 139/1/2 140/1/2 143/1/2
f 143/1/2 140/1/2 144/1/2
f 141/1/2 142/1/2 147/1/2
f 147/1/2 142/1/2 148/1/2
f 143/4/2 144/4/2 149/4/2
f 144/1/2 145/1/2 150/1/2
f 149/4/2 144/4/2 150/4/2
f 146/1/2 147/1/2 151/1/2
f 147/4/2 148/4/2 151/4/2
f 151/4/2 148/4/2 152/4/2
f 150/1/2 145/1/2 153/1/2
f 145/3/2 146/3/2 154/3/2
f 153/1/2 145/1/2 154/1/2
f 146/1/2 151/1/2 155/1/2
f 154/3/2 146/3/2 155/3/2
f 155/1/2 151/1/2 156/1/2
f 157/3/2 158/3/2 159/3/2
f 159/3/2 158/3/2 160/3/2
f 157/3/2 159/3/2 161/3/2
f 161/3/2 159/3/2 162/3/2
f 160/3/2 158/3/2 163/3/2
f 163/3/2 158/3/2 164/3/2
f 165/4/2 166/4/2 167/4/2
f 167/4/2 166/4/2 168/4/2
f 171/2/3 170/2/3 169/2/3
f 172/2/3 170/2/3 171/2/3
f 176/1/3 175/1/3 174/1/3
f 177/1/3 175/1/3 176/1/3
f 178/3/3 174/3/3 173/3/3
f 179/1/3 176/1/3 174/1/3
f 179/3/3 174/3/3 178/3/3
f 180/1/3 176/1/3 179/1/3
f 181/1/3 176/1/3 180/1/3
f 182/2/3 177/2/3 176/2/3
f 182/1/3 176/1/3 181/1/3
f 183/1/3 181/1/3 180/1/3
f 184/2/3 182/2/3 181/2/3
f 184/1/3 181/1/3 183/1/3
f 185/1/3 183/1/3 180/1/3
f 185/2/3 184/2/3 183/2/3
f 186/2/3 182/2/3 184/2/3
f 186/2/3 184/2/3 185/2/3
f 187/1/3 186/1/3 185/1/3
f 187/2/3 182/2/3 186/2/3
f 188/2/3 177/2/3 182/2/3
f 188/2/3 182/2/3 187/2/3
f 189/1/3 188/1/3 187/1/3
f 189/2/3 177/2/3 188/2/3
f 190/2/3 177/2/3 189/2/3
f 195/1/3 190/1/3 189/1/3
f 195/1/3 187/1/3 185/1/3
f 195/1/3 185/1/3 180/1/3
f 195/1/3 189/1/3 187/1/3
f 196/2/3 192/2/3 191/2/3
f 197/2/3 192/2/3 196/2/3
f 198/1/3 195/1/3 194/1/3
f 198/1/3 190/1/3 195/1/3
f 199/1/3 197/1/3 196/1/3
f 200/1/3 197/1/3 199/1/3
f 201/3/3 194/3/3 193/3/3
f 202/1/3 198/1/3 194/1/3
f 202/3/3 194/3/3 201/3/3
f 202/1/3 199/1/3 198/1/3
f 203/1/3 199/1/3 202/1/3
f 204/1/3 199/1/3 203/1/3
f 205/2/3 200/2/3 199/2/3
f 205/1/3 199/1/3 204/1/3
f 206/2/3 200/2/3 205/2/3
f 207/1/3 204/1/3 203/1/3
f 208/4/3 205/4/3 204/4/3
f 208/1/3 204/1/3 207/1/3
f 209/4/3 205/4/3 208/4/3
f 214/1/3 211/1/3 210/1/3
f 215/1/3 211/1/3 214/1/3
f 216/3/3 213/3/3 212/3/3
f 217/3/3 213/3/3 216/3/3
f 221/3/3 219/3/3 218/3/3
f 222/3/3 219/3/3 221/3/3
f 225/3/3 221/3/3 220/3/3
f 226/2/3 222/2/3 221/2/3
f 226/3/3 221/3/3 225/3/3
f 227/2/3 222/2/3 226/2/3
f 228/3/3 223/3/3 222/3/3
f 228/2/3 222/2/3 227/2/3
f 229/3/3 223/3/3 228/3/3
f 231/1/3 225/1/3 224/1/3
f 231/1/3 226/1/3 225/1/3
f 232/2/3 227/2/3 226/2/3
f 232/1/3 226/1/3 231/1/3
f 233/2/3 227/2/3 232/2/3
f 234/2/3 229/2/3 228/2/3
f 235/2/3 229/2/3 234/2/3
f 236/3/3 230/3/3 229/3/3
f 236/2/3 229/2/3 235/2/3
f 237/3/3 230/3/3 236/3/3
f 238/2/3 236/2/3 235/2/3
f 239/2/3 236/2/3 238/2/3
f 242/4/3 241/4/3 240/4/3
f 243/4/3 241/4/3 242/4/3
f 247/3/3 245/3/3 244/3/3
f 248/1/3 246/1/3 245/1/3
f 248/3/3 245/3/3 247/3/3
f 249/1/3 246/1/3 248/1/3
f 253/1/3 252/1/3 251/1/3
f 254/1/3 252/1/3 253/1/3
f 255/3/3 251/3/3 250/3/3
f 256/1/3 253/1/3 251/1/3
f 256/3/3 251/3/3 255/3/3
f 257/1/3 253/1/3 256/1/3
f 258/3/4 259/3/4 261/3/4
f 259/1/4 260/1/4 262/1/4
f 261/3/4 259/3/4 262/3/4
f 262/1/4 260/1/4 263/1/4
f 265/1/4 266/1/4 267/1/4
f 267/1/4 266/1/4 268/1/4
f 264/3/4 265/3/4 269/3/4
f 265/1/4 267/1/4 270/1/4
f 269/3/4 265/3/4 270/3/4
f 270/1/4 267/1/4 271/1/4
f 272/3/4 273/3/4 275/3/4
f 275/3/4 273/3/4 276/3/4
f 274/3/4 275/3/4 279/3/4
f 275/2/4 276/2/4 280/2/4
f 279/3/4 275/3/4 280/3/4
f 280/2/4 276/2/4 281/2/4
f 276/3/4 277/3/4 282/3/4
f 281/2/4 276/2/4 282/2/4
f 282/3/4 277/3/4 283/3/4
f 278/1/4 279/1/4 285/1/4
f 279/1/4 280/1/4 285/1/4
f 280/2/4 281/2/4 286/2/4
f 285/1/4 280/1/4 286/1/4
f 286/2/4 281/2/4 287/2/4
f 282/2/4 283/2/4 288/2/4
f 288/2/4 283/2/4 289/2/4
f 283/3/4 284/3/4 290/3/4
f 289/2/4 283/2/4 290/2/4
f 290/3/4 284/3/4 291/3/4
f 289/2/4 290/2/4 292/2/4
f 292/2/4 290/2/4 293/2/4
f 294/4/4 295/4/4 296/4/4
f 296/4/4 295/4/4 297/4/4
f 298/1/4 299/1/4 302/1/4
f 302/1/4 299/1/4 303/1/4
f 300/3/4 301/3/4 304/3/4
f 304/3/4 301/3/4 305/3/4
f 307/1/4 308/1/4 309/1/4
f 309/1/4 308/1/4 310/1/4
f 306/3/4 307/3/4 311/3/4
f 307/1/4 309/1/4 312/1/4
f 311/3/4 307/3/4 312/3/4
f 312/1/4 309/1/4 313/1/4
f 313/1/4 309/1/4 314/1/4
f 309/2/4 310/2/4 315/2/4
f 314/1/4 309/1/4 315/1/4
f 313/1/4 314/1/4 316/1/4
f 314/2/4 315/2/4 317/2/4
f 316/1/4 314/1/4 317/1/4
f 313/1/4 316/1/4 318/1/4
f 316/2/4 317/2/4 318/2/4
f 317/2/4 315/2/4 319/2/4
f 318/2/4 317/2/4 319/2/4
f 318/1/4 319/1/4 320/1/4
f 319/2/4 315/2/4 320/2/4
f 315/2/4 310/2/4 321/2/4
f 320/2/4 315/2/4 321/2/4
f 320/1/4 321/1/4 322/1/4
f 321/2/4 310/2/4 322/2/4
f 322/2/4 310/2/4 323/2/4
f 322/1/4 323/1/4 328/1/4
f 318/1/4 320/1/4 328/1/4
f 313/1/4 318/1/4 328/1/4
f 320/1/4 322/1/4 328/1/4
f 324/2/4 325/2/4 329/2/4
f 329/2/4 325/2/4 330/2/4
f 327/1/4 328/1/4 331/1/4
f 328/1/4 323/1/4 331/1/4
f 329/1/4 330/1/4 332/1/4
f 332/1/4 330/1/4 333/1/4
f 326/3/4 327/3/4 334/3/4
f 327/1/4 331/1/4 335/1/4
f 334/3/4 327/3/4 335/3/4
f 331/1/4 332/1/4 335/1/4
f 335/1/4 332/1/4 336/1/4
f 336/1/4 332/1/4 337/1/4
f 332/2/4 333/2/4 338/2/4
f 337/1/4 332/1/4 338/1/4
f 338/2/4 333/2/4 339/2/4
f 336/1/4 337/1/4 340/1/4
f 337/4/4 338/4/4 341/4/4
f 340/1/4 337/1/4 341/1/4
f 341/4/4 338/4/4 342/4/4
f 343/2/4 344/2/4 345/2/4
f 345/2/4 344/2/4 346/2/4
f 351/3/5 348/3/5 347/3/5
f 352/3/5 348/3/5 351/3/5
f 353/3/5 350/3/5 349/3/5
f 354/3/5 350/3/5 353/3/5
f 359/3/5 356/3/5 355/3/5
f 360/3/5 356/3/5 359/3/5
f 361/3/5 358/3/5 357/3/5
f 362/3/5 358/3/5 361/3/5
f 365/3/5 364/3/5 363/3/5
f 366/3/5 364/3/5 365/3/5
f 370/1/5 368/1/5 367/1/5
f 371/1/5 368/1/5 370/1/5
f 373/1/5 370/1/5 369/1/5
f 373/1/5 372/1/5 371/1/5
f 373/1/5 371/1/5 370/1/5
f 374/1/5 372/1/5 373/1/5
f 375/1/5 372/1/5 374/1/5
f 376/1/5 372/1/5 375/1/5
f 377/1/5 375/1/5 374/1/5
f 378/1/5 375/1/5 377/1/5
f 381/1/5 380/1/5 379/1/5
f 382/1/5 380/1/5 381/1/5
f 385/3/5 384/3/5 383/3/5
f 386/3/5 384/3/5 385/3/5
f 389/1/5 388/1/5 387/1/5
f 390/1/5 388/1/5 389/1/5
f 394/3/5 393/3/5 392/3/5
f 395/3/5 393/3/5 394/3/5
f 396/1/5 390/1/5 389/1/5
f 397/3/5 391/3/5 390/3/5
f 397/1/5 390/1/5 396/1/5
f 398/3/5 391/3/5 397/3/5
f 399/1/5 397/1/5 396/1/5
f 400/1/5 397/1/5 399/1/5
f 403/2/5 402/2/5 401/2/5
f 404/2/5 402/2/5 403/2/5
f 407/2/5 406/2/5 405/2/5
f 408/2/5 406/2/5 407/2/5
f 411/4/5 410/4/5 409/4/5
f 412/4/5 410/4/5 411/4/5
f 415/2/5 414/2/5 413/2/5
f 416/2/5 414/2/5 415/2/5
f 419/2/5 418/2/5 417/2/5
f 420/2/5 418/2/5 419/2/5
f 421/1/6 422/1/6 424/1/6
f 422/2/6 423/2/6 425/2/6
f 424/1/6 422/1/6 425/1/6
f 424/2/6 425/2/6 427/2/6
f 426/2/6 427/2/6 428/2/6
f 427/2/6 425/2/6 429/2/6
f 428/2/6 427/2/6 429/2/6
f 429/2/6 425/2/6 430/2/6
f 425/2/6 423/2/6 431/2/6
f 430/2/6 425/2/6 431/2/6
f 430/1/6 431/1/6 432/1/6
f 431/2/6 423/2/6 433/2/6
f 432/1/6 431/1/6 433/1/6
f 433/2/6 423/2/6 434/2/6
f 435/3/6 436/3/6 439/3/6
f 439/3/6 436/3/6 440/3/6
f 437/3/6 438/3/6 442/3/6
f 442/3/6 438/3/6 443/3/6
f 439/3/6 440/3/6 444/3/6
f 440/4/6 441/4/6 445/4/6
f 444/3/6 440/3/6 445/3/6
f 445/4/6 441/4/6 446/4/6
f 444/3/6 445/3/6 447/3/6
f 447/3/6 445/3/6 448/3/6
f 449/2/6 450/2/6 451/2/6
f 451/2/6 450/2/6 452/2/6
f 452/2/6 450/2/6 453/2/6
f 454/4/6 455/4/6 456/4/6
f 456/4/6 455/4/6 457/4/6
f 458/4/6 459/4/6 463/4/6
f 463/4/6 459/4/6 464/4/6
f 461/2/6 462/2/6 465/2/6
f 460/2/6 461/2/6 465/2/6
f 465/2/6 462/2/6 466/2/6
f 467/2/6 468/2/6 471/2/6
f 468/1/6 469/1/6 472/1/6
f 471/2/6 468/2/6 472/2/6
f 469/2/6 470/2/6 473/2/6
f 472/1/6 469/1/6 473/1/6
f 473/2/6 470/2/6 474/2/6
f 471/1/6 472/1/6 480/1/6
f 472/1/6 473/1/6 480/1/6
f 473/1/6 474/1/6 480/1/6
f 474/1/6 475/1/6 480/1/6
f 480/1/6 475/1/6 481/1/6
f 481/1/6 475/1/6 482/1/6
f 482/1/6 475/1/6 483/1/6
f 476/3/6 477/3/6 484/3/6
f 484/3/6 477/3/6 485/3/6
f 478/2/6 479/2/6 486/2/6
f 486/2/6 479/2/6 487/2/6
f 480/2/6 481/2/6 488/2/6
f 481/1/6 482/1/6 489/1/6
f 488/2/6 481/2/6 489/2/6
f 482/3/6 483/3/6 490/3/6
f 489/1/6 482/1/6 490/1/6
f 490/3/6 483/3/6 491/3/6
f 490/1/6 491/1/6 492/1/6
f 489/1/6 490/1/6 492/1/6
f 488/1/6 489/1/6 492/1/6
f 492/1/6 491/1/6 493/1/6
f 493/1/6 491/1/6 494/1/6
f 494/1/6 491/1/6 495/1/6
f 495/1/6 491/1/6 496/1/6
f 492/2/6 493/2/6 497/2/6
f 493/1/6 494/1/6 498/1/6
f 497/2/6 493/2/6 498/2/6
f 494/2/6 495/2/6 499/2/6
f 498/1/6 494/1/6 499/1/6
f 499/2/6 495/2/6 500/2/6
f 501/3/6 502/3/6 503/3/6
f 503/3/6 502/3/6 504/3/6
