# MagicaVoxel @ Ephtracy

# group
g Borkicorn An2

# material
mtllib Borkicorn An2.mtl
usemtl palette

# normals
vn -1 0 0
vn 1 0 0
vn 0 0 1
vn 0 0 -1
vn 0 -1 0
vn 0 1 0

# texcoords
vt 0.00976563 0.5
vt 0.474609 0.5
vt 0.748047 0.5
vt 0.857422 0.5
vt 0.912109 0.5
vt 0.916016 0.5
vt 0.935547 0.5
vt 0.958984 0.5

# verts
v -8 4 -1
v -8 4 -3
v -8 6 -1
v -8 6 -3
v -7 1 2
v -7 1 1
v -7 2 2
v -7 2 1
v -7 4 -0
v -7 4 -1
v -7 6 -1
v -7 6 -2
v -7 7 -0
v -7 7 -2
v -6 5 1
v -6 5 -0
v -6 7 -0
v -6 7 -1
v -6 8 1
v -6 8 -1
v -5 0 -1
v -5 0 -2
v -5 1 -1
v -5 1 -2
v -5 2 2
v -5 2 1
v -5 4 1
v -5 4 -1
v -5 5 1
v -5 5 -1
v -5 8 2
v -5 8 1
v -5 8 -1
v -5 8 -2
v -2 8 2
v -2 8 -2
v -2 9 2
v -2 9 -2
v -1 9 2
v -1 9 -2
v -1 10 2
v -1 10 -2
v 0 1 -1
v 0 1 -2
v 0 2 -1
v 0 2 -2
v 0 10 2
v 0 10 -2
v 0 11 2
v 0 11 -2
v 1 11 2
v 1 11 -2
v 1 12 2
v 1 12 1
v 1 12 -1
v 1 12 -2
v 1 14 2
v 1 14 1
v 1 14 -1
v 1 14 -2
v 2 0 2
v 2 0 1
v 2 1 2
v 2 1 1
v 2 2 -1
v 2 2 -2
v 2 4 2
v 2 4 1
v 2 4 -1
v 2 4 -2
v 2 12 1
v 2 12 -1
v 2 13 1
v 2 13 -1
v 3 13 1
v 3 13 -1
v 3 14 1
v 3 14 -1
v 3 15 1
v 3 15 -1
v 4 15 1
v 4 15 -1
v 4 16 1
v 4 16 -1
v -7 4 -2
v -7 4 -3
v -7 6 -2
v -7 6 -3
v -6 4 -0
v -6 4 -2
v -6 5 -0
v -6 5 -1
v -6 7 -1
v -6 7 -2
v -5 1 2
v -5 1 1
v -5 2 2
v -5 2 1
v -4 0 -1
v -4 0 -2
v -4 1 -1
v -4 1 -2
v -4 2 2
v -4 2 1
v -4 4 2
v -4 4 1
v -4 4 -1
v -4 4 -2
v 2 1 -1
v 2 1 -2
v 2 2 -1
v 2 2 -2
v 3 0 2
v 3 0 1
v 3 1 2
v 3 1 1
v 3 2 -1
v 3 2 -2
v 3 4 1
v 3 4 -1
v 3 7 1
v 3 7 -1
v 3 8 2
v 3 8 1
v 3 8 -1
v 3 8 -2
v 3 12 2
v 3 12 1
v 3 12 -1
v 3 12 -2
v 3 13 2
v 3 13 1
v 3 13 -1
v 3 13 -2
v 3 14 2
v 3 14 1
v 3 14 -1
v 3 14 -2
v 5 7 1
v 5 7 -1
v 5 8 1
v 5 8 -1
v 5 11 2
v 5 11 -2
v 5 12 2
v 5 12 1
v 5 12 -1
v 5 12 -2
v 5 16 1
v 5 16 -1
v 6 10 2
v 6 10 1
v 6 10 -1
v 6 10 -2
v 6 11 2
v 6 11 -2
v 7 8 2
v 7 8 -2
v 7 9 2
v 7 9 1
v 7 9 -1
v 7 9 -2
v 7 10 2
v 7 10 1
v 7 10 -1
v 7 10 -2
v -7 1 2
v -7 2 2
v -6 1 2
v -6 2 2
v -5 1 2
v -5 2 2
v -5 8 2
v -4 2 2
v -4 4 2
v -2 8 2
v -2 9 2
v -1 9 2
v -1 10 2
v 0 8 2
v 0 9 2
v 0 10 2
v 0 11 2
v 1 9 2
v 1 10 2
v 1 11 2
v 1 12 2
v 1 14 2
v 2 0 2
v 2 1 2
v 2 4 2
v 2 9 2
v 2 10 2
v 2 11 2
v 2 12 2
v 2 13 2
v 3 0 2
v 3 1 2
v 3 8 2
v 3 10 2
v 3 11 2
v 3 12 2
v 3 13 2
v 3 14 2
v 4 9 2
v 4 10 2
v 4 11 2
v 4 12 2
v 5 8 2
v 5 11 2
v 5 12 2
v 6 9 2
v 6 10 2
v 6 11 2
v 7 8 2
v 7 9 2
v 7 10 2
v -6 5 1
v -6 8 1
v -5 5 1
v -5 8 1
v 3 7 1
v 3 8 1
v 3 12 1
v 3 13 1
v 3 14 1
v 3 15 1
v 4 12 1
v 4 15 1
v 4 16 1
v 5 7 1
v 5 8 1
v 5 12 1
v 5 16 1
v -7 4 -0
v -7 7 -0
v -6 4 -0
v -6 5 -0
v -6 7 -0
v -8 4 -1
v -8 6 -1
v -7 4 -1
v -7 6 -1
v -5 0 -1
v -5 1 -1
v -5 4 -1
v -4 0 -1
v -4 1 -1
v -4 4 -1
v 0 1 -1
v 0 2 -1
v 1 1 -1
v 1 2 -1
v 1 12 -1
v 1 14 -1
v 2 1 -1
v 2 2 -1
v 2 4 -1
v 2 12 -1
v 2 13 -1
v 3 2 -1
v 3 4 -1
v 3 13 -1
v 3 14 -1
v -7 1 1
v -7 2 1
v -6 1 1
v -6 2 1
v -5 1 1
v -5 2 1
v -5 4 1
v -4 2 1
v -4 4 1
v 1 12 1
v 1 14 1
v 2 0 1
v 2 1 1
v 2 4 1
v 2 12 1
v 2 13 1
v 3 0 1
v 3 1 1
v 3 4 1
v 3 13 1
v 3 14 1
v -6 5 -1
v -6 7 -1
v -6 8 -1
v -5 5 -1
v -5 8 -1
v 3 7 -1
v 3 8 -1
v 3 12 -1
v 3 13 -1
v 3 14 -1
v 3 15 -1
v 4 12 -1
v 4 15 -1
v 4 16 -1
v 5 7 -1
v 5 8 -1
v 5 12 -1
v 5 16 -1
v -7 4 -2
v -7 6 -2
v -7 7 -2
v -6 4 -2
v -6 7 -2
v -5 0 -2
v -5 1 -2
v -5 8 -2
v -4 0 -2
v -4 1 -2
v -4 4 -2
v -2 8 -2
v -2 9 -2
v -1 8 -2
v -1 9 -2
v -1 10 -2
v 0 1 -2
v 0 2 -2
v 0 9 -2
v 0 10 -2
v 0 11 -2
v 1 1 -2
v 1 2 -2
v 1 10 -2
v 1 11 -2
v 1 12 -2
v 1 14 -2
v 2 1 -2
v 2 2 -2
v 2 4 -2
v 2 9 -2
v 2 11 -2
v 2 12 -2
v 2 13 -2
v 3 2 -2
v 3 8 -2
v 3 10 -2
v 3 11 -2
v 3 12 -2
v 3 13 -2
v 3 14 -2
v 4 9 -2
v 4 10 -2
v 4 11 -2
v 4 12 -2
v 5 8 -2
v 5 11 -2
v 5 12 -2
v 6 9 -2
v 6 10 -2
v 6 11 -2
v 7 8 -2
v 7 9 -2
v 7 10 -2
v -8 4 -3
v -8 6 -3
v -7 4 -3
v -7 6 -3
v 2 0 2
v 3 0 2
v 2 0 1
v 3 0 1
v -5 0 -1
v -4 0 -1
v -5 0 -2
v -4 0 -2
v -7 1 2
v -6 1 2
v -5 1 2
v -7 1 1
v -6 1 1
v -5 1 1
v 0 1 -1
v 1 1 -1
v 2 1 -1
v 0 1 -2
v 1 1 -2
v 2 1 -2
v -5 2 2
v -4 2 2
v -5 2 1
v -4 2 1
v 2 2 -1
v 3 2 -1
v 2 2 -2
v 3 2 -2
v -4 4 2
v 2 4 2
v -5 4 1
v -4 4 1
v 2 4 1
v 3 4 1
v -7 4 -0
v -6 4 -0
v -8 4 -1
v -7 4 -1
v -5 4 -1
v -4 4 -1
v 2 4 -1
v 3 4 -1
v -7 4 -2
v -6 4 -2
v -4 4 -2
v 2 4 -2
v -8 4 -3
v -7 4 -3
v -6 5 1
v -5 5 1
v -6 5 -0
v -6 5 -1
v -5 5 -1
v 3 7 1
v 5 7 1
v 3 7 -1
v 5 7 -1
v 3 8 2
v 5 8 2
v 7 8 2
v 3 8 1
v 5 8 1
v 3 8 -1
v 5 8 -1
v 3 8 -2
v 5 8 -2
v 7 8 -2
v -7 2 2
v -6 2 2
v -5 2 2
v -7 2 1
v -6 2 1
v -5 2 1
v 0 2 -1
v 1 2 -1
v 2 2 -1
v 0 2 -2
v 1 2 -2
v 2 2 -2
v -8 6 -1
v -7 6 -1
v -7 6 -2
v -8 6 -3
v -7 6 -3
v -7 7 -0
v -6 7 -0
v -6 7 -1
v -7 7 -2
v -6 7 -2
v -5 8 2
v -2 8 2
v -6 8 1
v -5 8 1
v -6 8 -1
v -5 8 -1
v -5 8 -2
v -2 8 -2
v -2 9 2
v -1 9 2
v -2 9 -2
v -1 9 -2
v -1 10 2
v 0 10 2
v 6 10 2
v 7 10 2
v 6 10 1
v 7 10 1
v 6 10 -1
v 7 10 -1
v -1 10 -2
v 0 10 -2
v 6 10 -2
v 7 10 -2
v 0 11 2
v 1 11 2
v 5 11 2
v 6 11 2
v 0 11 -2
v 1 11 -2
v 5 11 -2
v 6 11 -2
v 3 12 2
v 4 12 2
v 5 12 2
v 1 12 1
v 2 12 1
v 3 12 1
v 4 12 1
v 5 12 1
v 1 12 -1
v 2 12 -1
v 3 12 -1
v 4 12 -1
v 5 12 -1
v 3 12 -2
v 4 12 -2
v 5 12 -2
v 2 13 1
v 3 13 1
v 2 13 -1
v 3 13 -1
v 1 14 2
v 3 14 2
v 1 14 1
v 3 14 1
v 1 14 -1
v 3 14 -1
v 1 14 -2
v 3 14 -2
v 3 15 1
v 4 15 1
v 3 15 -1
v 4 15 -1
v 4 16 1
v 5 16 1
v 4 16 -1
v 5 16 -1

# faces
f 3/4/1 2/4/1 1/4/1
f 4/4/1 2/4/1 3/4/1
f 7/3/1 6/3/1 5/3/1
f 8/3/1 6/3/1 7/3/1
f 11/4/1 10/4/1 9/4/1
f 13/4/1 11/4/1 9/4/1
f 13/4/1 12/4/1 11/4/1
f 14/4/1 12/4/1 13/4/1
f 17/4/1 16/4/1 15/4/1
f 19/4/1 17/4/1 15/4/1
f 19/4/1 18/4/1 17/4/1
f 20/4/1 18/4/1 19/4/1
f 23/3/1 22/3/1 21/3/1
f 24/3/1 22/3/1 23/3/1
f 27/5/1 26/5/1 25/5/1
f 28/5/1 24/5/1 23/5/1
f 29/5/1 27/5/1 25/5/1
f 29/5/1 28/5/1 27/5/1
f 30/5/1 24/5/1 28/5/1
f 30/5/1 28/5/1 29/5/1
f 31/5/1 29/5/1 25/5/1
f 32/5/1 29/5/1 31/5/1
f 33/5/1 24/5/1 30/5/1
f 34/5/1 24/5/1 33/5/1
f 37/4/1 36/4/1 35/4/1
f 38/4/1 36/4/1 37/4/1
f 41/4/1 40/4/1 39/4/1
f 42/4/1 40/4/1 41/4/1
f 45/3/1 44/3/1 43/3/1
f 46/3/1 44/3/1 45/3/1
f 49/4/1 48/4/1 47/4/1
f 50/4/1 48/4/1 49/4/1
f 53/4/1 52/4/1 51/4/1
f 54/4/1 52/4/1 53/4/1
f 55/4/1 52/4/1 54/4/1
f 56/4/1 52/4/1 55/4/1
f 57/5/1 54/5/1 53/5/1
f 58/5/1 54/5/1 57/5/1
f 59/5/1 56/5/1 55/5/1
f 60/5/1 56/5/1 59/5/1
f 63/3/1 62/3/1 61/3/1
f 64/3/1 62/3/1 63/3/1
f 67/5/1 64/5/1 63/5/1
f 68/5/1 64/5/1 67/5/1
f 69/5/1 66/5/1 65/5/1
f 70/5/1 66/5/1 69/5/1
f 73/5/1 72/5/1 71/5/1
f 74/5/1 72/5/1 73/5/1
f 77/2/1 76/2/1 75/2/1
f 78/2/1 76/2/1 77/2/1
f 79/2/1 78/2/1 77/2/1
f 80/2/1 78/2/1 79/2/1
f 83/2/1 82/2/1 81/2/1
f 84/2/1 82/2/1 83/2/1
f 85/4/2 86/4/2 87/4/2
f 87/4/2 86/4/2 88/4/2
f 89/4/2 90/4/2 91/4/2
f 91/4/2 90/4/2 92/4/2
f 92/4/2 90/4/2 93/4/2
f 93/4/2 90/4/2 94/4/2
f 95/5/2 96/5/2 97/5/2
f 97/5/2 96/5/2 98/5/2
f 99/3/2 100/3/2 101/3/2
f 101/3/2 100/3/2 102/3/2
f 103/5/2 104/5/2 105/5/2
f 105/5/2 104/5/2 106/5/2
f 101/5/2 102/5/2 107/5/2
f 107/5/2 102/5/2 108/5/2
f 109/5/2 110/5/2 111/5/2
f 111/5/2 110/5/2 112/5/2
f 113/3/2 114/3/2 115/3/2
f 115/3/2 114/3/2 116/3/2
f 115/5/2 116/5/2 119/5/2
f 117/5/2 118/5/2 120/5/2
f 115/5/2 119/5/2 121/5/2
f 119/5/2 120/5/2 121/5/2
f 120/5/2 118/5/2 122/5/2
f 121/5/2 120/5/2 122/5/2
f 115/5/2 121/5/2 123/5/2
f 123/5/2 121/5/2 124/5/2
f 122/5/2 118/5/2 125/5/2
f 125/5/2 118/5/2 126/5/2
f 127/1/2 128/1/2 131/1/2
f 131/1/2 128/1/2 132/1/2
f 129/1/2 130/1/2 133/1/2
f 133/1/2 130/1/2 134/1/2
f 131/5/2 132/5/2 135/5/2
f 135/5/2 132/5/2 136/5/2
f 133/5/2 134/5/2 137/5/2
f 137/5/2 134/5/2 138/5/2
f 139/6/2 140/6/2 141/6/2
f 141/6/2 140/6/2 142/6/2
f 143/5/2 144/5/2 145/5/2
f 145/5/2 144/5/2 146/5/2
f 146/5/2 144/5/2 147/5/2
f 147/5/2 144/5/2 148/5/2
f 146/2/2 147/2/2 149/2/2
f 149/2/2 147/2/2 150/2/2
f 151/6/2 152/6/2 155/6/2
f 153/6/2 154/6/2 155/6/2
f 152/6/2 153/6/2 155/6/2
f 155/6/2 154/6/2 156/6/2
f 157/6/2 158/6/2 159/6/2
f 159/6/2 158/6/2 160/6/2
f 160/6/2 158/6/2 161/6/2
f 161/6/2 158/6/2 162/6/2
f 159/7/2 160/7/2 163/7/2
f 160/6/2 161/6/2 164/6/2
f 163/7/2 160/7/2 164/7/2
f 161/7/2 162/7/2 165/7/2
f 164/6/2 161/6/2 165/6/2
f 165/7/2 162/7/2 166/7/2
f 169/3/3 168/3/3 167/3/3
f 170/3/3 168/3/3 169/3/3
f 171/5/3 170/5/3 169/5/3
f 172/5/3 170/5/3 171/5/3
f 174/5/3 173/5/3 172/5/3
f 175/5/3 173/5/3 174/5/3
f 176/5/3 173/5/3 175/5/3
f 178/4/3 177/4/3 176/4/3
f 180/5/3 176/5/3 175/5/3
f 180/4/3 179/4/3 178/4/3
f 180/4/3 178/4/3 176/4/3
f 181/4/3 179/4/3 180/4/3
f 182/4/3 179/4/3 181/4/3
f 184/5/3 181/5/3 180/5/3
f 184/4/3 183/4/3 182/4/3
f 184/4/3 182/4/3 181/4/3
f 185/4/3 183/4/3 184/4/3
f 186/4/3 183/4/3 185/4/3
f 191/5/3 180/5/3 175/5/3
f 191/5/3 184/5/3 180/5/3
f 191/5/3 185/5/3 184/5/3
f 192/5/3 185/5/3 191/5/3
f 193/4/3 187/4/3 186/4/3
f 193/5/3 185/5/3 192/5/3
f 193/4/3 186/4/3 185/4/3
f 194/4/3 187/4/3 193/4/3
f 195/5/3 188/5/3 187/5/3
f 195/4/3 187/4/3 194/4/3
f 196/5/3 188/5/3 195/5/3
f 197/3/3 190/3/3 189/3/3
f 198/5/3 192/5/3 191/5/3
f 198/3/3 190/3/3 197/3/3
f 198/5/3 191/5/3 190/5/3
f 199/5/3 192/5/3 198/5/3
f 200/7/3 194/7/3 193/7/3
f 200/7/3 193/7/3 192/7/3
f 201/4/3 195/4/3 194/4/3
f 201/7/3 194/7/3 200/7/3
f 202/1/3 196/1/3 195/1/3
f 202/4/3 195/4/3 201/4/3
f 203/5/3 188/5/3 196/5/3
f 203/1/3 196/1/3 202/1/3
f 204/5/3 188/5/3 203/5/3
f 205/5/3 192/5/3 199/5/3
f 205/7/3 200/7/3 192/7/3
f 206/8/3 201/8/3 200/8/3
f 206/7/3 200/7/3 205/7/3
f 207/4/3 202/4/3 201/4/3
f 207/8/3 201/8/3 206/8/3
f 208/4/3 202/4/3 207/4/3
f 209/5/3 206/5/3 205/5/3
f 209/5/3 205/5/3 199/5/3
f 209/5/3 208/5/3 207/5/3
f 209/5/3 207/5/3 206/5/3
f 210/5/3 208/5/3 209/5/3
f 211/5/3 208/5/3 210/5/3
f 212/6/3 210/6/3 209/6/3
f 213/6/3 210/6/3 212/6/3
f 214/6/3 210/6/3 213/6/3
f 215/6/3 212/6/3 209/6/3
f 216/7/3 213/7/3 212/7/3
f 216/6/3 212/6/3 215/6/3
f 217/7/3 213/7/3 216/7/3
f 220/4/3 219/4/3 218/4/3
f 221/4/3 219/4/3 220/4/3
f 228/2/3 225/2/3 224/2/3
f 228/2/3 227/2/3 226/2/3
f 228/2/3 226/2/3 225/2/3
f 229/2/3 227/2/3 228/2/3
f 231/6/3 223/6/3 222/6/3
f 232/6/3 223/6/3 231/6/3
f 233/2/3 230/2/3 229/2/3
f 233/2/3 229/2/3 228/2/3
f 234/2/3 230/2/3 233/2/3
f 237/4/3 236/4/3 235/4/3
f 238/4/3 236/4/3 237/4/3
f 239/4/3 236/4/3 238/4/3
f 242/4/3 241/4/3 240/4/3
f 243/4/3 241/4/3 242/4/3
f 247/3/3 245/3/3 244/3/3
f 248/5/3 246/5/3 245/5/3
f 248/3/3 245/3/3 247/3/3
f 249/5/3 246/5/3 248/5/3
f 252/3/3 251/3/3 250/3/3
f 253/3/3 251/3/3 252/3/3
f 256/5/3 253/5/3 252/5/3
f 257/5/3 253/5/3 256/5/3
f 259/5/3 255/5/3 254/5/3
f 260/5/3 255/5/3 259/5/3
f 261/5/3 258/5/3 257/5/3
f 262/5/3 258/5/3 261/5/3
f 263/5/3 255/5/3 260/5/3
f 264/5/3 255/5/3 263/5/3
f 265/3/4 266/3/4 267/3/4
f 267/3/4 266/3/4 268/3/4
f 267/5/4 268/5/4 269/5/4
f 269/5/4 268/5/4 270/5/4
f 270/5/4 271/5/4 272/5/4
f 272/5/4 271/5/4 273/5/4
f 274/5/4 275/5/4 279/5/4
f 279/5/4 275/5/4 280/5/4
f 276/3/4 277/3/4 281/3/4
f 277/5/4 278/5/4 282/5/4
f 281/3/4 277/3/4 282/3/4
f 282/5/4 278/5/4 283/5/4
f 280/5/4 275/5/4 284/5/4
f 284/5/4 275/5/4 285/5/4
f 286/4/4 287/4/4 289/4/4
f 287/4/4 288/4/4 289/4/4
f 289/4/4 288/4/4 290/4/4
f 293/2/4 294/2/4 297/2/4
f 295/2/4 296/2/4 297/2/4
f 294/2/4 295/2/4 297/2/4
f 297/2/4 296/2/4 298/2/4
f 291/6/4 292/6/4 300/6/4
f 300/6/4 292/6/4 301/6/4
f 298/2/4 299/2/4 302/2/4
f 297/2/4 298/2/4 302/2/4
f 302/2/4 299/2/4 303/2/4
f 304/4/4 305/4/4 307/4/4
f 305/4/4 306/4/4 307/4/4
f 307/4/4 306/4/4 308/4/4
f 309/3/4 310/3/4 312/3/4
f 310/5/4 311/5/4 313/5/4
f 312/3/4 310/3/4 313/3/4
f 313/5/4 311/5/4 314/5/4
f 314/5/4 311/5/4 315/5/4
f 314/5/4 315/5/4 317/5/4
f 315/4/4 316/4/4 317/4/4
f 317/4/4 316/4/4 318/4/4
f 317/5/4 318/5/4 322/5/4
f 318/4/4 319/4/4 322/4/4
f 322/4/4 319/4/4 323/4/4
f 320/3/4 321/3/4 325/3/4
f 325/3/4 321/3/4 326/3/4
f 323/4/4 324/4/4 327/4/4
f 322/5/4 323/5/4 327/5/4
f 327/4/4 324/4/4 328/4/4
f 325/5/4 326/5/4 331/5/4
f 331/5/4 326/5/4 332/5/4
f 314/5/4 317/5/4 333/5/4
f 317/5/4 322/5/4 333/5/4
f 322/5/4 327/5/4 333/5/4
f 327/5/4 328/5/4 333/5/4
f 333/5/4 328/5/4 334/5/4
f 328/4/4 329/4/4 335/4/4
f 334/5/4 328/5/4 335/5/4
f 329/5/4 330/5/4 336/5/4
f 335/4/4 329/4/4 336/4/4
f 336/5/4 330/5/4 337/5/4
f 333/5/4 334/5/4 338/5/4
f 332/5/4 333/5/4 338/5/4
f 338/5/4 334/5/4 339/5/4
f 334/7/4 335/7/4 340/7/4
f 335/4/4 336/4/4 341/4/4
f 340/7/4 335/7/4 341/7/4
f 336/1/4 337/1/4 342/1/4
f 341/4/4 336/4/4 342/4/4
f 337/5/4 330/5/4 343/5/4
f 342/1/4 337/1/4 343/1/4
f 343/5/4 330/5/4 344/5/4
f 339/5/4 334/5/4 345/5/4
f 334/7/4 340/7/4 345/7/4
f 340/8/4 341/8/4 346/8/4
f 345/7/4 340/7/4 346/7/4
f 341/4/4 342/4/4 347/4/4
f 346/8/4 341/8/4 347/8/4
f 347/4/4 342/4/4 348/4/4
f 345/5/4 346/5/4 349/5/4
f 339/5/4 345/5/4 349/5/4
f 347/5/4 348/5/4 349/5/4
f 346/5/4 347/5/4 349/5/4
f 349/5/4 348/5/4 350/5/4
f 350/5/4 348/5/4 351/5/4
f 349/6/4 350/6/4 352/6/4
f 352/6/4 350/6/4 353/6/4
f 353/6/4 350/6/4 354/6/4
f 349/6/4 352/6/4 355/6/4
f 352/7/4 353/7/4 356/7/4
f 355/6/4 352/6/4 356/6/4
f 356/7/4 353/7/4 357/7/4
f 358/4/4 359/4/4 360/4/4
f 360/4/4 359/4/4 361/4/4
f 364/3/5 363/3/5 362/3/5
f 365/3/5 363/3/5 364/3/5
f 368/3/5 367/3/5 366/3/5
f 369/3/5 367/3/5 368/3/5
f 373/3/5 371/3/5 370/3/5
f 374/5/5 372/5/5 371/5/5
f 374/3/5 371/3/5 373/3/5
f 375/5/5 372/5/5 374/5/5
f 379/3/5 377/3/5 376/3/5
f 380/5/5 378/5/5 377/5/5
f 380/3/5 377/3/5 379/3/5
f 381/5/5 378/5/5 380/5/5
f 384/5/5 383/5/5 382/5/5
f 385/5/5 383/5/5 384/5/5
f 388/5/5 387/5/5 386/5/5
f 389/5/5 387/5/5 388/5/5
f 393/5/5 391/5/5 390/5/5
f 394/5/5 391/5/5 393/5/5
f 399/4/5 397/4/5 396/4/5
f 400/5/5 393/5/5 392/5/5
f 400/5/5 394/5/5 393/5/5
f 400/5/5 395/5/5 394/5/5
f 401/5/5 395/5/5 400/5/5
f 402/5/5 395/5/5 401/5/5
f 403/5/5 395/5/5 402/5/5
f 404/4/5 399/4/5 398/4/5
f 404/4/5 397/4/5 399/4/5
f 405/4/5 397/4/5 404/4/5
f 406/5/5 402/5/5 401/5/5
f 407/5/5 402/5/5 406/5/5
f 408/4/5 404/4/5 398/4/5
f 409/4/5 404/4/5 408/4/5
f 412/4/5 411/4/5 410/4/5
f 413/4/5 411/4/5 412/4/5
f 414/4/5 411/4/5 413/4/5
f 417/6/5 416/6/5 415/6/5
f 418/6/5 416/6/5 417/6/5
f 422/5/5 420/5/5 419/5/5
f 423/6/5 421/6/5 420/6/5
f 423/5/5 420/5/5 422/5/5
f 425/6/5 421/6/5 423/6/5
f 426/5/5 425/5/5 424/5/5
f 427/6/5 421/6/5 425/6/5
f 427/5/5 425/5/5 426/5/5
f 428/6/5 421/6/5 427/6/5
f 429/3/6 430/3/6 432/3/6
f 430/5/6 431/5/6 433/5/6
f 432/3/6 430/3/6 433/3/6
f 433/5/6 431/5/6 434/5/6
f 435/3/6 436/3/6 438/3/6
f 436/5/6 437/5/6 439/5/6
f 438/3/6 436/3/6 439/3/6
f 439/5/6 437/5/6 440/5/6
f 441/4/6 442/4/6 443/4/6
f 441/4/6 443/4/6 444/4/6
f 444/4/6 443/4/6 445/4/6
f 446/4/6 447/4/6 448/4/6
f 446/4/6 448/4/6 449/4/6
f 449/4/6 448/4/6 450/4/6
f 451/5/6 452/5/6 454/5/6
f 453/4/6 454/4/6 455/4/6
f 454/5/6 452/5/6 456/5/6
f 455/4/6 454/4/6 456/4/6
f 456/5/6 452/5/6 457/5/6
f 457/5/6 452/5/6 458/5/6
f 459/4/6 460/4/6 461/4/6
f 461/4/6 460/4/6 462/4/6
f 465/7/6 466/7/6 467/7/6
f 467/7/6 466/7/6 468/7/6
f 467/6/6 468/6/6 469/6/6
f 469/6/6 468/6/6 470/6/6
f 463/4/6 464/4/6 471/4/6
f 471/4/6 464/4/6 472/4/6
f 469/7/6 470/7/6 473/7/6
f 473/7/6 470/7/6 474/7/6
f 475/4/6 476/4/6 479/4/6
f 479/4/6 476/4/6 480/4/6
f 477/6/6 478/6/6 481/6/6
f 481/6/6 478/6/6 482/6/6
f 483/4/6 484/4/6 488/4/6
f 484/5/6 485/5/6 489/5/6
f 488/4/6 484/4/6 489/4/6
f 489/5/6 485/5/6 490/5/6
f 486/4/6 487/4/6 491/4/6
f 491/4/6 487/4/6 492/4/6
f 493/4/6 494/4/6 496/4/6
f 494/5/6 495/5/6 497/5/6
f 496/4/6 494/4/6 497/4/6
f 497/5/6 495/5/6 498/5/6
f 499/5/6 500/5/6 501/5/6
f 501/5/6 500/5/6 502/5/6
f 503/5/6 504/5/6 505/5/6
f 505/5/6 504/5/6 506/5/6
f 507/5/6 508/5/6 509/5/6
f 509/5/6 508/5/6 510/5/6
f 511/2/6 512/2/6 513/2/6
f 513/2/6 512/2/6 514/2/6
f 515/2/6 516/2/6 517/2/6
f 517/2/6 516/2/6 518/2/6
